M48
; DRILL file {KiCad (7.0.0)} date Wed Jun  7 22:19:02 2023
; FORMAT={-:-/ absolute / metric / decimal}
; #@! TF.CreationDate,2023-06-07T22:19:02+08:00
; #@! TF.GenerationSoftware,Kicad,Pcbnew,(7.0.0)
; #@! TF.FileFunction,MixedPlating,1,2
FMAT,2
METRIC
; #@! TA.AperFunction,Plated,PTH,ViaDrill
T1C0.300
; #@! TA.AperFunction,Plated,PTH,ComponentDrill
T2C0.600
; #@! TA.AperFunction,NonPlated,NPTH,ComponentDrill
T3C0.650
%
G90
G05
T1
X138.65Y-92.95
X138.9Y-81.9
X139.15Y-84.15
X139.25Y-85.3
X139.25Y-86.8
X139.25Y-88.45
X139.25Y-89.8
X139.25Y-96.9
X139.35Y-81.3
X139.55Y-91.85
X140.05Y-84.2
X140.15Y-86.8
X140.15Y-93.1
X140.5Y-88.868
X140.55Y-91.85
X140.65Y-95.35
X140.9Y-78.15
X141.0Y-88.35
X141.4Y-91.3
X141.5Y-88.868
X141.65Y-83.4
X141.9Y-94.1
X142.05Y-96.95
X142.75Y-87.7
X142.9Y-91.3
X142.9Y-94.15
X143.15Y-79.5
X143.2Y-77.4
X143.6Y-90.05
X143.65Y-85.25
X143.85Y-84.25
X143.9Y-83.4
X143.9Y-94.15
X144.15Y-79.5
X144.35Y-89.25
X144.4Y-87.65
X144.8Y-96.95
X144.9Y-94.15
X145.0Y-83.9
X145.1Y-91.3
X145.7Y-78.0
X145.95Y-87.65
X146.0Y-93.65
X146.05Y-83.2
X146.2Y-92.4
X146.2Y-95.35
X146.3Y-84.2
X146.75Y-81.85
X147.1Y-91.4
X147.35Y-86.0
X147.35Y-87.65
X147.4Y-89.25
X147.55Y-96.95
T3
X140.51Y-79.24
X146.29Y-79.24
T2
G00X139.08Y-75.89
M15
G01X139.08Y-75.29
M16
G05
G00X139.08Y-80.32
M15
G01X139.08Y-79.22
M16
G05
G00X147.72Y-75.89
M15
G01X147.72Y-75.29
M16
G05
G00X147.72Y-80.32
M15
G01X147.72Y-79.22
M16
G05
T0
M30
