%TF.GenerationSoftware,KiCad,Pcbnew,(7.0.0)*%
%TF.CreationDate,2023-06-07T22:18:09+08:00*%
%TF.ProjectId,USB2UART,55534232-5541-4525-942e-6b696361645f,rev?*%
%TF.SameCoordinates,Original*%
%TF.FileFunction,Copper,L1,Top*%
%TF.FilePolarity,Positive*%
%FSLAX46Y46*%
G04 Gerber Fmt 4.6, Leading zero omitted, Abs format (unit mm)*
G04 Created by KiCad (PCBNEW (7.0.0)) date 2023-06-07 22:18:09*
%MOMM*%
%LPD*%
G01*
G04 APERTURE LIST*
G04 Aperture macros list*
%AMRoundRect*
0 Rectangle with rounded corners*
0 $1 Rounding radius*
0 $2 $3 $4 $5 $6 $7 $8 $9 X,Y pos of 4 corners*
0 Add a 4 corners polygon primitive as box body*
4,1,4,$2,$3,$4,$5,$6,$7,$8,$9,$2,$3,0*
0 Add four circle primitives for the rounded corners*
1,1,$1+$1,$2,$3*
1,1,$1+$1,$4,$5*
1,1,$1+$1,$6,$7*
1,1,$1+$1,$8,$9*
0 Add four rect primitives between the rounded corners*
20,1,$1+$1,$2,$3,$4,$5,0*
20,1,$1+$1,$4,$5,$6,$7,0*
20,1,$1+$1,$6,$7,$8,$9,0*
20,1,$1+$1,$8,$9,$2,$3,0*%
G04 Aperture macros list end*
%TA.AperFunction,SMDPad,CuDef*%
%ADD10RoundRect,0.135000X-0.135000X-0.185000X0.135000X-0.185000X0.135000X0.185000X-0.135000X0.185000X0*%
%TD*%
%TA.AperFunction,SMDPad,CuDef*%
%ADD11RoundRect,0.140000X0.140000X0.170000X-0.140000X0.170000X-0.140000X-0.170000X0.140000X-0.170000X0*%
%TD*%
%TA.AperFunction,SMDPad,CuDef*%
%ADD12RoundRect,0.135000X-0.185000X0.135000X-0.185000X-0.135000X0.185000X-0.135000X0.185000X0.135000X0*%
%TD*%
%TA.AperFunction,SMDPad,CuDef*%
%ADD13RoundRect,0.150000X-0.150000X-0.625000X0.150000X-0.625000X0.150000X0.625000X-0.150000X0.625000X0*%
%TD*%
%TA.AperFunction,SMDPad,CuDef*%
%ADD14RoundRect,0.250000X-0.350000X-0.650000X0.350000X-0.650000X0.350000X0.650000X-0.350000X0.650000X0*%
%TD*%
%TA.AperFunction,SMDPad,CuDef*%
%ADD15RoundRect,0.218750X-0.218750X-0.256250X0.218750X-0.256250X0.218750X0.256250X-0.218750X0.256250X0*%
%TD*%
%TA.AperFunction,SMDPad,CuDef*%
%ADD16RoundRect,0.112500X0.187500X0.112500X-0.187500X0.112500X-0.187500X-0.112500X0.187500X-0.112500X0*%
%TD*%
%TA.AperFunction,SMDPad,CuDef*%
%ADD17R,0.600000X1.450000*%
%TD*%
%TA.AperFunction,SMDPad,CuDef*%
%ADD18R,0.300000X1.450000*%
%TD*%
%TA.AperFunction,ComponentPad*%
%ADD19O,1.000000X2.100000*%
%TD*%
%TA.AperFunction,ComponentPad*%
%ADD20O,1.000000X1.600000*%
%TD*%
%TA.AperFunction,SMDPad,CuDef*%
%ADD21R,0.300000X1.400000*%
%TD*%
%TA.AperFunction,ViaPad*%
%ADD22C,0.500000*%
%TD*%
%TA.AperFunction,Conductor*%
%ADD23C,0.300000*%
%TD*%
%TA.AperFunction,Conductor*%
%ADD24C,0.500000*%
%TD*%
%TA.AperFunction,Conductor*%
%ADD25C,0.100000*%
%TD*%
G04 APERTURE END LIST*
D10*
X146352500Y-90050000D03*
X147372500Y-90050000D03*
D11*
X140680000Y-82400000D03*
X139720000Y-82400000D03*
D12*
X143900000Y-82390000D03*
X143900000Y-83410000D03*
D13*
X141900000Y-93100000D03*
X142900000Y-93100000D03*
X143900000Y-93100000D03*
X144900000Y-93100000D03*
D14*
X140600000Y-96975000D03*
X146200000Y-96975000D03*
D15*
X143612500Y-86850000D03*
X145187500Y-86850000D03*
D12*
X141650000Y-82390000D03*
X141650000Y-83410000D03*
D16*
X147050000Y-82900000D03*
X144950000Y-82900000D03*
D17*
X146649999Y-80684999D03*
X145849999Y-80684999D03*
D18*
X144649999Y-80684999D03*
X143649999Y-80684999D03*
X143149999Y-80684999D03*
X142149999Y-80684999D03*
D17*
X140949999Y-80684999D03*
X140149999Y-80684999D03*
X140149999Y-80684999D03*
X140949999Y-80684999D03*
D18*
X141649999Y-80684999D03*
X142649999Y-80684999D03*
X144149999Y-80684999D03*
X145149999Y-80684999D03*
D17*
X145849999Y-80684999D03*
X146649999Y-80684999D03*
D19*
X147719999Y-79769999D03*
D20*
X147719999Y-75589999D03*
D19*
X139079999Y-79769999D03*
D20*
X139079999Y-75589999D03*
D10*
X146352500Y-85250000D03*
X147372500Y-85250000D03*
D21*
X141999999Y-85449999D03*
X141499999Y-85449999D03*
X140999999Y-85449999D03*
X140499999Y-85449999D03*
X139999999Y-85449999D03*
X139999999Y-89849999D03*
X140499999Y-89849999D03*
X140999999Y-89849999D03*
X141499999Y-89849999D03*
X141999999Y-89849999D03*
D15*
X143625000Y-85250000D03*
X145200000Y-85250000D03*
D11*
X142380000Y-91300000D03*
X141420000Y-91300000D03*
D15*
X143600000Y-88450000D03*
X145175000Y-88450000D03*
D11*
X140680000Y-83400000D03*
X139720000Y-83400000D03*
X140530000Y-91300000D03*
X139570000Y-91300000D03*
D10*
X146352500Y-86850000D03*
X147372500Y-86850000D03*
D15*
X143612500Y-90050000D03*
X145187500Y-90050000D03*
D10*
X146352500Y-88450000D03*
X147372500Y-88450000D03*
D22*
X140050000Y-84200000D03*
X142900000Y-94150000D03*
X147100000Y-91400000D03*
X147550000Y-96950000D03*
X145000000Y-83900000D03*
X139350000Y-81300000D03*
X141400000Y-91300000D03*
X146000000Y-93650000D03*
X139550000Y-91850000D03*
X145100000Y-91300000D03*
X139250000Y-85300000D03*
X144350000Y-89250000D03*
X145700000Y-78000000D03*
X139150000Y-84150000D03*
X139250000Y-88450000D03*
X141650000Y-83400000D03*
X139250000Y-86800000D03*
X139250000Y-96900000D03*
X147400000Y-89250000D03*
X140150000Y-86800000D03*
X143600000Y-90050000D03*
X143850000Y-84250000D03*
X140150000Y-93100000D03*
X143200000Y-77400000D03*
X146200000Y-95350000D03*
X146200000Y-92400000D03*
X146300000Y-84200000D03*
X142050000Y-96950000D03*
X146750000Y-81850000D03*
X143650000Y-85250000D03*
X144400000Y-87650000D03*
X146050000Y-83200000D03*
X143900000Y-83400000D03*
X142750000Y-87700000D03*
X140650000Y-95350000D03*
X139250000Y-89800000D03*
X138650000Y-92950000D03*
X144800000Y-96950000D03*
X145950000Y-87650000D03*
X140900000Y-78150000D03*
X138900000Y-81900000D03*
X147350000Y-86000000D03*
X140550000Y-91850000D03*
X141900000Y-94100000D03*
X140499999Y-88867952D03*
X147350000Y-87650000D03*
X142900000Y-91300000D03*
X141000000Y-88350000D03*
X144900000Y-94150000D03*
X143900000Y-94150000D03*
X141500000Y-88867951D03*
X144150000Y-79500000D03*
X143150000Y-79500000D03*
D23*
X140950000Y-79810000D02*
X142160000Y-78600000D01*
D24*
X140680000Y-82212685D02*
X140680000Y-82400000D01*
D23*
X140950000Y-80685000D02*
X140950000Y-79810000D01*
X144500000Y-78600000D02*
X145850000Y-79950000D01*
X142160000Y-78600000D02*
X144500000Y-78600000D01*
X145850000Y-79950000D02*
X145850000Y-80685000D01*
D24*
X145850000Y-82000000D02*
X144950000Y-82900000D01*
X140950000Y-81942685D02*
X140680000Y-82212685D01*
X145850000Y-80685000D02*
X145850000Y-82000000D01*
X140680000Y-82400000D02*
X140680000Y-83400000D01*
X140950000Y-80685000D02*
X140950000Y-81942685D01*
D23*
X139570000Y-91830000D02*
X139550000Y-91850000D01*
X139570000Y-91300000D02*
X139570000Y-91830000D01*
X140530000Y-91830000D02*
X140550000Y-91850000D01*
X140500000Y-91270000D02*
X140530000Y-91300000D01*
X140500000Y-89850000D02*
X140500000Y-91270000D01*
X140500000Y-88867953D02*
X140499999Y-88867952D01*
X140500000Y-89850000D02*
X140500000Y-88867953D01*
D24*
X147372500Y-83222500D02*
X147372500Y-85250000D01*
X147350000Y-85272500D02*
X147372500Y-85250000D01*
D23*
X140530000Y-91300000D02*
X140530000Y-91830000D01*
X141900000Y-94100000D02*
X141900000Y-93100000D01*
D24*
X147350000Y-86000000D02*
X147350000Y-85272500D01*
X147050000Y-82900000D02*
X147372500Y-83222500D01*
X142380000Y-91300000D02*
X142900000Y-91300000D01*
X147350000Y-87650000D02*
X147350000Y-88427500D01*
D23*
X142000000Y-90850000D02*
X142380000Y-91230000D01*
X142000000Y-89850000D02*
X142000000Y-90850000D01*
D24*
X147350000Y-88427500D02*
X147372500Y-88450000D01*
X147350000Y-87650000D02*
X147350000Y-86872500D01*
X147350000Y-86872500D02*
X147372500Y-86850000D01*
D23*
X142380000Y-91230000D02*
X142380000Y-91300000D01*
D25*
X142500000Y-86850000D02*
X143612500Y-86850000D01*
X141000000Y-88350000D02*
X142500000Y-86850000D01*
X144900000Y-94150000D02*
X144900000Y-93100000D01*
X141000000Y-89850000D02*
X141000000Y-88350000D01*
X145187500Y-86850000D02*
X146352500Y-86850000D01*
X141917951Y-88450000D02*
X143600000Y-88450000D01*
X141500000Y-89850000D02*
X141500000Y-88867951D01*
X143900000Y-94150000D02*
X143900000Y-93100000D01*
X141500000Y-88867951D02*
X141917951Y-88450000D01*
X145175000Y-88450000D02*
X146352500Y-88450000D01*
X145187500Y-90050000D02*
X146352500Y-90050000D01*
X145200000Y-85250000D02*
X146352500Y-85250000D01*
X144650000Y-80685000D02*
X144650000Y-81640000D01*
X144650000Y-81640000D02*
X143900000Y-82390000D01*
X143100000Y-82310000D02*
X143100000Y-83700000D01*
X142000000Y-84800000D02*
X142000000Y-85450000D01*
X142650000Y-79292893D02*
X142650000Y-80685000D01*
X143650000Y-81760000D02*
X143100000Y-82310000D01*
X143357107Y-79000000D02*
X142942893Y-79000000D01*
X142942893Y-79000000D02*
X142650000Y-79292893D01*
X143650000Y-80685000D02*
X143650000Y-81760000D01*
X143650000Y-79292893D02*
X143357107Y-79000000D01*
X143650000Y-80685000D02*
X143650000Y-79292893D01*
X143100000Y-83700000D02*
X142000000Y-84800000D01*
X142787868Y-82197868D02*
X142787868Y-83587868D01*
X142787868Y-83587868D02*
X141875736Y-84500000D01*
X143150000Y-80685000D02*
X143150000Y-79500000D01*
X143150000Y-80685000D02*
X143150000Y-81835736D01*
X144150000Y-79500000D02*
X144150000Y-80685000D01*
X143150000Y-81835736D02*
X142787868Y-82197868D01*
X141500000Y-84600000D02*
X141500000Y-85450000D01*
X141600000Y-84500000D02*
X141500000Y-84600000D01*
X141875736Y-84500000D02*
X141600000Y-84500000D01*
X141650000Y-80685000D02*
X141650000Y-82390000D01*
X139040000Y-90968457D02*
X139358457Y-90650000D01*
X139040000Y-92047107D02*
X139040000Y-90968457D01*
X140000000Y-90500000D02*
X140000000Y-89850000D01*
X147372500Y-90050000D02*
X145347500Y-92075000D01*
X139850000Y-90650000D02*
X140000000Y-90500000D01*
X139358457Y-90650000D02*
X139850000Y-90650000D01*
X141475000Y-92075000D02*
X141200000Y-92350000D01*
X145347500Y-92075000D02*
X141475000Y-92075000D01*
X141200000Y-92350000D02*
X139342893Y-92350000D01*
X139342893Y-92350000D02*
X139040000Y-92047107D01*
%TA.AperFunction,Conductor*%
G36*
X147941209Y-90411135D02*
G01*
X147983953Y-90456177D01*
X147999500Y-90516294D01*
X147999500Y-90799899D01*
X147999458Y-90800000D01*
X147999576Y-90800284D01*
X147999617Y-90800383D01*
X147999715Y-90800423D01*
X148371066Y-91171774D01*
X148713181Y-91513888D01*
X148740061Y-91554116D01*
X148749500Y-91601569D01*
X148749500Y-97593037D01*
X148748720Y-97606925D01*
X148746662Y-97625185D01*
X148746381Y-97627483D01*
X148736161Y-97705106D01*
X148732994Y-97721024D01*
X148732474Y-97722964D01*
X148729745Y-97731811D01*
X148718809Y-97763067D01*
X148716327Y-97769570D01*
X148694531Y-97822189D01*
X148684964Y-97840707D01*
X148664651Y-97873035D01*
X148658033Y-97882549D01*
X148625470Y-97924986D01*
X148614775Y-97937181D01*
X148587181Y-97964775D01*
X148574986Y-97975470D01*
X148532549Y-98008033D01*
X148523034Y-98014651D01*
X148490704Y-98034965D01*
X148472187Y-98044532D01*
X148419568Y-98066328D01*
X148413066Y-98068809D01*
X148381819Y-98079742D01*
X148372978Y-98082470D01*
X148371031Y-98082992D01*
X148355106Y-98086161D01*
X148277483Y-98096381D01*
X148275185Y-98096662D01*
X148267440Y-98097534D01*
X148256919Y-98098720D01*
X148243037Y-98099500D01*
X138556969Y-98099500D01*
X138543077Y-98098719D01*
X138524779Y-98096656D01*
X138522487Y-98096376D01*
X138444897Y-98086162D01*
X138428954Y-98082988D01*
X138428099Y-98082759D01*
X138427008Y-98082467D01*
X138418184Y-98079743D01*
X138386914Y-98068801D01*
X138380417Y-98066322D01*
X138327817Y-98044535D01*
X138309295Y-98034966D01*
X138276949Y-98014641D01*
X138267437Y-98008024D01*
X138225015Y-97975473D01*
X138212820Y-97964778D01*
X138185214Y-97937172D01*
X138174523Y-97924982D01*
X138141974Y-97882563D01*
X138135359Y-97873053D01*
X138115029Y-97840698D01*
X138105466Y-97822187D01*
X138083663Y-97769550D01*
X138081200Y-97763095D01*
X138070246Y-97731791D01*
X138067514Y-97722927D01*
X138066989Y-97720968D01*
X138063837Y-97705105D01*
X138053619Y-97627490D01*
X138053338Y-97625189D01*
X138051280Y-97606924D01*
X138050500Y-97593040D01*
X138050500Y-91601570D01*
X138059939Y-91554117D01*
X138086819Y-91513889D01*
X138577819Y-91022888D01*
X138627182Y-90992638D01*
X138684898Y-90988096D01*
X138738385Y-91010251D01*
X138775985Y-91054274D01*
X138789500Y-91110569D01*
X138789500Y-92010222D01*
X138787116Y-92034413D01*
X138784592Y-92047107D01*
X138786975Y-92059087D01*
X138801650Y-92132867D01*
X138801651Y-92132870D01*
X138804034Y-92144848D01*
X138820332Y-92169239D01*
X138859399Y-92227708D01*
X138869551Y-92234491D01*
X138869553Y-92234493D01*
X138870165Y-92234902D01*
X138888957Y-92250324D01*
X139139676Y-92501043D01*
X139155097Y-92519833D01*
X139162292Y-92530601D01*
X139172450Y-92537388D01*
X139215356Y-92566057D01*
X139234997Y-92579181D01*
X139234998Y-92579181D01*
X139245152Y-92585966D01*
X139342893Y-92605408D01*
X139354873Y-92603025D01*
X139355587Y-92602883D01*
X139379778Y-92600500D01*
X141163115Y-92600500D01*
X141187306Y-92602883D01*
X141200000Y-92605408D01*
X141211980Y-92603025D01*
X141251309Y-92595202D01*
X141305630Y-92596535D01*
X141354165Y-92620966D01*
X141387595Y-92663802D01*
X141399500Y-92716819D01*
X141399500Y-93758260D01*
X141409427Y-93826393D01*
X141413654Y-93835041D01*
X141413656Y-93835045D01*
X141450439Y-93910285D01*
X141461533Y-93945485D01*
X141461776Y-93982392D01*
X141444867Y-94100000D01*
X141446129Y-94108777D01*
X141462040Y-94219446D01*
X141462041Y-94219450D01*
X141463303Y-94228226D01*
X141466987Y-94236294D01*
X141466988Y-94236295D01*
X141513434Y-94337998D01*
X141513436Y-94338002D01*
X141517118Y-94346063D01*
X141522920Y-94352759D01*
X141522922Y-94352762D01*
X141566247Y-94402762D01*
X141601951Y-94443967D01*
X141710931Y-94514004D01*
X141835228Y-94550500D01*
X141955901Y-94550500D01*
X141964772Y-94550500D01*
X142089069Y-94514004D01*
X142198049Y-94443967D01*
X142282882Y-94346063D01*
X142336697Y-94228226D01*
X142355133Y-94100000D01*
X142338223Y-93982387D01*
X142338466Y-93945485D01*
X142349561Y-93910284D01*
X142386342Y-93835047D01*
X142386343Y-93835045D01*
X142390573Y-93826393D01*
X142400500Y-93758260D01*
X142400500Y-92449500D01*
X142417113Y-92387500D01*
X142462500Y-92342113D01*
X142524500Y-92325500D01*
X143275500Y-92325500D01*
X143337500Y-92342113D01*
X143382887Y-92387500D01*
X143399500Y-92449500D01*
X143399500Y-93758260D01*
X143409427Y-93826393D01*
X143413657Y-93835045D01*
X143458617Y-93927014D01*
X143470773Y-93971001D01*
X143466318Y-94015170D01*
X143463303Y-94021774D01*
X143444867Y-94150000D01*
X143446129Y-94158777D01*
X143462040Y-94269446D01*
X143462041Y-94269450D01*
X143463303Y-94278226D01*
X143466987Y-94286294D01*
X143466988Y-94286295D01*
X143513434Y-94387998D01*
X143513436Y-94388001D01*
X143517118Y-94396063D01*
X143522920Y-94402759D01*
X143522922Y-94402762D01*
X143552818Y-94437264D01*
X143601951Y-94493967D01*
X143710931Y-94564004D01*
X143835228Y-94600500D01*
X143955901Y-94600500D01*
X143964772Y-94600500D01*
X144089069Y-94564004D01*
X144198049Y-94493967D01*
X144282882Y-94396063D01*
X144287205Y-94386596D01*
X144288770Y-94384566D01*
X144291360Y-94380537D01*
X144291706Y-94380759D01*
X144321505Y-94342114D01*
X144371914Y-94317329D01*
X144428086Y-94317329D01*
X144478495Y-94342114D01*
X144508293Y-94380759D01*
X144508640Y-94380537D01*
X144511229Y-94384566D01*
X144512794Y-94386596D01*
X144517118Y-94396063D01*
X144522920Y-94402759D01*
X144522922Y-94402762D01*
X144552818Y-94437264D01*
X144601951Y-94493967D01*
X144710931Y-94564004D01*
X144835228Y-94600500D01*
X144955901Y-94600500D01*
X144964772Y-94600500D01*
X145089069Y-94564004D01*
X145198049Y-94493967D01*
X145282882Y-94396063D01*
X145336697Y-94278226D01*
X145355133Y-94150000D01*
X145336697Y-94021774D01*
X145333682Y-94015172D01*
X145329226Y-93971003D01*
X145341383Y-93927013D01*
X145386342Y-93835048D01*
X145386343Y-93835045D01*
X145390573Y-93826393D01*
X145400500Y-93758260D01*
X145400500Y-92441740D01*
X145398394Y-92427290D01*
X145407800Y-92359017D01*
X145452207Y-92306311D01*
X145475036Y-92291057D01*
X145528101Y-92255601D01*
X145535295Y-92244832D01*
X145550710Y-92226048D01*
X147169940Y-90606819D01*
X147210169Y-90579939D01*
X147257622Y-90570500D01*
X147542763Y-90570500D01*
X147546816Y-90570500D01*
X147595673Y-90564068D01*
X147702904Y-90514065D01*
X147786565Y-90430404D01*
X147788706Y-90432545D01*
X147821140Y-90404845D01*
X147881988Y-90392464D01*
X147941209Y-90411135D01*
G37*
%TD.AperFunction*%
%TA.AperFunction,Conductor*%
G36*
X139974452Y-90896906D02*
G01*
X140027299Y-90930978D01*
X140056639Y-90986591D01*
X140055173Y-91040400D01*
X140056028Y-91040513D01*
X140054946Y-91048727D01*
X140054945Y-91048732D01*
X140054790Y-91049913D01*
X140054790Y-91049915D01*
X140050717Y-91080858D01*
X140049500Y-91090099D01*
X140049500Y-91094151D01*
X140049500Y-91094152D01*
X140049500Y-91505840D01*
X140049500Y-91505855D01*
X140049501Y-91509900D01*
X140050029Y-91513916D01*
X140050030Y-91513921D01*
X140054790Y-91550082D01*
X140056028Y-91559487D01*
X140060037Y-91568084D01*
X140060038Y-91568087D01*
X140102025Y-91658130D01*
X140112310Y-91692400D01*
X140112381Y-91728180D01*
X140096129Y-91841221D01*
X140094867Y-91850000D01*
X140100903Y-91891985D01*
X140110374Y-91957853D01*
X140106613Y-92010435D01*
X140081349Y-92056703D01*
X140039147Y-92088294D01*
X139987636Y-92099500D01*
X139498015Y-92099500D01*
X139450562Y-92090061D01*
X139410334Y-92063181D01*
X139326819Y-91979666D01*
X139299939Y-91939438D01*
X139290500Y-91891985D01*
X139290500Y-91123579D01*
X139299939Y-91076126D01*
X139326819Y-91035898D01*
X139425898Y-90936819D01*
X139466126Y-90909939D01*
X139513579Y-90900500D01*
X139813115Y-90900500D01*
X139837306Y-90902883D01*
X139850000Y-90905408D01*
X139911689Y-90893137D01*
X139974452Y-90896906D01*
G37*
%TD.AperFunction*%
%TA.AperFunction,Conductor*%
G36*
X141330252Y-90750500D02*
G01*
X141524882Y-90750500D01*
X141582393Y-90764644D01*
X141626785Y-90803848D01*
X141647931Y-90859169D01*
X141648653Y-90864964D01*
X141649180Y-90870055D01*
X141649500Y-90873917D01*
X141649500Y-90879040D01*
X141650343Y-90884091D01*
X141652666Y-90898016D01*
X141653403Y-90903077D01*
X141656969Y-90931684D01*
X141659427Y-90951393D01*
X141662686Y-90958060D01*
X141663908Y-90965381D01*
X141668796Y-90974413D01*
X141668797Y-90974416D01*
X141687081Y-91008202D01*
X141689421Y-91012747D01*
X141710802Y-91056484D01*
X141716050Y-91061732D01*
X141719582Y-91068258D01*
X141727138Y-91075214D01*
X141727139Y-91075215D01*
X141755399Y-91101230D01*
X141759097Y-91104779D01*
X141863181Y-91208863D01*
X141890061Y-91249091D01*
X141899500Y-91296543D01*
X141899500Y-91505840D01*
X141899500Y-91505855D01*
X141899501Y-91509900D01*
X141900029Y-91513916D01*
X141900030Y-91513921D01*
X141904790Y-91550082D01*
X141906028Y-91559487D01*
X141920430Y-91590373D01*
X141947347Y-91648095D01*
X141958700Y-91708610D01*
X141939546Y-91767125D01*
X141894608Y-91809214D01*
X141834965Y-91824500D01*
X141511890Y-91824500D01*
X141487699Y-91822117D01*
X141475000Y-91819591D01*
X141463021Y-91821974D01*
X141389237Y-91836651D01*
X141389234Y-91836651D01*
X141377260Y-91839034D01*
X141367107Y-91845817D01*
X141367104Y-91845819D01*
X141336144Y-91866506D01*
X141336145Y-91866506D01*
X141294399Y-91894399D01*
X141287615Y-91904550D01*
X141287608Y-91904558D01*
X141287201Y-91905169D01*
X141271786Y-91923950D01*
X141211377Y-91984359D01*
X141158630Y-92015655D01*
X141097336Y-92017844D01*
X141042491Y-91990389D01*
X141007513Y-91940009D01*
X141000959Y-91879029D01*
X141005133Y-91850000D01*
X140986697Y-91721774D01*
X140981573Y-91710556D01*
X140970368Y-91658551D01*
X140981986Y-91606635D01*
X140999961Y-91568088D01*
X140999960Y-91568088D01*
X141003972Y-91559487D01*
X141010500Y-91509901D01*
X141010499Y-91090100D01*
X141003972Y-91040513D01*
X140953224Y-90931684D01*
X140955421Y-90930659D01*
X140938525Y-90882606D01*
X140952272Y-90817241D01*
X140997933Y-90768490D01*
X141062260Y-90750500D01*
X141163652Y-90750500D01*
X141169748Y-90750500D01*
X141225813Y-90739348D01*
X141274187Y-90739348D01*
X141330252Y-90750500D01*
G37*
%TD.AperFunction*%
%TA.AperFunction,Conductor*%
G36*
X148256920Y-72701279D02*
G01*
X148275214Y-72703341D01*
X148277478Y-72703617D01*
X148355109Y-72713837D01*
X148370968Y-72716989D01*
X148372927Y-72717514D01*
X148381791Y-72720246D01*
X148413106Y-72731204D01*
X148419551Y-72733664D01*
X148472185Y-72755465D01*
X148490698Y-72765029D01*
X148523053Y-72785359D01*
X148532563Y-72791974D01*
X148574982Y-72824523D01*
X148587172Y-72835214D01*
X148614778Y-72862820D01*
X148625473Y-72875015D01*
X148658024Y-72917437D01*
X148664641Y-72926949D01*
X148684966Y-72959295D01*
X148694535Y-72977817D01*
X148716322Y-73030417D01*
X148718801Y-73036914D01*
X148729743Y-73068184D01*
X148732467Y-73077008D01*
X148732988Y-73078950D01*
X148736162Y-73094897D01*
X148746376Y-73172487D01*
X148746656Y-73174779D01*
X148748719Y-73193077D01*
X148749500Y-73206969D01*
X148749500Y-81898431D01*
X148740061Y-81945884D01*
X148713181Y-81986112D01*
X148008060Y-82691229D01*
X148008055Y-82691235D01*
X147999715Y-82699576D01*
X147999617Y-82699617D01*
X147999576Y-82699715D01*
X147999576Y-82699716D01*
X147999458Y-82700000D01*
X147999500Y-82700101D01*
X147999500Y-82712051D01*
X147999500Y-82942903D01*
X147981948Y-83006503D01*
X147934260Y-83052097D01*
X147869936Y-83066778D01*
X147807188Y-83046390D01*
X147763780Y-82996704D01*
X147752958Y-82974232D01*
X147752956Y-82974229D01*
X147748925Y-82965858D01*
X147743082Y-82959560D01*
X147739066Y-82951962D01*
X147698652Y-82911548D01*
X147695435Y-82908209D01*
X147663881Y-82874202D01*
X147656555Y-82866306D01*
X147650546Y-82862836D01*
X147644843Y-82857739D01*
X147582170Y-82795066D01*
X147558637Y-82762226D01*
X147546911Y-82723564D01*
X147545737Y-82714646D01*
X147544499Y-82705240D01*
X147497850Y-82605201D01*
X147419799Y-82527150D01*
X147319760Y-82480501D01*
X147310359Y-82479263D01*
X147310355Y-82479262D01*
X147278198Y-82475029D01*
X147278196Y-82475028D01*
X147274179Y-82474500D01*
X147270126Y-82474500D01*
X147219058Y-82474500D01*
X147178104Y-82467542D01*
X147143471Y-82455423D01*
X147143468Y-82455422D01*
X147134699Y-82452354D01*
X147125412Y-82452006D01*
X147125410Y-82452006D01*
X147008274Y-82447623D01*
X147008271Y-82447623D01*
X146998990Y-82447276D01*
X146990021Y-82449679D01*
X146990013Y-82449680D01*
X146913149Y-82470275D01*
X146881060Y-82474500D01*
X146829881Y-82474500D01*
X146829866Y-82474500D01*
X146825822Y-82474501D01*
X146821806Y-82475029D01*
X146821800Y-82475030D01*
X146789644Y-82479263D01*
X146789643Y-82479263D01*
X146780240Y-82480501D01*
X146771645Y-82484508D01*
X146771641Y-82484510D01*
X146690031Y-82522566D01*
X146680201Y-82527150D01*
X146672533Y-82534817D01*
X146672530Y-82534820D01*
X146609820Y-82597530D01*
X146609817Y-82597533D01*
X146602150Y-82605201D01*
X146597566Y-82615030D01*
X146597566Y-82615031D01*
X146559511Y-82696641D01*
X146555501Y-82705240D01*
X146554263Y-82714638D01*
X146554262Y-82714644D01*
X146551278Y-82737313D01*
X146549500Y-82750821D01*
X146549500Y-82754872D01*
X146549500Y-82754873D01*
X146549500Y-83045118D01*
X146549500Y-83045133D01*
X146549501Y-83049178D01*
X146555501Y-83094760D01*
X146602150Y-83194799D01*
X146680201Y-83272850D01*
X146780240Y-83319499D01*
X146798573Y-83321912D01*
X146837228Y-83333638D01*
X146870067Y-83357170D01*
X146885681Y-83372784D01*
X146912561Y-83413012D01*
X146922000Y-83460465D01*
X146922000Y-84725669D01*
X146908485Y-84781964D01*
X146870885Y-84825987D01*
X146817398Y-84848142D01*
X146759682Y-84843600D01*
X146710319Y-84813350D01*
X146690574Y-84793605D01*
X146690574Y-84793604D01*
X146682904Y-84785935D01*
X146673075Y-84781352D01*
X146673073Y-84781350D01*
X146584269Y-84739940D01*
X146584266Y-84739939D01*
X146575673Y-84735932D01*
X146566273Y-84734694D01*
X146566268Y-84734693D01*
X146530836Y-84730029D01*
X146530832Y-84730028D01*
X146526816Y-84729500D01*
X146178184Y-84729500D01*
X146174168Y-84730028D01*
X146174163Y-84730029D01*
X146138731Y-84734693D01*
X146138724Y-84734694D01*
X146129327Y-84735932D01*
X146120735Y-84739938D01*
X146120730Y-84739940D01*
X146031926Y-84781350D01*
X146031921Y-84781353D01*
X146022096Y-84785935D01*
X146014430Y-84793600D01*
X146014424Y-84793605D01*
X145984650Y-84823380D01*
X145935287Y-84853629D01*
X145877572Y-84858171D01*
X145824085Y-84836016D01*
X145786485Y-84791993D01*
X145766588Y-84752944D01*
X145762158Y-84744249D01*
X145668251Y-84650342D01*
X145549920Y-84590049D01*
X145540283Y-84588522D01*
X145540278Y-84588521D01*
X145456566Y-84575263D01*
X145456560Y-84575262D01*
X145451746Y-84574500D01*
X144948254Y-84574500D01*
X144943440Y-84575262D01*
X144943433Y-84575263D01*
X144859721Y-84588521D01*
X144859714Y-84588523D01*
X144850080Y-84590049D01*
X144841384Y-84594479D01*
X144841383Y-84594480D01*
X144740444Y-84645911D01*
X144740441Y-84645913D01*
X144731749Y-84650342D01*
X144724850Y-84657240D01*
X144724847Y-84657243D01*
X144644743Y-84737347D01*
X144644740Y-84737350D01*
X144637842Y-84744249D01*
X144633413Y-84752941D01*
X144633411Y-84752944D01*
X144581980Y-84853883D01*
X144577549Y-84862580D01*
X144576023Y-84872214D01*
X144576021Y-84872221D01*
X144562763Y-84955933D01*
X144562762Y-84955940D01*
X144562000Y-84960754D01*
X144562000Y-85539246D01*
X144562762Y-85544060D01*
X144562763Y-85544066D01*
X144576021Y-85627778D01*
X144576022Y-85627783D01*
X144577549Y-85637420D01*
X144581980Y-85646116D01*
X144630089Y-85740536D01*
X144637842Y-85755751D01*
X144731749Y-85849658D01*
X144850080Y-85909951D01*
X144948254Y-85925500D01*
X145446868Y-85925500D01*
X145451746Y-85925500D01*
X145549920Y-85909951D01*
X145668251Y-85849658D01*
X145762158Y-85755751D01*
X145786484Y-85708007D01*
X145824084Y-85663983D01*
X145877572Y-85641828D01*
X145935288Y-85646370D01*
X145984651Y-85676620D01*
X146022096Y-85714065D01*
X146129327Y-85764068D01*
X146178184Y-85770500D01*
X146522763Y-85770500D01*
X146526816Y-85770500D01*
X146575673Y-85764068D01*
X146682904Y-85714065D01*
X146690574Y-85706394D01*
X146699461Y-85700172D01*
X146700364Y-85701462D01*
X146737182Y-85678900D01*
X146794898Y-85674358D01*
X146848385Y-85696513D01*
X146885985Y-85740536D01*
X146899500Y-85796831D01*
X146899500Y-85958907D01*
X146898237Y-85976554D01*
X146894867Y-86000000D01*
X146896129Y-86008777D01*
X146896129Y-86008782D01*
X146899385Y-86031431D01*
X146899500Y-86032484D01*
X146899500Y-86033762D01*
X146900007Y-86037125D01*
X146904220Y-86065078D01*
X146904342Y-86065907D01*
X146913303Y-86128226D01*
X146913952Y-86129649D01*
X146914652Y-86134287D01*
X146918681Y-86142654D01*
X146918682Y-86142656D01*
X146941559Y-86190161D01*
X146942631Y-86192447D01*
X146958974Y-86228231D01*
X146967118Y-86246063D01*
X146970184Y-86249602D01*
X146973575Y-86256642D01*
X146979893Y-86263451D01*
X146987535Y-86271687D01*
X147017175Y-86326931D01*
X147016004Y-86389612D01*
X146984321Y-86443710D01*
X146966102Y-86461928D01*
X146966099Y-86461931D01*
X146958435Y-86469596D01*
X146958295Y-86469894D01*
X146919755Y-86503692D01*
X146862500Y-86517702D01*
X146805245Y-86503692D01*
X146766704Y-86469894D01*
X146766565Y-86469596D01*
X146682904Y-86385935D01*
X146673075Y-86381352D01*
X146673073Y-86381350D01*
X146584269Y-86339940D01*
X146584266Y-86339939D01*
X146575673Y-86335932D01*
X146566273Y-86334694D01*
X146566268Y-86334693D01*
X146530836Y-86330029D01*
X146530832Y-86330028D01*
X146526816Y-86329500D01*
X146178184Y-86329500D01*
X146174168Y-86330028D01*
X146174163Y-86330029D01*
X146138731Y-86334693D01*
X146138724Y-86334694D01*
X146129327Y-86335932D01*
X146120735Y-86339938D01*
X146120730Y-86339940D01*
X146031926Y-86381350D01*
X146031921Y-86381353D01*
X146022096Y-86385935D01*
X146014430Y-86393600D01*
X146014424Y-86393605D01*
X145976369Y-86431661D01*
X145927006Y-86461910D01*
X145869290Y-86466452D01*
X145815803Y-86444297D01*
X145778204Y-86400274D01*
X145754088Y-86352943D01*
X145754087Y-86352942D01*
X145749658Y-86344249D01*
X145655751Y-86250342D01*
X145537420Y-86190049D01*
X145527783Y-86188522D01*
X145527778Y-86188521D01*
X145444066Y-86175263D01*
X145444060Y-86175262D01*
X145439246Y-86174500D01*
X144935754Y-86174500D01*
X144930940Y-86175262D01*
X144930933Y-86175263D01*
X144847221Y-86188521D01*
X144847214Y-86188523D01*
X144837580Y-86190049D01*
X144828884Y-86194479D01*
X144828883Y-86194480D01*
X144727944Y-86245911D01*
X144727941Y-86245913D01*
X144719249Y-86250342D01*
X144712350Y-86257240D01*
X144712347Y-86257243D01*
X144632243Y-86337347D01*
X144632240Y-86337350D01*
X144625342Y-86344249D01*
X144620913Y-86352941D01*
X144620911Y-86352944D01*
X144569480Y-86453883D01*
X144565049Y-86462580D01*
X144563523Y-86472214D01*
X144563521Y-86472221D01*
X144550263Y-86555933D01*
X144550262Y-86555940D01*
X144549500Y-86560754D01*
X144549500Y-87139246D01*
X144550262Y-87144060D01*
X144550263Y-87144066D01*
X144563521Y-87227778D01*
X144563522Y-87227783D01*
X144565049Y-87237420D01*
X144569480Y-87246116D01*
X144620910Y-87347054D01*
X144625342Y-87355751D01*
X144719249Y-87449658D01*
X144837580Y-87509951D01*
X144935754Y-87525500D01*
X145434368Y-87525500D01*
X145439246Y-87525500D01*
X145537420Y-87509951D01*
X145655751Y-87449658D01*
X145749658Y-87355751D01*
X145778204Y-87299725D01*
X145815803Y-87255702D01*
X145869291Y-87233547D01*
X145927007Y-87238089D01*
X145976370Y-87268339D01*
X146022096Y-87314065D01*
X146129327Y-87364068D01*
X146178184Y-87370500D01*
X146522763Y-87370500D01*
X146526816Y-87370500D01*
X146575673Y-87364068D01*
X146682904Y-87314065D01*
X146690574Y-87306394D01*
X146699461Y-87300172D01*
X146700364Y-87301462D01*
X146737182Y-87278900D01*
X146794898Y-87274358D01*
X146848385Y-87296513D01*
X146885985Y-87340536D01*
X146899500Y-87396831D01*
X146899500Y-87608907D01*
X146898237Y-87626554D01*
X146894867Y-87650000D01*
X146896129Y-87658777D01*
X146898238Y-87673446D01*
X146899500Y-87691093D01*
X146899500Y-87903169D01*
X146885985Y-87959464D01*
X146848385Y-88003487D01*
X146794898Y-88025642D01*
X146737182Y-88021100D01*
X146700364Y-87998537D01*
X146699461Y-87999828D01*
X146690573Y-87993604D01*
X146682904Y-87985935D01*
X146673075Y-87981352D01*
X146673073Y-87981350D01*
X146584269Y-87939940D01*
X146584266Y-87939939D01*
X146575673Y-87935932D01*
X146566273Y-87934694D01*
X146566268Y-87934693D01*
X146530836Y-87930029D01*
X146530832Y-87930028D01*
X146526816Y-87929500D01*
X146178184Y-87929500D01*
X146174168Y-87930028D01*
X146174163Y-87930029D01*
X146138731Y-87934693D01*
X146138724Y-87934694D01*
X146129327Y-87935932D01*
X146120735Y-87939938D01*
X146120730Y-87939940D01*
X146031926Y-87981350D01*
X146031921Y-87981353D01*
X146022096Y-87985935D01*
X146014428Y-87993602D01*
X146014425Y-87993605D01*
X145968088Y-88039942D01*
X145918725Y-88070191D01*
X145861009Y-88074733D01*
X145807522Y-88052578D01*
X145769923Y-88008554D01*
X145737158Y-87944249D01*
X145643251Y-87850342D01*
X145524920Y-87790049D01*
X145515283Y-87788522D01*
X145515278Y-87788521D01*
X145431566Y-87775263D01*
X145431560Y-87775262D01*
X145426746Y-87774500D01*
X144923254Y-87774500D01*
X144918440Y-87775262D01*
X144918433Y-87775263D01*
X144834721Y-87788521D01*
X144834714Y-87788523D01*
X144825080Y-87790049D01*
X144816384Y-87794479D01*
X144816383Y-87794480D01*
X144715444Y-87845911D01*
X144715441Y-87845913D01*
X144706749Y-87850342D01*
X144699850Y-87857240D01*
X144699847Y-87857243D01*
X144619743Y-87937347D01*
X144619740Y-87937350D01*
X144612842Y-87944249D01*
X144608413Y-87952941D01*
X144608411Y-87952944D01*
X144557645Y-88052578D01*
X144552549Y-88062580D01*
X144551023Y-88072214D01*
X144551021Y-88072221D01*
X144537763Y-88155933D01*
X144537762Y-88155940D01*
X144537000Y-88160754D01*
X144537000Y-88739246D01*
X144537762Y-88744060D01*
X144537763Y-88744066D01*
X144551021Y-88827778D01*
X144551022Y-88827783D01*
X144552549Y-88837420D01*
X144556980Y-88846116D01*
X144602633Y-88935716D01*
X144612842Y-88955751D01*
X144706749Y-89049658D01*
X144825080Y-89109951D01*
X144923254Y-89125500D01*
X145421868Y-89125500D01*
X145426746Y-89125500D01*
X145524920Y-89109951D01*
X145643251Y-89049658D01*
X145737158Y-88955751D01*
X145769925Y-88891442D01*
X145807522Y-88847422D01*
X145861009Y-88825266D01*
X145918726Y-88829808D01*
X145968089Y-88860057D01*
X146022096Y-88914065D01*
X146129327Y-88964068D01*
X146178184Y-88970500D01*
X146522763Y-88970500D01*
X146526816Y-88970500D01*
X146575673Y-88964068D01*
X146682904Y-88914065D01*
X146766565Y-88830404D01*
X146766703Y-88830105D01*
X146805243Y-88796308D01*
X146862500Y-88782297D01*
X146919757Y-88796308D01*
X146958296Y-88830105D01*
X146958435Y-88830404D01*
X147042096Y-88914065D01*
X147149327Y-88964068D01*
X147198184Y-88970500D01*
X147542763Y-88970500D01*
X147546816Y-88970500D01*
X147595673Y-88964068D01*
X147702904Y-88914065D01*
X147786565Y-88830404D01*
X147788706Y-88832545D01*
X147821140Y-88804845D01*
X147881988Y-88792464D01*
X147941209Y-88811135D01*
X147983953Y-88856177D01*
X147999500Y-88916294D01*
X147999500Y-89583706D01*
X147983953Y-89643823D01*
X147941209Y-89688865D01*
X147881988Y-89707536D01*
X147821140Y-89695155D01*
X147788706Y-89667454D01*
X147786565Y-89669596D01*
X147702904Y-89585935D01*
X147693075Y-89581352D01*
X147693073Y-89581350D01*
X147604269Y-89539940D01*
X147604266Y-89539939D01*
X147595673Y-89535932D01*
X147586273Y-89534694D01*
X147586268Y-89534693D01*
X147550836Y-89530029D01*
X147550832Y-89530028D01*
X147546816Y-89529500D01*
X147198184Y-89529500D01*
X147194168Y-89530028D01*
X147194163Y-89530029D01*
X147158731Y-89534693D01*
X147158724Y-89534694D01*
X147149327Y-89535932D01*
X147140735Y-89539938D01*
X147140730Y-89539940D01*
X147051926Y-89581350D01*
X147051921Y-89581353D01*
X147042096Y-89585935D01*
X147034428Y-89593602D01*
X147034425Y-89593605D01*
X146966104Y-89661926D01*
X146966101Y-89661929D01*
X146958435Y-89669596D01*
X146958295Y-89669894D01*
X146919755Y-89703692D01*
X146862500Y-89717702D01*
X146805245Y-89703692D01*
X146766704Y-89669894D01*
X146766565Y-89669596D01*
X146682904Y-89585935D01*
X146673075Y-89581352D01*
X146673073Y-89581350D01*
X146584269Y-89539940D01*
X146584266Y-89539939D01*
X146575673Y-89535932D01*
X146566273Y-89534694D01*
X146566268Y-89534693D01*
X146530836Y-89530029D01*
X146530832Y-89530028D01*
X146526816Y-89529500D01*
X146178184Y-89529500D01*
X146174168Y-89530028D01*
X146174163Y-89530029D01*
X146138731Y-89534693D01*
X146138724Y-89534694D01*
X146129327Y-89535932D01*
X146120735Y-89539938D01*
X146120730Y-89539940D01*
X146031926Y-89581350D01*
X146031921Y-89581353D01*
X146022096Y-89585935D01*
X146014430Y-89593600D01*
X146014424Y-89593605D01*
X145976369Y-89631661D01*
X145927006Y-89661910D01*
X145869290Y-89666452D01*
X145815803Y-89644297D01*
X145778204Y-89600274D01*
X145754088Y-89552943D01*
X145754087Y-89552942D01*
X145749658Y-89544249D01*
X145655751Y-89450342D01*
X145537420Y-89390049D01*
X145527783Y-89388522D01*
X145527778Y-89388521D01*
X145444066Y-89375263D01*
X145444060Y-89375262D01*
X145439246Y-89374500D01*
X144935754Y-89374500D01*
X144930940Y-89375262D01*
X144930933Y-89375263D01*
X144847221Y-89388521D01*
X144847214Y-89388523D01*
X144837580Y-89390049D01*
X144828884Y-89394479D01*
X144828883Y-89394480D01*
X144727944Y-89445911D01*
X144727941Y-89445913D01*
X144719249Y-89450342D01*
X144712350Y-89457240D01*
X144712347Y-89457243D01*
X144632243Y-89537347D01*
X144632240Y-89537350D01*
X144625342Y-89544249D01*
X144620913Y-89552941D01*
X144620911Y-89552944D01*
X144569480Y-89653883D01*
X144565049Y-89662580D01*
X144563523Y-89672214D01*
X144563521Y-89672221D01*
X144550263Y-89755933D01*
X144550262Y-89755940D01*
X144549500Y-89760754D01*
X144549500Y-90339246D01*
X144550262Y-90344060D01*
X144550263Y-90344066D01*
X144563521Y-90427778D01*
X144563522Y-90427783D01*
X144565049Y-90437420D01*
X144586832Y-90480172D01*
X144620910Y-90547054D01*
X144625342Y-90555751D01*
X144719249Y-90649658D01*
X144837580Y-90709951D01*
X144935754Y-90725500D01*
X145434368Y-90725500D01*
X145439246Y-90725500D01*
X145537420Y-90709951D01*
X145655751Y-90649658D01*
X145749658Y-90555751D01*
X145778204Y-90499725D01*
X145815803Y-90455702D01*
X145869291Y-90433547D01*
X145927007Y-90438089D01*
X145976370Y-90468339D01*
X146022096Y-90514065D01*
X146129327Y-90564068D01*
X146178184Y-90570500D01*
X146198378Y-90570500D01*
X146254673Y-90584015D01*
X146298696Y-90621615D01*
X146320851Y-90675102D01*
X146316309Y-90732818D01*
X146286059Y-90782181D01*
X145280059Y-91788181D01*
X145239831Y-91815061D01*
X145192378Y-91824500D01*
X143313138Y-91824500D01*
X143246122Y-91804831D01*
X143200367Y-91752063D01*
X143190388Y-91682937D01*
X143219351Y-91619383D01*
X143219908Y-91618739D01*
X143229350Y-91608960D01*
X143256194Y-91584055D01*
X143262717Y-91572754D01*
X143276392Y-91553552D01*
X143282882Y-91546063D01*
X143298418Y-91512043D01*
X143303818Y-91501564D01*
X143324096Y-91466445D01*
X143326165Y-91457377D01*
X143326322Y-91456978D01*
X143330960Y-91443278D01*
X143333009Y-91436299D01*
X143336697Y-91428226D01*
X143342580Y-91387301D01*
X143344418Y-91377401D01*
X143354315Y-91334046D01*
X143353620Y-91324778D01*
X143354155Y-91317648D01*
X143353871Y-91317648D01*
X143353871Y-91308777D01*
X143355133Y-91300000D01*
X143348692Y-91255203D01*
X143347779Y-91246837D01*
X143344933Y-91208863D01*
X143344166Y-91198622D01*
X143340769Y-91189968D01*
X143340304Y-91187929D01*
X143339040Y-91184237D01*
X143337959Y-91180555D01*
X143336697Y-91171774D01*
X143316285Y-91127078D01*
X143313652Y-91120872D01*
X143297948Y-91080858D01*
X143297946Y-91080855D01*
X143294552Y-91072206D01*
X143288757Y-91064939D01*
X143287769Y-91063228D01*
X143285996Y-91060756D01*
X143282882Y-91053937D01*
X143277076Y-91047237D01*
X143277072Y-91047230D01*
X143248127Y-91013827D01*
X143244931Y-91009984D01*
X143209879Y-90966030D01*
X143202202Y-90960795D01*
X143202068Y-90960671D01*
X143198049Y-90956033D01*
X143190585Y-90951236D01*
X143150124Y-90925233D01*
X143147312Y-90923371D01*
X143105352Y-90894763D01*
X143105349Y-90894761D01*
X143097673Y-90889528D01*
X143091696Y-90887684D01*
X143089069Y-90885996D01*
X143082504Y-90884068D01*
X143082498Y-90884066D01*
X143043076Y-90872491D01*
X143030685Y-90868853D01*
X143029096Y-90868374D01*
X142976783Y-90852238D01*
X142976774Y-90852236D01*
X142967902Y-90849500D01*
X142958613Y-90849500D01*
X142751648Y-90849500D01*
X142699243Y-90837882D01*
X142618083Y-90800036D01*
X142618080Y-90800035D01*
X142609487Y-90796028D01*
X142600087Y-90794790D01*
X142600082Y-90794789D01*
X142563921Y-90790029D01*
X142563917Y-90790028D01*
X142559901Y-90789500D01*
X142555848Y-90789500D01*
X142486544Y-90789500D01*
X142439091Y-90780061D01*
X142398863Y-90753181D01*
X142386819Y-90741137D01*
X142359939Y-90700909D01*
X142350500Y-90653456D01*
X142350500Y-89136348D01*
X142350500Y-89130252D01*
X142338867Y-89071769D01*
X142294552Y-89005448D01*
X142242249Y-88970500D01*
X142238384Y-88967917D01*
X142238383Y-88967916D01*
X142228231Y-88961133D01*
X142216253Y-88958750D01*
X142216252Y-88958750D01*
X142175728Y-88950689D01*
X142175723Y-88950688D01*
X142169748Y-88949500D01*
X142163652Y-88949500D01*
X142074305Y-88949500D01*
X142017493Y-88935720D01*
X141973308Y-88897442D01*
X141951571Y-88843174D01*
X141951427Y-88842174D01*
X141955178Y-88789585D01*
X141980439Y-88743307D01*
X142022643Y-88711708D01*
X142074161Y-88700500D01*
X142849957Y-88700500D01*
X142906251Y-88714015D01*
X142950275Y-88751614D01*
X142972430Y-88805101D01*
X142977549Y-88837420D01*
X142981980Y-88846116D01*
X143027633Y-88935716D01*
X143037842Y-88955751D01*
X143131749Y-89049658D01*
X143250080Y-89109951D01*
X143348254Y-89125500D01*
X143846868Y-89125500D01*
X143851746Y-89125500D01*
X143949920Y-89109951D01*
X144068251Y-89049658D01*
X144162158Y-88955751D01*
X144222451Y-88837420D01*
X144238000Y-88739246D01*
X144238000Y-88160754D01*
X144222451Y-88062580D01*
X144162158Y-87944249D01*
X144068251Y-87850342D01*
X143949920Y-87790049D01*
X143940283Y-87788522D01*
X143940278Y-87788521D01*
X143856566Y-87775263D01*
X143856560Y-87775262D01*
X143851746Y-87774500D01*
X143348254Y-87774500D01*
X143343440Y-87775262D01*
X143343433Y-87775263D01*
X143259721Y-87788521D01*
X143259714Y-87788523D01*
X143250080Y-87790049D01*
X143241384Y-87794479D01*
X143241383Y-87794480D01*
X143140444Y-87845911D01*
X143140441Y-87845913D01*
X143131749Y-87850342D01*
X143124850Y-87857240D01*
X143124847Y-87857243D01*
X143044743Y-87937347D01*
X143044740Y-87937350D01*
X143037842Y-87944249D01*
X143033413Y-87952941D01*
X143033411Y-87952944D01*
X142982645Y-88052578D01*
X142977549Y-88062580D01*
X142976022Y-88072220D01*
X142976022Y-88072221D01*
X142972430Y-88094899D01*
X142950275Y-88148386D01*
X142906251Y-88185985D01*
X142849957Y-88199500D01*
X141954836Y-88199500D01*
X141930645Y-88197117D01*
X141929931Y-88196975D01*
X141917951Y-88194592D01*
X141905971Y-88196975D01*
X141832188Y-88211651D01*
X141832186Y-88211651D01*
X141820210Y-88214034D01*
X141819938Y-88214215D01*
X141761573Y-88221123D01*
X141700439Y-88192940D01*
X141663040Y-88136968D01*
X141660397Y-88069703D01*
X141693290Y-88010969D01*
X142030814Y-87673446D01*
X142567440Y-87136819D01*
X142607669Y-87109939D01*
X142655122Y-87100500D01*
X142862457Y-87100500D01*
X142918751Y-87114015D01*
X142962775Y-87151614D01*
X142984930Y-87205101D01*
X142990049Y-87237420D01*
X142994480Y-87246116D01*
X143045910Y-87347054D01*
X143050342Y-87355751D01*
X143144249Y-87449658D01*
X143262580Y-87509951D01*
X143360754Y-87525500D01*
X143859368Y-87525500D01*
X143864246Y-87525500D01*
X143962420Y-87509951D01*
X144080751Y-87449658D01*
X144174658Y-87355751D01*
X144234951Y-87237420D01*
X144250500Y-87139246D01*
X144250500Y-86560754D01*
X144234951Y-86462580D01*
X144174658Y-86344249D01*
X144080751Y-86250342D01*
X143962420Y-86190049D01*
X143952783Y-86188522D01*
X143952778Y-86188521D01*
X143869066Y-86175263D01*
X143869060Y-86175262D01*
X143864246Y-86174500D01*
X143360754Y-86174500D01*
X143355940Y-86175262D01*
X143355933Y-86175263D01*
X143272221Y-86188521D01*
X143272214Y-86188523D01*
X143262580Y-86190049D01*
X143253884Y-86194479D01*
X143253883Y-86194480D01*
X143152944Y-86245911D01*
X143152941Y-86245913D01*
X143144249Y-86250342D01*
X143137350Y-86257240D01*
X143137347Y-86257243D01*
X143057243Y-86337347D01*
X143057240Y-86337350D01*
X143050342Y-86344249D01*
X143045913Y-86352941D01*
X143045911Y-86352944D01*
X142994480Y-86453883D01*
X142990049Y-86462580D01*
X142988522Y-86472220D01*
X142988522Y-86472221D01*
X142984930Y-86494899D01*
X142962775Y-86548386D01*
X142918751Y-86585985D01*
X142862457Y-86599500D01*
X142536885Y-86599500D01*
X142512694Y-86597117D01*
X142511980Y-86596975D01*
X142500000Y-86594592D01*
X142488020Y-86596975D01*
X142414239Y-86611650D01*
X142414234Y-86611651D01*
X142402259Y-86614034D01*
X142392105Y-86620818D01*
X142392102Y-86620820D01*
X142384824Y-86625684D01*
X142329554Y-86662613D01*
X142329551Y-86662615D01*
X142319399Y-86669399D01*
X142312615Y-86679550D01*
X142312612Y-86679554D01*
X142312200Y-86680172D01*
X142296783Y-86698955D01*
X141132558Y-87863181D01*
X141092330Y-87890061D01*
X141044877Y-87899500D01*
X140935228Y-87899500D01*
X140926718Y-87901998D01*
X140926715Y-87901999D01*
X140819444Y-87933496D01*
X140819441Y-87933497D01*
X140810931Y-87935996D01*
X140803468Y-87940791D01*
X140803468Y-87940792D01*
X140709412Y-88001237D01*
X140709406Y-88001241D01*
X140701951Y-88006033D01*
X140696146Y-88012732D01*
X140696143Y-88012735D01*
X140622922Y-88097237D01*
X140622917Y-88097243D01*
X140617118Y-88103937D01*
X140613438Y-88111994D01*
X140613434Y-88112001D01*
X140566988Y-88213704D01*
X140563303Y-88221774D01*
X140562041Y-88230547D01*
X140562040Y-88230553D01*
X140550301Y-88312201D01*
X140531879Y-88361592D01*
X140494605Y-88398867D01*
X140445215Y-88417290D01*
X140444088Y-88417452D01*
X140435227Y-88417452D01*
X140426720Y-88419949D01*
X140426718Y-88419950D01*
X140319443Y-88451448D01*
X140319440Y-88451449D01*
X140310930Y-88453948D01*
X140303467Y-88458743D01*
X140303467Y-88458744D01*
X140209411Y-88519189D01*
X140209405Y-88519193D01*
X140201950Y-88523985D01*
X140196145Y-88530684D01*
X140196142Y-88530687D01*
X140122921Y-88615189D01*
X140122916Y-88615195D01*
X140117117Y-88621889D01*
X140113437Y-88629946D01*
X140113433Y-88629953D01*
X140066987Y-88731656D01*
X140063302Y-88739726D01*
X140062040Y-88748499D01*
X140062039Y-88748505D01*
X140048432Y-88843147D01*
X140026701Y-88897427D01*
X139982514Y-88935716D01*
X139925694Y-88949500D01*
X139830252Y-88949500D01*
X139824277Y-88950688D01*
X139824271Y-88950689D01*
X139783747Y-88958750D01*
X139783745Y-88958750D01*
X139771769Y-88961133D01*
X139761618Y-88967915D01*
X139761615Y-88967917D01*
X139715601Y-88998663D01*
X139715598Y-88998665D01*
X139705448Y-89005448D01*
X139698665Y-89015598D01*
X139698663Y-89015601D01*
X139667917Y-89061615D01*
X139667915Y-89061618D01*
X139661133Y-89071769D01*
X139658750Y-89083745D01*
X139658750Y-89083747D01*
X139650689Y-89124271D01*
X139650688Y-89124277D01*
X139649500Y-89130252D01*
X139649500Y-89136348D01*
X139649500Y-90275500D01*
X139632887Y-90337500D01*
X139587500Y-90382887D01*
X139525500Y-90399500D01*
X139395342Y-90399500D01*
X139371151Y-90397117D01*
X139370437Y-90396975D01*
X139358457Y-90394592D01*
X139346477Y-90396975D01*
X139272696Y-90411650D01*
X139272691Y-90411651D01*
X139260716Y-90414034D01*
X139250562Y-90420818D01*
X139250561Y-90420819D01*
X139236217Y-90430404D01*
X139188011Y-90462613D01*
X139188008Y-90462615D01*
X139177856Y-90469399D01*
X139171072Y-90479550D01*
X139171069Y-90479554D01*
X139170657Y-90480172D01*
X139155240Y-90498955D01*
X139012179Y-90642016D01*
X138962818Y-90672265D01*
X138905102Y-90676807D01*
X138851615Y-90654652D01*
X138814015Y-90610629D01*
X138800500Y-90554334D01*
X138800500Y-86169748D01*
X139649500Y-86169748D01*
X139650688Y-86175723D01*
X139650689Y-86175728D01*
X139658750Y-86216252D01*
X139661133Y-86228231D01*
X139667916Y-86238383D01*
X139667917Y-86238384D01*
X139684666Y-86263451D01*
X139705448Y-86294552D01*
X139771769Y-86338867D01*
X139830252Y-86350500D01*
X140163652Y-86350500D01*
X140169748Y-86350500D01*
X140225813Y-86339348D01*
X140274187Y-86339348D01*
X140330252Y-86350500D01*
X140663652Y-86350500D01*
X140669748Y-86350500D01*
X140728231Y-86338867D01*
X140794552Y-86294552D01*
X140838867Y-86228231D01*
X140850500Y-86169748D01*
X140850500Y-84730252D01*
X140838867Y-84671769D01*
X140794552Y-84605448D01*
X140778137Y-84594480D01*
X140738384Y-84567917D01*
X140738383Y-84567916D01*
X140728231Y-84561133D01*
X140716253Y-84558750D01*
X140716252Y-84558750D01*
X140675728Y-84550689D01*
X140675723Y-84550688D01*
X140669748Y-84549500D01*
X140330252Y-84549500D01*
X140324280Y-84550687D01*
X140324279Y-84550688D01*
X140324274Y-84550689D01*
X140274187Y-84560651D01*
X140225808Y-84560651D01*
X140175728Y-84550689D01*
X140175723Y-84550688D01*
X140169748Y-84549500D01*
X139830252Y-84549500D01*
X139824277Y-84550688D01*
X139824271Y-84550689D01*
X139783747Y-84558750D01*
X139783745Y-84558750D01*
X139771769Y-84561133D01*
X139761618Y-84567915D01*
X139761615Y-84567917D01*
X139715601Y-84598663D01*
X139715598Y-84598665D01*
X139705448Y-84605448D01*
X139698665Y-84615598D01*
X139698663Y-84615601D01*
X139667917Y-84661615D01*
X139667915Y-84661618D01*
X139661133Y-84671769D01*
X139658750Y-84683745D01*
X139658750Y-84683747D01*
X139650689Y-84724271D01*
X139650688Y-84724277D01*
X139649500Y-84730252D01*
X139649500Y-86169748D01*
X138800500Y-86169748D01*
X138800500Y-82687134D01*
X138800500Y-82675100D01*
X138800542Y-82675000D01*
X138800469Y-82674827D01*
X138800383Y-82674617D01*
X138800282Y-82674575D01*
X138441379Y-82315672D01*
X138086819Y-81961111D01*
X138059939Y-81920883D01*
X138050500Y-81873430D01*
X138050500Y-79240000D01*
X140079196Y-79240000D01*
X140080723Y-79249641D01*
X140098753Y-79363484D01*
X140098754Y-79363489D01*
X140100281Y-79373126D01*
X140161472Y-79493220D01*
X140256780Y-79588528D01*
X140376874Y-79649719D01*
X140401962Y-79653692D01*
X140458369Y-79678036D01*
X140496169Y-79726472D01*
X140506078Y-79787107D01*
X140485664Y-79845056D01*
X140467917Y-79871615D01*
X140467916Y-79871617D01*
X140461133Y-79881769D01*
X140458750Y-79893745D01*
X140458750Y-79893747D01*
X140450689Y-79934271D01*
X140450688Y-79934277D01*
X140449500Y-79940252D01*
X140449500Y-81429748D01*
X140450688Y-81435723D01*
X140450689Y-81435728D01*
X140458749Y-81476250D01*
X140458750Y-81476253D01*
X140461133Y-81488231D01*
X140467917Y-81498384D01*
X140467919Y-81498388D01*
X140478602Y-81514376D01*
X140494161Y-81547271D01*
X140499500Y-81583267D01*
X140499500Y-81704719D01*
X140490061Y-81752172D01*
X140463180Y-81792401D01*
X140384258Y-81871321D01*
X140373895Y-81880583D01*
X140353294Y-81897012D01*
X140353290Y-81897015D01*
X140346030Y-81902806D01*
X140340797Y-81910480D01*
X140340796Y-81910482D01*
X140313824Y-81950041D01*
X140311144Y-81953817D01*
X140282724Y-81992326D01*
X140282721Y-81992331D01*
X140277207Y-81999803D01*
X140274727Y-82006888D01*
X140272662Y-82010414D01*
X140269528Y-82015012D01*
X140269036Y-82016604D01*
X140265983Y-82021818D01*
X140264445Y-82024013D01*
X140256776Y-82031684D01*
X140252193Y-82041510D01*
X140252190Y-82041516D01*
X140210036Y-82131916D01*
X140210034Y-82131920D01*
X140206028Y-82140513D01*
X140204790Y-82149910D01*
X140204789Y-82149917D01*
X140200054Y-82185888D01*
X140199500Y-82190099D01*
X140199500Y-82194151D01*
X140199500Y-82194152D01*
X140199500Y-82605840D01*
X140199500Y-82605855D01*
X140199501Y-82609900D01*
X140206028Y-82659487D01*
X140213358Y-82675207D01*
X140217882Y-82684908D01*
X140229500Y-82737313D01*
X140229500Y-83062687D01*
X140217882Y-83115092D01*
X140210036Y-83131916D01*
X140210034Y-83131920D01*
X140206028Y-83140513D01*
X140204790Y-83149910D01*
X140204789Y-83149917D01*
X140200175Y-83184968D01*
X140199500Y-83190099D01*
X140199500Y-83194151D01*
X140199500Y-83194152D01*
X140199500Y-83605840D01*
X140199500Y-83605855D01*
X140199501Y-83609900D01*
X140206028Y-83659487D01*
X140256776Y-83768316D01*
X140341684Y-83853224D01*
X140450513Y-83903972D01*
X140500099Y-83910500D01*
X140859900Y-83910499D01*
X140909487Y-83903972D01*
X141018316Y-83853224D01*
X141103224Y-83768316D01*
X141153972Y-83659487D01*
X141160500Y-83609901D01*
X141160499Y-83190100D01*
X141153972Y-83140513D01*
X141142117Y-83115091D01*
X141130500Y-83062687D01*
X141130500Y-82933845D01*
X141145786Y-82874202D01*
X141187875Y-82829265D01*
X141246390Y-82810111D01*
X141306904Y-82821463D01*
X141368227Y-82850058D01*
X141368228Y-82850058D01*
X141376827Y-82854068D01*
X141425684Y-82860500D01*
X141870263Y-82860500D01*
X141874316Y-82860500D01*
X141923173Y-82854068D01*
X142030404Y-82804065D01*
X142114065Y-82720404D01*
X142164068Y-82613173D01*
X142170500Y-82564316D01*
X142170500Y-82215684D01*
X142164068Y-82166827D01*
X142114065Y-82059596D01*
X142030404Y-81975935D01*
X141972094Y-81948744D01*
X141919919Y-81902988D01*
X141900500Y-81836363D01*
X141900500Y-81734500D01*
X141917113Y-81672500D01*
X141962500Y-81627113D01*
X142024500Y-81610500D01*
X142313652Y-81610500D01*
X142319748Y-81610500D01*
X142375813Y-81599348D01*
X142424187Y-81599348D01*
X142480252Y-81610500D01*
X142486348Y-81610500D01*
X142721614Y-81610500D01*
X142777909Y-81624015D01*
X142821932Y-81661615D01*
X142844087Y-81715102D01*
X142839545Y-81772818D01*
X142809295Y-81822180D01*
X142720993Y-81910482D01*
X142636824Y-81994651D01*
X142618036Y-82010071D01*
X142617421Y-82010481D01*
X142617418Y-82010483D01*
X142607267Y-82017267D01*
X142600483Y-82027419D01*
X142600482Y-82027421D01*
X142589535Y-82043806D01*
X142558686Y-82089973D01*
X142558684Y-82089976D01*
X142551902Y-82100127D01*
X142549519Y-82112103D01*
X142549519Y-82112105D01*
X142538634Y-82166827D01*
X142532460Y-82197868D01*
X142534843Y-82209848D01*
X142534985Y-82210562D01*
X142537368Y-82234753D01*
X142537368Y-83432746D01*
X142527929Y-83480199D01*
X142501049Y-83520427D01*
X141808295Y-84213181D01*
X141768067Y-84240061D01*
X141720614Y-84249500D01*
X141636885Y-84249500D01*
X141612694Y-84247117D01*
X141611980Y-84246975D01*
X141600000Y-84244592D01*
X141588020Y-84246975D01*
X141514237Y-84261651D01*
X141514235Y-84261651D01*
X141502259Y-84264034D01*
X141492106Y-84270817D01*
X141492105Y-84270818D01*
X141472463Y-84283942D01*
X141429549Y-84312616D01*
X141429546Y-84312618D01*
X141419399Y-84319399D01*
X141412617Y-84329547D01*
X141412614Y-84329551D01*
X141412200Y-84330172D01*
X141396783Y-84348955D01*
X141348955Y-84396783D01*
X141330172Y-84412200D01*
X141329551Y-84412614D01*
X141329547Y-84412617D01*
X141319399Y-84419399D01*
X141312618Y-84429546D01*
X141312616Y-84429549D01*
X141283942Y-84472463D01*
X141270819Y-84492103D01*
X141270817Y-84492105D01*
X141264034Y-84502259D01*
X141261651Y-84514235D01*
X141261651Y-84514237D01*
X141259362Y-84525746D01*
X141240857Y-84570428D01*
X141222751Y-84588542D01*
X141224237Y-84590028D01*
X141215600Y-84598663D01*
X141205448Y-84605448D01*
X141198665Y-84615598D01*
X141198663Y-84615601D01*
X141167917Y-84661615D01*
X141167915Y-84661618D01*
X141161133Y-84671769D01*
X141158750Y-84683745D01*
X141158750Y-84683747D01*
X141150689Y-84724271D01*
X141150688Y-84724277D01*
X141149500Y-84730252D01*
X141149500Y-86169748D01*
X141150688Y-86175723D01*
X141150689Y-86175728D01*
X141158750Y-86216252D01*
X141161133Y-86228231D01*
X141167916Y-86238383D01*
X141167917Y-86238384D01*
X141184666Y-86263451D01*
X141205448Y-86294552D01*
X141271769Y-86338867D01*
X141330252Y-86350500D01*
X141663652Y-86350500D01*
X141669748Y-86350500D01*
X141725813Y-86339348D01*
X141774187Y-86339348D01*
X141830252Y-86350500D01*
X142163652Y-86350500D01*
X142169748Y-86350500D01*
X142228231Y-86338867D01*
X142294552Y-86294552D01*
X142338867Y-86228231D01*
X142350500Y-86169748D01*
X142350500Y-84855122D01*
X142359939Y-84807669D01*
X142386819Y-84767441D01*
X142595510Y-84558750D01*
X143251048Y-83903210D01*
X143269832Y-83887795D01*
X143280601Y-83880601D01*
X143335966Y-83797740D01*
X143350500Y-83724674D01*
X143355408Y-83700000D01*
X143352883Y-83687306D01*
X143350500Y-83663115D01*
X143350500Y-82919855D01*
X143365786Y-82860212D01*
X143407875Y-82815274D01*
X143466390Y-82796120D01*
X143526904Y-82807472D01*
X143626827Y-82854068D01*
X143675684Y-82860500D01*
X144120263Y-82860500D01*
X144124316Y-82860500D01*
X144173173Y-82854068D01*
X144273095Y-82807472D01*
X144333609Y-82796120D01*
X144392124Y-82815274D01*
X144434214Y-82860212D01*
X144449500Y-82919854D01*
X144449500Y-83045118D01*
X144449500Y-83045133D01*
X144449501Y-83049178D01*
X144455501Y-83094760D01*
X144502150Y-83194799D01*
X144580201Y-83272850D01*
X144680240Y-83319499D01*
X144725821Y-83325500D01*
X144772824Y-83325499D01*
X144814518Y-83334198D01*
X144814587Y-83333943D01*
X144819145Y-83335164D01*
X144822416Y-83335846D01*
X144832084Y-83340065D01*
X144967035Y-83355270D01*
X145100472Y-83330023D01*
X145100570Y-83330545D01*
X145130274Y-83325499D01*
X145170119Y-83325499D01*
X145174178Y-83325499D01*
X145219760Y-83319499D01*
X145319799Y-83272850D01*
X145397850Y-83194799D01*
X145444499Y-83094760D01*
X145446912Y-83076424D01*
X145458638Y-83037770D01*
X145482167Y-83004934D01*
X146145744Y-82341357D01*
X146156093Y-82332109D01*
X146183970Y-82309879D01*
X146216191Y-82262618D01*
X146218830Y-82258898D01*
X146252793Y-82212882D01*
X146255629Y-82204775D01*
X146260472Y-82197673D01*
X146277339Y-82142986D01*
X146278761Y-82138669D01*
X146297646Y-82084700D01*
X146297967Y-82076112D01*
X146300500Y-82067902D01*
X146300500Y-82010739D01*
X146300587Y-82006102D01*
X146302376Y-81958280D01*
X146302724Y-81948990D01*
X146300928Y-81942287D01*
X146300500Y-81934658D01*
X146300500Y-81583267D01*
X146305839Y-81547271D01*
X146321398Y-81514376D01*
X146332080Y-81498388D01*
X146332079Y-81498388D01*
X146338867Y-81488231D01*
X146350500Y-81429748D01*
X146350500Y-79940252D01*
X146338867Y-79881769D01*
X146314334Y-79845054D01*
X146293921Y-79787109D01*
X146303830Y-79726473D01*
X146341630Y-79678036D01*
X146398037Y-79653692D01*
X146423126Y-79649719D01*
X146543220Y-79588528D01*
X146638528Y-79493220D01*
X146699719Y-79373126D01*
X146720804Y-79240000D01*
X146699719Y-79106874D01*
X146638528Y-78986780D01*
X146543220Y-78891472D01*
X146423126Y-78830281D01*
X146413489Y-78828754D01*
X146413484Y-78828753D01*
X146328308Y-78815263D01*
X146328302Y-78815262D01*
X146323488Y-78814500D01*
X146256512Y-78814500D01*
X146251698Y-78815262D01*
X146251691Y-78815263D01*
X146166515Y-78828753D01*
X146166508Y-78828755D01*
X146156874Y-78830281D01*
X146148178Y-78834711D01*
X146148177Y-78834712D01*
X146045475Y-78887041D01*
X146045471Y-78887043D01*
X146036780Y-78891472D01*
X146029881Y-78898370D01*
X146029878Y-78898373D01*
X145948373Y-78979878D01*
X145948370Y-78979881D01*
X145941472Y-78986780D01*
X145937043Y-78995471D01*
X145937041Y-78995475D01*
X145884712Y-79098177D01*
X145880281Y-79106874D01*
X145878754Y-79116514D01*
X145878754Y-79116515D01*
X145866705Y-79192587D01*
X145838522Y-79253720D01*
X145782550Y-79291119D01*
X145715285Y-79293762D01*
X145656551Y-79260869D01*
X144782638Y-78386956D01*
X144768193Y-78369167D01*
X144767056Y-78367932D01*
X144761437Y-78359331D01*
X144737865Y-78340984D01*
X144733901Y-78337766D01*
X144730941Y-78335259D01*
X144727307Y-78331625D01*
X144715871Y-78323460D01*
X144711653Y-78320448D01*
X144707544Y-78317385D01*
X144677233Y-78293793D01*
X144669126Y-78287483D01*
X144662107Y-78285073D01*
X144656066Y-78280760D01*
X144646223Y-78277829D01*
X144646218Y-78277827D01*
X144609409Y-78266868D01*
X144604532Y-78265306D01*
X144568206Y-78252835D01*
X144568199Y-78252833D01*
X144558488Y-78249500D01*
X144551065Y-78249500D01*
X144543954Y-78247383D01*
X144533689Y-78247807D01*
X144533685Y-78247807D01*
X144495332Y-78249394D01*
X144490208Y-78249500D01*
X142209207Y-78249500D01*
X142186405Y-78247135D01*
X142184738Y-78247066D01*
X142174685Y-78244958D01*
X142164494Y-78246228D01*
X142164489Y-78246228D01*
X142145063Y-78248650D01*
X142139968Y-78249178D01*
X142136082Y-78249500D01*
X142130960Y-78249500D01*
X142125904Y-78250343D01*
X142125898Y-78250344D01*
X142111983Y-78252665D01*
X142106925Y-78253402D01*
X142068801Y-78258155D01*
X142068794Y-78258157D01*
X142058607Y-78259427D01*
X142051939Y-78262686D01*
X142044619Y-78263908D01*
X142035587Y-78268795D01*
X142035583Y-78268797D01*
X142001813Y-78287072D01*
X141997260Y-78289416D01*
X141962744Y-78306290D01*
X141962740Y-78306292D01*
X141953516Y-78310802D01*
X141948267Y-78316050D01*
X141941742Y-78319582D01*
X141934785Y-78327138D01*
X141934785Y-78327139D01*
X141908780Y-78355387D01*
X141905234Y-78359082D01*
X141119889Y-79144427D01*
X141065868Y-79176090D01*
X141003263Y-79177320D01*
X140948039Y-79147804D01*
X140921315Y-79106060D01*
X140919719Y-79106874D01*
X140858528Y-78986780D01*
X140763220Y-78891472D01*
X140643126Y-78830281D01*
X140633489Y-78828754D01*
X140633484Y-78828753D01*
X140548308Y-78815263D01*
X140548302Y-78815262D01*
X140543488Y-78814500D01*
X140476512Y-78814500D01*
X140471698Y-78815262D01*
X140471691Y-78815263D01*
X140386515Y-78828753D01*
X140386508Y-78828755D01*
X140376874Y-78830281D01*
X140368178Y-78834711D01*
X140368177Y-78834712D01*
X140265475Y-78887041D01*
X140265471Y-78887043D01*
X140256780Y-78891472D01*
X140249881Y-78898370D01*
X140249878Y-78898373D01*
X140168373Y-78979878D01*
X140168370Y-78979881D01*
X140161472Y-78986780D01*
X140157043Y-78995471D01*
X140157041Y-78995475D01*
X140104712Y-79098177D01*
X140100281Y-79106874D01*
X140098754Y-79116508D01*
X140098753Y-79116515D01*
X140089123Y-79177320D01*
X140079196Y-79240000D01*
X138050500Y-79240000D01*
X138050500Y-73206959D01*
X138051278Y-73193091D01*
X138053355Y-73174656D01*
X138053603Y-73172626D01*
X138063838Y-73094883D01*
X138066992Y-73079018D01*
X138067520Y-73077048D01*
X138070243Y-73068219D01*
X138081210Y-73036875D01*
X138083672Y-73030427D01*
X138096528Y-72999388D01*
X138105464Y-72977816D01*
X138115021Y-72959313D01*
X138135381Y-72926912D01*
X138141959Y-72917453D01*
X138174529Y-72875007D01*
X138185198Y-72862843D01*
X138212843Y-72835198D01*
X138225006Y-72824530D01*
X138267461Y-72791954D01*
X138276912Y-72785381D01*
X138309313Y-72765021D01*
X138327816Y-72755464D01*
X138380415Y-72733677D01*
X138386875Y-72731210D01*
X138418219Y-72720243D01*
X138427069Y-72717514D01*
X138428379Y-72717163D01*
X138429008Y-72716995D01*
X138444892Y-72713837D01*
X138470043Y-72710525D01*
X138522600Y-72703606D01*
X138524655Y-72703355D01*
X138543091Y-72701278D01*
X138556959Y-72700500D01*
X148243040Y-72700500D01*
X148256920Y-72701279D01*
G37*
%TD.AperFunction*%
M02*
