%TF.GenerationSoftware,KiCad,Pcbnew,(7.0.0)*%
%TF.CreationDate,2023-06-07T22:18:09+08:00*%
%TF.ProjectId,USB2UART,55534232-5541-4525-942e-6b696361645f,rev?*%
%TF.SameCoordinates,Original*%
%TF.FileFunction,Legend,Bot*%
%TF.FilePolarity,Positive*%
%FSLAX46Y46*%
G04 Gerber Fmt 4.6, Leading zero omitted, Abs format (unit mm)*
G04 Created by KiCad (PCBNEW (7.0.0)) date 2023-06-07 22:18:09*
%MOMM*%
%LPD*%
G01*
G04 APERTURE LIST*
%ADD10C,0.100000*%
%ADD11C,0.125000*%
%ADD12C,0.200000*%
%ADD13C,0.650000*%
%ADD14O,1.000000X2.100000*%
%ADD15O,1.000000X1.600000*%
G04 APERTURE END LIST*
D10*
G36*
X148005797Y-87336429D02*
G01*
X146657286Y-87336429D01*
X146657286Y-87115000D01*
X146878715Y-87115000D01*
X147012927Y-87115000D01*
X147108182Y-86938412D01*
X147110443Y-86933497D01*
X147112409Y-86928093D01*
X147114068Y-86922750D01*
X147115407Y-86917926D01*
X147116758Y-86912614D01*
X147118121Y-86906813D01*
X147118806Y-86903729D01*
X147120150Y-86903729D01*
X147121439Y-86908783D01*
X147122874Y-86913578D01*
X147124637Y-86918903D01*
X147126284Y-86923546D01*
X147128141Y-86928528D01*
X147130207Y-86933850D01*
X147132484Y-86939511D01*
X147227983Y-87115000D01*
X147363293Y-87115000D01*
X147193422Y-86849141D01*
X147347662Y-86583527D01*
X147370132Y-86583527D01*
X147370132Y-86676217D01*
X147518632Y-86676217D01*
X147518632Y-87115000D01*
X147635868Y-87115000D01*
X147635868Y-86676217D01*
X147784368Y-86676217D01*
X147784368Y-86583527D01*
X147370132Y-86583527D01*
X147347662Y-86583527D01*
X147210519Y-86583527D01*
X147131751Y-86746437D01*
X147129412Y-86751478D01*
X147127156Y-86756649D01*
X147124985Y-86761950D01*
X147122897Y-86767381D01*
X147120894Y-86772941D01*
X147118974Y-86778631D01*
X147117138Y-86784451D01*
X147115387Y-86790401D01*
X147114043Y-86790401D01*
X147112225Y-86784930D01*
X147110311Y-86779387D01*
X147108302Y-86773771D01*
X147106197Y-86768083D01*
X147103997Y-86762322D01*
X147101702Y-86756489D01*
X147099311Y-86750583D01*
X147096824Y-86744605D01*
X147010851Y-86583527D01*
X146886531Y-86583527D01*
X147042969Y-86847065D01*
X146878715Y-87115000D01*
X146657286Y-87115000D01*
X146657286Y-86362098D01*
X148005797Y-86362098D01*
X148005797Y-87336429D01*
G37*
G36*
X147624511Y-88425816D02*
G01*
X147568457Y-88425816D01*
X147563497Y-88425724D01*
X147556289Y-88425241D01*
X147549361Y-88424343D01*
X147542711Y-88423031D01*
X147536340Y-88421305D01*
X147530249Y-88419164D01*
X147524436Y-88416609D01*
X147518903Y-88413640D01*
X147513649Y-88410256D01*
X147508673Y-88406459D01*
X147503977Y-88402247D01*
X147499612Y-88397702D01*
X147495677Y-88392954D01*
X147492171Y-88388002D01*
X147489094Y-88382846D01*
X147486446Y-88377487D01*
X147484228Y-88371923D01*
X147482439Y-88366155D01*
X147481079Y-88360183D01*
X147480149Y-88354008D01*
X147479648Y-88347628D01*
X147479553Y-88343262D01*
X147479892Y-88334359D01*
X147480910Y-88326031D01*
X147482605Y-88318278D01*
X147484980Y-88311098D01*
X147488032Y-88304493D01*
X147491763Y-88298462D01*
X147496172Y-88293006D01*
X147501260Y-88288124D01*
X147507026Y-88283816D01*
X147513470Y-88280083D01*
X147520593Y-88276924D01*
X147528394Y-88274340D01*
X147536873Y-88272329D01*
X147546031Y-88270893D01*
X147555867Y-88270032D01*
X147561039Y-88269817D01*
X147566381Y-88269745D01*
X147624511Y-88269745D01*
X147624511Y-88425816D01*
G37*
G36*
X147958902Y-88936429D02*
G01*
X146605507Y-88936429D01*
X146605507Y-88715000D01*
X146826936Y-88715000D01*
X146961147Y-88715000D01*
X147056402Y-88538412D01*
X147058664Y-88533497D01*
X147060630Y-88528093D01*
X147062288Y-88522750D01*
X147063628Y-88517926D01*
X147064979Y-88512614D01*
X147066341Y-88506813D01*
X147067027Y-88503729D01*
X147068370Y-88503729D01*
X147069659Y-88508783D01*
X147071095Y-88513578D01*
X147072858Y-88518903D01*
X147074505Y-88523546D01*
X147076361Y-88528528D01*
X147078428Y-88533850D01*
X147080704Y-88539511D01*
X147176203Y-88715000D01*
X147299790Y-88715000D01*
X147311514Y-88715000D01*
X147429972Y-88715000D01*
X147513136Y-88578956D01*
X147516412Y-88573792D01*
X147519613Y-88568864D01*
X147522739Y-88564171D01*
X147525791Y-88559714D01*
X147528769Y-88555493D01*
X147531672Y-88551508D01*
X147535887Y-88545971D01*
X147539935Y-88540965D01*
X147543816Y-88536488D01*
X147547529Y-88532542D01*
X147551074Y-88529127D01*
X147555541Y-88525397D01*
X147556612Y-88524612D01*
X147560888Y-88521750D01*
X147565229Y-88519269D01*
X147570746Y-88516705D01*
X147576365Y-88514738D01*
X147582085Y-88513366D01*
X147587907Y-88512591D01*
X147592637Y-88512400D01*
X147628053Y-88512400D01*
X147628053Y-88715000D01*
X147737473Y-88715000D01*
X147737473Y-88183527D01*
X147551605Y-88183527D01*
X147539959Y-88183669D01*
X147528683Y-88184096D01*
X147517777Y-88184808D01*
X147507240Y-88185803D01*
X147497073Y-88187084D01*
X147487276Y-88188649D01*
X147477849Y-88190499D01*
X147468791Y-88192633D01*
X147460103Y-88195051D01*
X147451785Y-88197755D01*
X147443836Y-88200742D01*
X147436257Y-88204015D01*
X147429048Y-88207572D01*
X147422208Y-88211413D01*
X147415738Y-88215539D01*
X147409638Y-88219950D01*
X147403908Y-88224645D01*
X147398547Y-88229625D01*
X147393556Y-88234889D01*
X147388935Y-88240438D01*
X147384683Y-88246271D01*
X147380801Y-88252389D01*
X147377289Y-88258791D01*
X147374147Y-88265478D01*
X147371374Y-88272450D01*
X147368971Y-88279706D01*
X147366938Y-88287246D01*
X147365274Y-88295072D01*
X147363980Y-88303181D01*
X147363056Y-88311576D01*
X147362501Y-88320255D01*
X147362316Y-88329218D01*
X147362440Y-88336011D01*
X147362811Y-88342682D01*
X147362866Y-88343262D01*
X147363428Y-88349231D01*
X147364293Y-88355657D01*
X147365405Y-88361962D01*
X147366764Y-88368144D01*
X147368370Y-88374204D01*
X147370224Y-88380143D01*
X147372324Y-88385959D01*
X147374672Y-88391653D01*
X147377266Y-88397224D01*
X147380108Y-88402674D01*
X147383197Y-88408002D01*
X147386533Y-88413207D01*
X147390116Y-88418290D01*
X147393946Y-88423251D01*
X147397992Y-88428046D01*
X147402225Y-88432660D01*
X147406644Y-88437095D01*
X147411249Y-88441348D01*
X147416040Y-88445422D01*
X147421017Y-88449315D01*
X147426180Y-88453028D01*
X147431529Y-88456560D01*
X147437064Y-88459912D01*
X147442785Y-88463084D01*
X147448692Y-88466075D01*
X147454785Y-88468887D01*
X147461064Y-88471518D01*
X147467530Y-88473968D01*
X147474181Y-88476238D01*
X147481018Y-88478328D01*
X147481018Y-88479672D01*
X147476408Y-88481415D01*
X147471735Y-88483591D01*
X147467001Y-88486200D01*
X147462204Y-88489243D01*
X147457345Y-88492718D01*
X147452425Y-88496627D01*
X147447442Y-88500969D01*
X147442397Y-88505744D01*
X147437291Y-88510953D01*
X147432122Y-88516594D01*
X147426891Y-88522669D01*
X147421599Y-88529176D01*
X147416244Y-88536117D01*
X147410827Y-88543491D01*
X147405348Y-88551299D01*
X147402586Y-88555365D01*
X147399808Y-88559539D01*
X147305672Y-88705857D01*
X147141643Y-88449141D01*
X147295882Y-88183527D01*
X147158740Y-88183527D01*
X147079972Y-88346437D01*
X147077632Y-88351478D01*
X147075377Y-88356649D01*
X147073205Y-88361950D01*
X147071118Y-88367381D01*
X147069114Y-88372941D01*
X147067195Y-88378631D01*
X147065359Y-88384451D01*
X147063607Y-88390401D01*
X147062264Y-88390401D01*
X147060446Y-88384930D01*
X147058532Y-88379387D01*
X147056522Y-88373771D01*
X147054418Y-88368083D01*
X147052218Y-88362322D01*
X147049922Y-88356489D01*
X147047531Y-88350583D01*
X147045045Y-88344605D01*
X146959071Y-88183527D01*
X146834752Y-88183527D01*
X146991189Y-88447065D01*
X146826936Y-88715000D01*
X146605507Y-88715000D01*
X146605507Y-87962098D01*
X147958902Y-87962098D01*
X147958902Y-88936429D01*
G37*
G36*
X146435053Y-89874089D02*
G01*
X146443069Y-89874664D01*
X146450864Y-89875623D01*
X146458436Y-89876965D01*
X146465785Y-89878691D01*
X146472913Y-89880801D01*
X146479818Y-89883294D01*
X146486501Y-89886170D01*
X146492961Y-89889430D01*
X146499199Y-89893074D01*
X146505215Y-89897101D01*
X146511009Y-89901512D01*
X146516580Y-89906306D01*
X146521929Y-89911484D01*
X146527056Y-89917045D01*
X146531960Y-89922990D01*
X146536604Y-89929225D01*
X146540948Y-89935687D01*
X146544992Y-89942376D01*
X146548737Y-89949292D01*
X146552182Y-89956435D01*
X146555328Y-89963805D01*
X146558174Y-89971402D01*
X146560720Y-89979227D01*
X146562967Y-89987278D01*
X146564914Y-89995557D01*
X146566562Y-90004062D01*
X146567910Y-90012795D01*
X146568958Y-90021754D01*
X146569707Y-90030941D01*
X146570157Y-90040355D01*
X146570307Y-90049996D01*
X146570160Y-90059503D01*
X146569721Y-90068791D01*
X146568988Y-90077860D01*
X146567963Y-90086709D01*
X146566645Y-90095338D01*
X146565034Y-90103749D01*
X146563130Y-90111939D01*
X146560934Y-90119911D01*
X146558444Y-90127662D01*
X146555662Y-90135195D01*
X146552586Y-90142508D01*
X146549218Y-90149601D01*
X146545556Y-90156475D01*
X146541602Y-90163130D01*
X146537355Y-90169565D01*
X146532815Y-90175781D01*
X146528020Y-90181696D01*
X146523007Y-90187230D01*
X146517777Y-90192382D01*
X146512329Y-90197152D01*
X146506664Y-90201541D01*
X146500781Y-90205548D01*
X146494681Y-90209174D01*
X146488363Y-90212418D01*
X146481828Y-90215280D01*
X146475075Y-90217760D01*
X146468104Y-90219859D01*
X146460916Y-90221577D01*
X146453511Y-90222912D01*
X146445888Y-90223866D01*
X146438047Y-90224439D01*
X146429989Y-90224630D01*
X146421755Y-90224447D01*
X146413753Y-90223899D01*
X146405982Y-90222985D01*
X146398444Y-90221706D01*
X146391137Y-90220062D01*
X146384062Y-90218052D01*
X146377219Y-90215677D01*
X146370607Y-90212937D01*
X146364228Y-90209831D01*
X146358081Y-90206359D01*
X146352165Y-90202522D01*
X146346481Y-90198320D01*
X146341029Y-90193752D01*
X146335809Y-90188819D01*
X146330820Y-90183521D01*
X146326064Y-90177857D01*
X146321568Y-90171870D01*
X146317363Y-90165632D01*
X146313447Y-90159143D01*
X146309822Y-90152402D01*
X146306486Y-90145411D01*
X146303441Y-90138170D01*
X146300685Y-90130677D01*
X146298220Y-90122933D01*
X146296045Y-90114938D01*
X146294159Y-90106693D01*
X146292564Y-90098196D01*
X146291259Y-90089449D01*
X146290244Y-90080451D01*
X146289519Y-90071201D01*
X146289084Y-90061701D01*
X146288939Y-90051950D01*
X146288974Y-90046839D01*
X146289080Y-90041796D01*
X146289256Y-90036820D01*
X146289504Y-90031911D01*
X146290210Y-90022294D01*
X146291198Y-90012947D01*
X146292469Y-90003869D01*
X146294022Y-89995060D01*
X146295858Y-89986521D01*
X146297976Y-89978250D01*
X146300376Y-89970248D01*
X146303059Y-89962515D01*
X146306024Y-89955051D01*
X146309272Y-89947857D01*
X146312802Y-89940931D01*
X146316615Y-89934275D01*
X146320709Y-89927887D01*
X146325087Y-89921769D01*
X146329706Y-89915972D01*
X146334557Y-89910549D01*
X146339640Y-89905500D01*
X146344954Y-89900825D01*
X146350501Y-89896524D01*
X146356279Y-89892597D01*
X146362289Y-89889044D01*
X146368531Y-89885865D01*
X146375005Y-89883060D01*
X146381711Y-89880629D01*
X146388649Y-89878572D01*
X146395818Y-89876889D01*
X146403219Y-89875580D01*
X146410852Y-89874645D01*
X146418717Y-89874084D01*
X146426814Y-89873897D01*
X146435053Y-89874089D01*
G37*
G36*
X147955797Y-90544244D02*
G01*
X145172604Y-90544244D01*
X145172604Y-89783527D01*
X145394033Y-89783527D01*
X145536671Y-90315000D01*
X145663433Y-90315000D01*
X145754658Y-89968419D01*
X145755979Y-89963131D01*
X145757195Y-89957800D01*
X145758306Y-89952426D01*
X145759312Y-89947009D01*
X145760212Y-89941550D01*
X145761007Y-89936047D01*
X145761698Y-89930502D01*
X145762283Y-89924913D01*
X145762762Y-89919282D01*
X145763137Y-89913607D01*
X145763328Y-89909801D01*
X145764672Y-89909801D01*
X145765337Y-89916375D01*
X145766053Y-89922726D01*
X145766817Y-89928854D01*
X145767631Y-89934759D01*
X145768494Y-89940441D01*
X145769407Y-89945899D01*
X145770369Y-89951134D01*
X145771381Y-89956146D01*
X145772441Y-89960934D01*
X145773933Y-89966972D01*
X145774319Y-89968419D01*
X145866643Y-90315000D01*
X145997069Y-90315000D01*
X146068882Y-90045111D01*
X146171702Y-90045111D01*
X146171764Y-90051950D01*
X146171772Y-90052797D01*
X146171983Y-90060393D01*
X146172334Y-90067897D01*
X146172826Y-90075309D01*
X146173458Y-90082631D01*
X146174231Y-90089862D01*
X146175144Y-90097002D01*
X146176198Y-90104050D01*
X146177392Y-90111007D01*
X146178727Y-90117874D01*
X146180202Y-90124649D01*
X146181817Y-90131333D01*
X146183573Y-90137926D01*
X146185470Y-90144427D01*
X146187507Y-90150838D01*
X146189685Y-90157158D01*
X146192003Y-90163386D01*
X146194461Y-90169523D01*
X146197060Y-90175570D01*
X146199800Y-90181525D01*
X146202680Y-90187389D01*
X146205700Y-90193161D01*
X146208861Y-90198843D01*
X146212163Y-90204434D01*
X146215605Y-90209933D01*
X146219187Y-90215342D01*
X146222910Y-90220659D01*
X146226773Y-90225885D01*
X146230777Y-90231020D01*
X146234922Y-90236064D01*
X146239206Y-90241017D01*
X146243632Y-90245879D01*
X146248163Y-90250612D01*
X146252782Y-90255195D01*
X146257487Y-90259628D01*
X146262280Y-90263911D01*
X146267160Y-90268043D01*
X146272127Y-90272025D01*
X146277180Y-90275857D01*
X146282321Y-90279538D01*
X146287549Y-90283070D01*
X146292864Y-90286451D01*
X146298266Y-90289681D01*
X146303756Y-90292762D01*
X146309332Y-90295692D01*
X146314995Y-90298472D01*
X146320745Y-90301102D01*
X146326583Y-90303581D01*
X146332507Y-90305910D01*
X146338519Y-90308089D01*
X146344617Y-90310118D01*
X146350803Y-90311996D01*
X146357076Y-90313724D01*
X146363435Y-90315302D01*
X146369882Y-90316729D01*
X146376416Y-90318007D01*
X146383037Y-90319134D01*
X146389745Y-90320110D01*
X146396540Y-90320937D01*
X146403422Y-90321613D01*
X146410391Y-90322139D01*
X146417447Y-90322515D01*
X146424591Y-90322740D01*
X146431821Y-90322815D01*
X146438885Y-90322742D01*
X146445866Y-90322524D01*
X146452764Y-90322159D01*
X146459579Y-90321649D01*
X146466310Y-90320994D01*
X146472958Y-90320192D01*
X146479523Y-90319245D01*
X146486005Y-90318152D01*
X146492403Y-90316913D01*
X146498718Y-90315529D01*
X146504950Y-90313998D01*
X146511099Y-90312322D01*
X146517164Y-90310501D01*
X146523146Y-90308533D01*
X146529045Y-90306420D01*
X146534861Y-90304161D01*
X146540593Y-90301757D01*
X146546242Y-90299206D01*
X146551808Y-90296510D01*
X146557291Y-90293668D01*
X146562691Y-90290681D01*
X146568007Y-90287547D01*
X146573240Y-90284268D01*
X146578389Y-90280844D01*
X146583456Y-90277273D01*
X146588439Y-90273557D01*
X146593339Y-90269695D01*
X146598156Y-90265687D01*
X146602889Y-90261534D01*
X146607540Y-90257235D01*
X146612107Y-90252790D01*
X146616591Y-90248199D01*
X146620956Y-90243494D01*
X146625182Y-90238705D01*
X146629271Y-90233832D01*
X146633220Y-90228875D01*
X146637031Y-90223835D01*
X146640703Y-90218711D01*
X146644237Y-90213503D01*
X146647632Y-90208212D01*
X146650889Y-90202837D01*
X146654007Y-90197378D01*
X146656986Y-90191835D01*
X146659827Y-90186209D01*
X146662530Y-90180499D01*
X146665093Y-90174705D01*
X146667518Y-90168828D01*
X146669805Y-90162867D01*
X146671953Y-90156822D01*
X146673962Y-90150693D01*
X146675833Y-90144481D01*
X146677565Y-90138185D01*
X146679159Y-90131805D01*
X146680614Y-90125342D01*
X146681931Y-90118794D01*
X146683109Y-90112163D01*
X146684148Y-90105449D01*
X146685049Y-90098650D01*
X146685811Y-90091768D01*
X146686434Y-90084803D01*
X146686920Y-90077753D01*
X146687266Y-90070620D01*
X146687474Y-90063403D01*
X146687543Y-90056102D01*
X146687472Y-90048377D01*
X146687260Y-90040743D01*
X146686906Y-90033199D01*
X146686410Y-90025745D01*
X146685772Y-90018382D01*
X146684993Y-90011109D01*
X146684072Y-90003927D01*
X146683009Y-89996835D01*
X146681805Y-89989833D01*
X146680459Y-89982922D01*
X146678971Y-89976101D01*
X146677342Y-89969371D01*
X146675571Y-89962731D01*
X146673658Y-89956181D01*
X146671604Y-89949722D01*
X146669408Y-89943353D01*
X146667070Y-89937075D01*
X146664591Y-89930887D01*
X146661970Y-89924789D01*
X146659207Y-89918782D01*
X146656303Y-89912865D01*
X146653257Y-89907039D01*
X146650069Y-89901303D01*
X146646739Y-89895657D01*
X146643268Y-89890102D01*
X146639655Y-89884637D01*
X146635901Y-89879263D01*
X146632005Y-89873979D01*
X146627967Y-89868785D01*
X146623787Y-89863682D01*
X146619466Y-89858669D01*
X146615003Y-89853747D01*
X146610424Y-89848946D01*
X146605753Y-89844297D01*
X146600992Y-89839801D01*
X146596139Y-89835457D01*
X146591195Y-89831266D01*
X146586160Y-89827227D01*
X146581034Y-89823340D01*
X146575817Y-89819606D01*
X146570509Y-89816025D01*
X146565110Y-89812595D01*
X146559619Y-89809318D01*
X146554038Y-89806194D01*
X146548365Y-89803222D01*
X146542601Y-89800402D01*
X146536746Y-89797735D01*
X146530800Y-89795220D01*
X146524763Y-89792858D01*
X146518635Y-89790648D01*
X146512416Y-89788590D01*
X146506105Y-89786685D01*
X146499703Y-89784932D01*
X146494002Y-89783527D01*
X146780844Y-89783527D01*
X146780844Y-90315000D01*
X146896004Y-90315000D01*
X147119364Y-89971228D01*
X147122532Y-89966303D01*
X147125533Y-89961559D01*
X147128365Y-89956995D01*
X147131031Y-89952612D01*
X147133529Y-89948409D01*
X147136599Y-89943085D01*
X147139372Y-89938082D01*
X147141846Y-89933399D01*
X147144521Y-89927997D01*
X147146231Y-89927997D01*
X147145184Y-89933411D01*
X147144239Y-89939348D01*
X147143398Y-89945810D01*
X147142659Y-89952795D01*
X147142224Y-89957743D01*
X147141835Y-89962923D01*
X147141491Y-89968337D01*
X147141194Y-89973983D01*
X147140942Y-89979862D01*
X147140736Y-89985974D01*
X147140575Y-89992318D01*
X147140461Y-89998896D01*
X147140392Y-90005706D01*
X147140369Y-90012749D01*
X147140369Y-90315000D01*
X147249790Y-90315000D01*
X147249790Y-89783527D01*
X147320132Y-89783527D01*
X147320132Y-89876217D01*
X147468632Y-89876217D01*
X147468632Y-90315000D01*
X147585868Y-90315000D01*
X147585868Y-89876217D01*
X147734368Y-89876217D01*
X147734368Y-89783527D01*
X147320132Y-89783527D01*
X147249790Y-89783527D01*
X147127180Y-89783527D01*
X146912002Y-90117651D01*
X146908119Y-90123688D01*
X146904530Y-90129295D01*
X146901236Y-90134473D01*
X146898235Y-90139221D01*
X146895528Y-90143540D01*
X146892377Y-90148631D01*
X146889749Y-90152959D01*
X146887198Y-90157295D01*
X146885746Y-90159905D01*
X146884036Y-90159905D01*
X146885496Y-90154564D01*
X146886761Y-90148128D01*
X146887582Y-90142582D01*
X146888294Y-90136420D01*
X146888896Y-90129642D01*
X146889389Y-90122248D01*
X146889656Y-90116976D01*
X146889875Y-90111431D01*
X146890046Y-90105611D01*
X146890167Y-90099518D01*
X146890240Y-90093151D01*
X146890265Y-90086510D01*
X146890265Y-89783527D01*
X146780844Y-89783527D01*
X146494002Y-89783527D01*
X146493211Y-89783332D01*
X146486627Y-89781884D01*
X146479952Y-89780589D01*
X146473186Y-89779445D01*
X146466329Y-89778455D01*
X146459380Y-89777616D01*
X146452341Y-89776931D01*
X146445211Y-89776397D01*
X146437989Y-89776016D01*
X146430676Y-89775788D01*
X146423272Y-89775711D01*
X146416232Y-89775785D01*
X146409279Y-89776006D01*
X146402412Y-89776375D01*
X146395631Y-89776891D01*
X146388936Y-89777554D01*
X146382328Y-89778365D01*
X146375806Y-89779323D01*
X146369371Y-89780428D01*
X146363022Y-89781681D01*
X146356759Y-89783082D01*
X146350583Y-89784629D01*
X146344493Y-89786324D01*
X146338489Y-89788167D01*
X146332571Y-89790157D01*
X146326740Y-89792294D01*
X146320996Y-89794579D01*
X146315337Y-89797011D01*
X146309765Y-89799591D01*
X146304280Y-89802318D01*
X146298880Y-89805192D01*
X146293567Y-89808214D01*
X146288341Y-89811383D01*
X146283200Y-89814700D01*
X146278146Y-89818164D01*
X146273179Y-89821775D01*
X146268297Y-89825534D01*
X146263502Y-89829440D01*
X146258794Y-89833494D01*
X146254172Y-89837695D01*
X146249636Y-89842043D01*
X146245186Y-89846539D01*
X146240823Y-89851182D01*
X146236570Y-89855941D01*
X146232453Y-89860784D01*
X146228470Y-89865711D01*
X146224623Y-89870722D01*
X146220910Y-89875817D01*
X146217333Y-89880995D01*
X146213890Y-89886258D01*
X146210583Y-89891605D01*
X146207410Y-89897035D01*
X146204373Y-89902550D01*
X146201470Y-89908148D01*
X146198703Y-89913831D01*
X146196070Y-89919597D01*
X146193572Y-89925447D01*
X146191210Y-89931382D01*
X146188982Y-89937400D01*
X146186890Y-89943502D01*
X146184932Y-89949689D01*
X146183110Y-89955959D01*
X146181422Y-89962313D01*
X146179870Y-89968751D01*
X146178452Y-89975273D01*
X146177170Y-89981879D01*
X146176022Y-89988569D01*
X146175010Y-89995343D01*
X146174132Y-90002201D01*
X146173390Y-90009143D01*
X146172782Y-90016168D01*
X146172310Y-90023278D01*
X146171972Y-90030472D01*
X146171770Y-90037750D01*
X146171702Y-90045111D01*
X146068882Y-90045111D01*
X146138485Y-89783527D01*
X146013921Y-89783527D01*
X145934665Y-90143663D01*
X145933430Y-90149779D01*
X145932567Y-90154618D01*
X145931757Y-90159675D01*
X145931001Y-90164948D01*
X145930299Y-90170438D01*
X145929650Y-90176145D01*
X145929055Y-90182069D01*
X145928514Y-90188209D01*
X145928026Y-90194567D01*
X145927592Y-90201141D01*
X145927459Y-90203381D01*
X145927073Y-90198068D01*
X145926556Y-90192663D01*
X145925908Y-90187166D01*
X145925130Y-90181576D01*
X145924220Y-90175894D01*
X145923179Y-90170120D01*
X145922007Y-90164254D01*
X145920705Y-90158295D01*
X145919271Y-90152244D01*
X145917706Y-90146100D01*
X145916591Y-90141953D01*
X145815963Y-89783527D01*
X145693353Y-89783527D01*
X145601884Y-90146350D01*
X145600517Y-90151958D01*
X145599228Y-90157974D01*
X145598014Y-90164399D01*
X145597154Y-90169486D01*
X145596337Y-90174802D01*
X145595562Y-90180348D01*
X145594831Y-90186123D01*
X145594143Y-90192129D01*
X145593497Y-90198364D01*
X145593091Y-90202648D01*
X145591381Y-90202648D01*
X145591087Y-90197073D01*
X145590710Y-90191521D01*
X145590249Y-90185993D01*
X145589704Y-90180488D01*
X145589075Y-90175008D01*
X145588363Y-90169550D01*
X145587567Y-90164117D01*
X145586687Y-90158707D01*
X145585724Y-90153321D01*
X145584676Y-90147958D01*
X145583932Y-90144396D01*
X145511270Y-89783527D01*
X145394033Y-89783527D01*
X145172604Y-89783527D01*
X145172604Y-89554282D01*
X147955797Y-89554282D01*
X147955797Y-90544244D01*
G37*
D11*
G36*
X144824511Y-93075816D02*
G01*
X144768457Y-93075816D01*
X144763497Y-93075724D01*
X144756289Y-93075241D01*
X144749361Y-93074343D01*
X144742711Y-93073031D01*
X144736340Y-93071305D01*
X144730249Y-93069164D01*
X144724436Y-93066609D01*
X144718903Y-93063640D01*
X144713649Y-93060256D01*
X144708673Y-93056459D01*
X144703977Y-93052247D01*
X144699612Y-93047702D01*
X144695677Y-93042954D01*
X144692171Y-93038002D01*
X144689094Y-93032846D01*
X144686446Y-93027487D01*
X144684228Y-93021923D01*
X144682439Y-93016155D01*
X144681079Y-93010183D01*
X144680149Y-93004008D01*
X144679648Y-92997628D01*
X144679553Y-92993262D01*
X144679892Y-92984359D01*
X144680910Y-92976031D01*
X144682605Y-92968278D01*
X144684980Y-92961098D01*
X144688032Y-92954493D01*
X144691763Y-92948462D01*
X144696172Y-92943006D01*
X144701260Y-92938124D01*
X144707026Y-92933816D01*
X144713470Y-92930083D01*
X144720593Y-92926924D01*
X144728394Y-92924340D01*
X144736873Y-92922329D01*
X144746031Y-92920893D01*
X144755867Y-92920032D01*
X144761039Y-92919817D01*
X144766381Y-92919745D01*
X144824511Y-92919745D01*
X144824511Y-93075816D01*
G37*
G36*
X145196402Y-93631744D02*
G01*
X141640163Y-93631744D01*
X141640163Y-93192686D01*
X141899092Y-93192686D01*
X141899145Y-93197619D01*
X141899569Y-93207315D01*
X141900416Y-93216785D01*
X141901687Y-93226029D01*
X141903381Y-93235047D01*
X141905499Y-93243839D01*
X141908041Y-93252405D01*
X141911006Y-93260744D01*
X141914395Y-93268858D01*
X141918208Y-93276745D01*
X141922444Y-93284406D01*
X141927103Y-93291841D01*
X141932187Y-93299050D01*
X141937694Y-93306033D01*
X141943624Y-93312790D01*
X141949978Y-93319321D01*
X141953314Y-93322501D01*
X141960228Y-93328594D01*
X141967446Y-93334294D01*
X141974967Y-93339600D01*
X141982791Y-93344514D01*
X141990919Y-93349034D01*
X141999350Y-93353161D01*
X142008085Y-93356896D01*
X142017123Y-93360237D01*
X142026464Y-93363185D01*
X142031248Y-93364511D01*
X142036109Y-93365740D01*
X142041045Y-93366870D01*
X142046057Y-93367902D01*
X142051145Y-93368835D01*
X142056308Y-93369671D01*
X142061548Y-93370408D01*
X142066863Y-93371046D01*
X142072255Y-93371587D01*
X142077722Y-93372029D01*
X142083265Y-93372373D01*
X142088883Y-93372619D01*
X142094578Y-93372766D01*
X142100348Y-93372815D01*
X142109660Y-93372727D01*
X142118789Y-93372460D01*
X142127734Y-93372017D01*
X142136496Y-93371396D01*
X142145075Y-93370597D01*
X142153471Y-93369621D01*
X142161684Y-93368468D01*
X142169713Y-93367137D01*
X142177560Y-93365628D01*
X142185223Y-93363942D01*
X142192703Y-93362079D01*
X142200000Y-93360038D01*
X142207113Y-93357820D01*
X142214043Y-93355424D01*
X142220791Y-93352851D01*
X142227355Y-93350101D01*
X142227355Y-93328485D01*
X142741242Y-93328485D01*
X142746184Y-93331213D01*
X142751197Y-93333853D01*
X142756280Y-93336407D01*
X142761434Y-93338875D01*
X142766657Y-93341256D01*
X142771950Y-93343550D01*
X142777314Y-93345758D01*
X142782748Y-93347880D01*
X142788251Y-93349914D01*
X142793825Y-93351862D01*
X142799469Y-93353724D01*
X142805184Y-93355499D01*
X142810968Y-93357187D01*
X142816822Y-93358789D01*
X142822747Y-93360304D01*
X142828742Y-93361733D01*
X142834806Y-93363075D01*
X142840941Y-93364330D01*
X142847146Y-93365499D01*
X142853422Y-93366581D01*
X142859767Y-93367577D01*
X142866182Y-93368486D01*
X142872668Y-93369309D01*
X142879224Y-93370045D01*
X142885849Y-93370694D01*
X142892545Y-93371257D01*
X142899311Y-93371733D01*
X142906148Y-93372123D01*
X142913054Y-93372426D01*
X142920030Y-93372642D01*
X142927077Y-93372772D01*
X142934193Y-93372815D01*
X142942140Y-93372746D01*
X142949981Y-93372538D01*
X142957716Y-93372192D01*
X142965346Y-93371707D01*
X142972870Y-93371083D01*
X142980290Y-93370321D01*
X142987603Y-93369420D01*
X142994812Y-93368381D01*
X143001914Y-93367203D01*
X143008912Y-93365886D01*
X143015804Y-93364431D01*
X143022590Y-93362838D01*
X143029271Y-93361105D01*
X143035847Y-93359235D01*
X143042317Y-93357225D01*
X143048682Y-93355077D01*
X143054942Y-93352791D01*
X143061096Y-93350365D01*
X143067144Y-93347802D01*
X143073088Y-93345099D01*
X143078925Y-93342259D01*
X143084658Y-93339279D01*
X143090284Y-93336161D01*
X143095806Y-93332904D01*
X143101222Y-93329509D01*
X143106533Y-93325976D01*
X143111738Y-93322303D01*
X143116838Y-93318492D01*
X143121832Y-93314543D01*
X143126721Y-93310455D01*
X143131504Y-93306228D01*
X143136182Y-93301863D01*
X143140735Y-93297370D01*
X143145144Y-93292774D01*
X143149408Y-93288077D01*
X143153527Y-93283277D01*
X143157502Y-93278376D01*
X143161333Y-93273372D01*
X143165018Y-93268266D01*
X143168560Y-93263059D01*
X143171957Y-93257749D01*
X143175209Y-93252337D01*
X143178316Y-93246823D01*
X143181279Y-93241207D01*
X143184098Y-93235488D01*
X143186772Y-93229668D01*
X143189302Y-93223746D01*
X143191687Y-93217721D01*
X143193927Y-93211594D01*
X143196023Y-93205366D01*
X143197974Y-93199035D01*
X143199781Y-93192602D01*
X143201443Y-93186067D01*
X143202961Y-93179430D01*
X143204334Y-93172691D01*
X143205563Y-93165850D01*
X143206647Y-93158907D01*
X143207586Y-93151861D01*
X143208381Y-93144714D01*
X143209032Y-93137464D01*
X143209537Y-93130113D01*
X143209899Y-93122659D01*
X143210116Y-93115103D01*
X143210188Y-93107445D01*
X143210108Y-93099683D01*
X143209870Y-93092011D01*
X143209473Y-93084430D01*
X143208917Y-93076940D01*
X143208202Y-93069541D01*
X143207329Y-93062232D01*
X143206296Y-93055015D01*
X143205105Y-93047888D01*
X143203754Y-93040853D01*
X143202245Y-93033908D01*
X143200577Y-93027054D01*
X143198750Y-93020291D01*
X143196765Y-93013619D01*
X143194620Y-93007037D01*
X143192317Y-93000547D01*
X143189855Y-92994147D01*
X143187234Y-92987839D01*
X143184454Y-92981621D01*
X143181515Y-92975494D01*
X143178417Y-92969458D01*
X143175161Y-92963513D01*
X143171745Y-92957658D01*
X143168171Y-92951895D01*
X143164438Y-92946222D01*
X143160546Y-92940641D01*
X143156496Y-92935150D01*
X143152286Y-92929750D01*
X143147917Y-92924441D01*
X143143390Y-92919223D01*
X143138704Y-92914095D01*
X143133859Y-92909059D01*
X143128855Y-92904113D01*
X143123714Y-92899290D01*
X143118471Y-92894619D01*
X143113128Y-92890102D01*
X143107684Y-92885738D01*
X143102139Y-92881527D01*
X143096493Y-92877469D01*
X143090747Y-92873564D01*
X143084899Y-92869812D01*
X143078950Y-92866214D01*
X143072901Y-92862768D01*
X143066751Y-92859476D01*
X143060499Y-92856337D01*
X143054147Y-92853351D01*
X143047694Y-92850518D01*
X143041141Y-92847838D01*
X143034486Y-92845312D01*
X143027730Y-92842938D01*
X143020873Y-92840718D01*
X143013916Y-92838651D01*
X143006858Y-92836737D01*
X142999698Y-92834976D01*
X142993156Y-92833527D01*
X143665457Y-92833527D01*
X143665457Y-92926217D01*
X143813956Y-92926217D01*
X143813956Y-93365000D01*
X143931193Y-93365000D01*
X144499790Y-93365000D01*
X144629972Y-93365000D01*
X144713136Y-93228956D01*
X144716412Y-93223792D01*
X144719613Y-93218864D01*
X144722739Y-93214171D01*
X144725791Y-93209714D01*
X144728769Y-93205493D01*
X144731672Y-93201508D01*
X144735887Y-93195971D01*
X144739935Y-93190965D01*
X144743816Y-93186488D01*
X144747529Y-93182542D01*
X144751074Y-93179127D01*
X144755541Y-93175397D01*
X144756612Y-93174612D01*
X144760888Y-93171750D01*
X144765229Y-93169269D01*
X144770746Y-93166705D01*
X144776365Y-93164738D01*
X144782085Y-93163366D01*
X144787907Y-93162591D01*
X144792637Y-93162400D01*
X144828053Y-93162400D01*
X144828053Y-93365000D01*
X144937473Y-93365000D01*
X144937473Y-92833527D01*
X144751605Y-92833527D01*
X144739959Y-92833669D01*
X144728683Y-92834096D01*
X144717777Y-92834808D01*
X144707240Y-92835803D01*
X144697073Y-92837084D01*
X144687276Y-92838649D01*
X144677849Y-92840499D01*
X144668791Y-92842633D01*
X144660103Y-92845051D01*
X144651785Y-92847755D01*
X144643836Y-92850742D01*
X144636257Y-92854015D01*
X144629048Y-92857572D01*
X144622208Y-92861413D01*
X144615738Y-92865539D01*
X144609638Y-92869950D01*
X144603908Y-92874645D01*
X144598547Y-92879625D01*
X144593556Y-92884889D01*
X144588935Y-92890438D01*
X144584683Y-92896271D01*
X144580801Y-92902389D01*
X144577289Y-92908791D01*
X144574147Y-92915478D01*
X144571374Y-92922450D01*
X144568971Y-92929706D01*
X144566938Y-92937246D01*
X144565274Y-92945072D01*
X144563980Y-92953181D01*
X144563056Y-92961576D01*
X144562501Y-92970255D01*
X144562316Y-92979218D01*
X144562440Y-92986011D01*
X144562811Y-92992682D01*
X144562866Y-92993262D01*
X144563428Y-92999231D01*
X144564293Y-93005657D01*
X144565405Y-93011962D01*
X144566764Y-93018144D01*
X144568370Y-93024204D01*
X144570224Y-93030143D01*
X144572324Y-93035959D01*
X144574672Y-93041653D01*
X144577266Y-93047224D01*
X144580108Y-93052674D01*
X144583197Y-93058002D01*
X144586533Y-93063207D01*
X144590116Y-93068290D01*
X144593946Y-93073251D01*
X144597992Y-93078046D01*
X144602225Y-93082660D01*
X144606644Y-93087095D01*
X144611249Y-93091348D01*
X144616040Y-93095422D01*
X144621017Y-93099315D01*
X144626180Y-93103028D01*
X144631529Y-93106560D01*
X144637064Y-93109912D01*
X144642785Y-93113084D01*
X144648692Y-93116075D01*
X144654785Y-93118887D01*
X144661064Y-93121518D01*
X144667530Y-93123968D01*
X144674181Y-93126238D01*
X144681018Y-93128328D01*
X144681018Y-93129672D01*
X144676408Y-93131415D01*
X144671735Y-93133591D01*
X144667001Y-93136200D01*
X144662204Y-93139243D01*
X144657345Y-93142718D01*
X144652425Y-93146627D01*
X144647442Y-93150969D01*
X144642397Y-93155744D01*
X144637291Y-93160953D01*
X144632122Y-93166594D01*
X144626891Y-93172669D01*
X144621599Y-93179176D01*
X144616244Y-93186117D01*
X144610827Y-93193491D01*
X144605348Y-93201299D01*
X144602586Y-93205365D01*
X144599808Y-93209539D01*
X144499790Y-93365000D01*
X143931193Y-93365000D01*
X143931193Y-92926217D01*
X144079692Y-92926217D01*
X144079692Y-92833527D01*
X143665457Y-92833527D01*
X142993156Y-92833527D01*
X142992438Y-92833368D01*
X142985077Y-92831913D01*
X142977615Y-92830611D01*
X142970052Y-92829463D01*
X142962389Y-92828468D01*
X142954624Y-92827625D01*
X142946759Y-92826936D01*
X142938792Y-92826400D01*
X142930725Y-92826018D01*
X142922557Y-92825788D01*
X142914288Y-92825711D01*
X142908958Y-92825735D01*
X142903671Y-92825807D01*
X142898426Y-92825927D01*
X142893224Y-92826095D01*
X142888063Y-92826311D01*
X142882945Y-92826574D01*
X142877869Y-92826886D01*
X142872835Y-92827245D01*
X142867844Y-92827653D01*
X142862894Y-92828108D01*
X142857987Y-92828612D01*
X142853122Y-92829163D01*
X142843519Y-92830410D01*
X142834084Y-92831848D01*
X142824819Y-92833478D01*
X142815722Y-92835300D01*
X142806795Y-92837313D01*
X142798036Y-92839519D01*
X142789446Y-92841916D01*
X142781025Y-92844505D01*
X142772772Y-92847285D01*
X142764689Y-92850258D01*
X142764689Y-92960289D01*
X142772644Y-92955557D01*
X142780817Y-92951130D01*
X142789207Y-92947008D01*
X142797814Y-92943192D01*
X142806640Y-92939681D01*
X142815682Y-92936475D01*
X142824943Y-92933575D01*
X142829654Y-92932239D01*
X142834420Y-92930980D01*
X142839241Y-92929797D01*
X142844116Y-92928690D01*
X142849045Y-92927660D01*
X142854028Y-92926706D01*
X142859066Y-92925828D01*
X142864159Y-92925027D01*
X142869306Y-92924301D01*
X142874507Y-92923653D01*
X142879762Y-92923080D01*
X142885072Y-92922584D01*
X142890436Y-92922164D01*
X142895855Y-92921821D01*
X142901328Y-92921554D01*
X142906855Y-92921363D01*
X142912437Y-92921248D01*
X142918073Y-92921210D01*
X142927712Y-92921404D01*
X142937121Y-92921987D01*
X142946298Y-92922958D01*
X142955244Y-92924317D01*
X142963960Y-92926064D01*
X142972444Y-92928200D01*
X142980698Y-92930724D01*
X142988721Y-92933636D01*
X142996513Y-92936937D01*
X143004074Y-92940626D01*
X143011404Y-92944703D01*
X143018503Y-92949168D01*
X143025371Y-92954022D01*
X143032009Y-92959264D01*
X143038416Y-92964895D01*
X143044591Y-92970914D01*
X143050447Y-92977250D01*
X143055926Y-92983834D01*
X143061026Y-92990664D01*
X143065749Y-92997742D01*
X143070094Y-93005067D01*
X143074061Y-93012639D01*
X143077650Y-93020458D01*
X143080861Y-93028524D01*
X143083695Y-93036838D01*
X143086151Y-93045398D01*
X143088229Y-93054206D01*
X143089929Y-93063260D01*
X143091251Y-93072562D01*
X143092196Y-93082111D01*
X143092762Y-93091907D01*
X143092904Y-93096898D01*
X143092951Y-93101950D01*
X143092909Y-93107089D01*
X143092782Y-93112157D01*
X143092570Y-93117154D01*
X143092274Y-93122079D01*
X143091427Y-93131716D01*
X143090242Y-93141067D01*
X143088718Y-93150133D01*
X143086855Y-93158914D01*
X143084653Y-93167409D01*
X143082113Y-93175620D01*
X143079234Y-93183545D01*
X143076017Y-93191184D01*
X143072460Y-93198539D01*
X143068565Y-93205608D01*
X143064332Y-93212392D01*
X143059759Y-93218891D01*
X143054848Y-93225104D01*
X143049598Y-93231032D01*
X143044056Y-93236637D01*
X143038268Y-93241880D01*
X143032233Y-93246762D01*
X143025952Y-93251282D01*
X143019426Y-93255440D01*
X143012653Y-93259237D01*
X143005634Y-93262672D01*
X142998368Y-93265745D01*
X142990857Y-93268457D01*
X142983099Y-93270808D01*
X142975096Y-93272796D01*
X142966846Y-93274424D01*
X142958350Y-93275689D01*
X142949608Y-93276593D01*
X142940619Y-93277136D01*
X142931385Y-93277316D01*
X142925876Y-93277255D01*
X142920495Y-93277072D01*
X142915240Y-93276767D01*
X142910113Y-93276339D01*
X142905112Y-93275790D01*
X142900238Y-93275118D01*
X142893165Y-93273882D01*
X142886378Y-93272370D01*
X142879876Y-93270584D01*
X142873659Y-93268524D01*
X142867729Y-93266188D01*
X142862083Y-93263578D01*
X142858478Y-93261685D01*
X142858478Y-93158981D01*
X142967899Y-93158981D01*
X142967899Y-93068000D01*
X142741242Y-93068000D01*
X142741242Y-93328485D01*
X142227355Y-93328485D01*
X142227355Y-93253991D01*
X142220396Y-93258058D01*
X142213379Y-93261862D01*
X142206306Y-93265404D01*
X142199175Y-93268684D01*
X142191987Y-93271701D01*
X142184742Y-93274456D01*
X142177439Y-93276949D01*
X142170080Y-93279179D01*
X142162663Y-93281146D01*
X142155189Y-93282852D01*
X142147657Y-93284295D01*
X142140068Y-93285476D01*
X142132422Y-93286394D01*
X142124719Y-93287050D01*
X142116959Y-93287443D01*
X142109141Y-93287575D01*
X142103314Y-93287486D01*
X142097648Y-93287222D01*
X142092144Y-93286780D01*
X142086801Y-93286162D01*
X142081619Y-93285368D01*
X142076598Y-93284397D01*
X142071738Y-93283250D01*
X142064751Y-93281198D01*
X142058127Y-93278749D01*
X142051865Y-93275903D01*
X142045967Y-93272660D01*
X142040431Y-93269020D01*
X142035258Y-93264982D01*
X142030478Y-93260606D01*
X142026169Y-93255952D01*
X142022329Y-93251018D01*
X142018960Y-93245805D01*
X142016061Y-93240313D01*
X142013632Y-93234542D01*
X142011673Y-93228492D01*
X142010185Y-93222163D01*
X142009166Y-93215555D01*
X142008618Y-93208668D01*
X142008513Y-93203921D01*
X142008624Y-93198963D01*
X142009515Y-93189517D01*
X142011295Y-93180702D01*
X142013965Y-93172516D01*
X142017526Y-93164959D01*
X142021977Y-93158033D01*
X142027318Y-93151736D01*
X142033549Y-93146069D01*
X142040670Y-93141031D01*
X142048681Y-93136623D01*
X142057583Y-93132845D01*
X142062367Y-93131192D01*
X142067374Y-93129697D01*
X142072604Y-93128359D01*
X142078056Y-93127178D01*
X142083731Y-93126155D01*
X142089628Y-93125289D01*
X142095748Y-93124581D01*
X142102090Y-93124030D01*
X142108655Y-93123636D01*
X142115442Y-93123400D01*
X142122452Y-93123321D01*
X142127769Y-93123349D01*
X142133186Y-93123434D01*
X142138703Y-93123575D01*
X142144320Y-93123772D01*
X142150037Y-93124025D01*
X142155855Y-93124334D01*
X142161772Y-93124700D01*
X142167790Y-93125122D01*
X142173908Y-93125601D01*
X142180126Y-93126136D01*
X142186444Y-93126727D01*
X142192863Y-93127374D01*
X142199382Y-93128078D01*
X142206001Y-93128838D01*
X142212720Y-93129654D01*
X142219539Y-93130526D01*
X142199877Y-92833527D01*
X141922540Y-92833527D01*
X141922540Y-92924874D01*
X142110484Y-92924874D01*
X142117934Y-93039057D01*
X142112683Y-93038643D01*
X142107510Y-93038269D01*
X142102414Y-93037936D01*
X142097395Y-93037643D01*
X142092453Y-93037392D01*
X142085984Y-93037120D01*
X142079653Y-93036921D01*
X142073459Y-93036794D01*
X142067403Y-93036739D01*
X142065910Y-93036737D01*
X142056375Y-93036902D01*
X142047094Y-93037395D01*
X142038068Y-93038218D01*
X142029297Y-93039370D01*
X142020780Y-93040852D01*
X142012518Y-93042662D01*
X142004511Y-93044801D01*
X141996759Y-93047270D01*
X141989261Y-93050068D01*
X141982018Y-93053195D01*
X141975030Y-93056651D01*
X141968297Y-93060436D01*
X141961818Y-93064551D01*
X141955594Y-93068994D01*
X141949625Y-93073767D01*
X141943911Y-93078869D01*
X141938484Y-93084237D01*
X141933407Y-93089837D01*
X141928680Y-93095670D01*
X141924303Y-93101736D01*
X141920276Y-93108035D01*
X141916600Y-93114567D01*
X141913273Y-93121331D01*
X141910297Y-93128328D01*
X141907671Y-93135558D01*
X141905395Y-93143021D01*
X141903469Y-93150716D01*
X141901893Y-93158645D01*
X141900668Y-93166806D01*
X141899793Y-93175200D01*
X141899267Y-93183827D01*
X141899092Y-93192686D01*
X141640163Y-93192686D01*
X141640163Y-92566782D01*
X145196402Y-92566782D01*
X145196402Y-93631744D01*
G37*
D12*
G36*
X139628688Y-90315212D02*
G01*
X139599506Y-90315647D01*
X139571250Y-90316952D01*
X139543921Y-90319126D01*
X139517519Y-90322169D01*
X139492043Y-90326083D01*
X139467493Y-90330866D01*
X139443870Y-90336518D01*
X139421173Y-90343041D01*
X139399402Y-90350433D01*
X139378558Y-90358694D01*
X139358640Y-90367825D01*
X139339649Y-90377826D01*
X139321584Y-90388697D01*
X139304446Y-90400437D01*
X139288234Y-90413047D01*
X139272948Y-90426526D01*
X139258589Y-90440875D01*
X139245156Y-90456094D01*
X139232649Y-90472182D01*
X139221069Y-90489140D01*
X139210415Y-90506968D01*
X139200688Y-90525665D01*
X139191887Y-90545232D01*
X139184013Y-90565668D01*
X139177065Y-90586974D01*
X139171043Y-90609150D01*
X139165948Y-90632195D01*
X139161779Y-90656110D01*
X139158537Y-90680895D01*
X139156221Y-90706549D01*
X139154831Y-90733073D01*
X139154368Y-90760467D01*
X139154819Y-90786929D01*
X139156172Y-90812551D01*
X139158427Y-90837333D01*
X139161585Y-90861274D01*
X139165644Y-90884376D01*
X139170605Y-90906638D01*
X139176469Y-90928059D01*
X139183234Y-90948641D01*
X139190902Y-90968382D01*
X139199472Y-90987284D01*
X139208944Y-91005345D01*
X139219317Y-91022566D01*
X139230593Y-91038948D01*
X139242771Y-91054489D01*
X139255852Y-91069190D01*
X139269834Y-91083051D01*
X139284718Y-91096072D01*
X139300504Y-91108253D01*
X139317193Y-91119593D01*
X139334783Y-91130094D01*
X139353276Y-91139755D01*
X139372670Y-91148576D01*
X139392967Y-91156556D01*
X139414166Y-91163697D01*
X139436267Y-91169997D01*
X139459270Y-91175458D01*
X139483175Y-91180078D01*
X139507982Y-91183858D01*
X139533691Y-91186798D01*
X139560302Y-91188899D01*
X139587816Y-91190159D01*
X139616231Y-91190579D01*
X140232944Y-91190579D01*
X140232944Y-90956106D01*
X139615498Y-90956106D01*
X139599210Y-90955905D01*
X139583438Y-90955305D01*
X139568183Y-90954305D01*
X139553446Y-90952904D01*
X139539225Y-90951103D01*
X139525522Y-90948901D01*
X139512335Y-90946300D01*
X139499666Y-90943298D01*
X139487514Y-90939896D01*
X139475879Y-90936094D01*
X139464761Y-90931891D01*
X139454161Y-90927289D01*
X139444077Y-90922286D01*
X139434511Y-90916883D01*
X139425461Y-90911079D01*
X139416929Y-90904876D01*
X139408914Y-90898272D01*
X139401416Y-90891268D01*
X139394435Y-90883863D01*
X139387971Y-90876059D01*
X139382024Y-90867854D01*
X139376595Y-90859249D01*
X139371682Y-90850244D01*
X139367287Y-90840838D01*
X139363408Y-90831032D01*
X139360047Y-90820827D01*
X139357203Y-90810220D01*
X139354876Y-90799214D01*
X139353066Y-90787807D01*
X139351773Y-90776000D01*
X139350998Y-90763793D01*
X139350739Y-90751186D01*
X139350988Y-90738789D01*
X139351735Y-90726785D01*
X139352980Y-90715176D01*
X139354723Y-90703959D01*
X139356965Y-90693136D01*
X139359704Y-90682707D01*
X139362941Y-90672672D01*
X139366676Y-90663029D01*
X139370909Y-90653781D01*
X139375641Y-90644926D01*
X139380870Y-90636464D01*
X139386597Y-90628397D01*
X139392822Y-90620722D01*
X139399546Y-90613441D01*
X139406767Y-90606554D01*
X139414487Y-90600061D01*
X139422704Y-90593960D01*
X139431419Y-90588254D01*
X139440633Y-90582941D01*
X139450344Y-90578021D01*
X139460554Y-90573496D01*
X139471262Y-90569363D01*
X139482467Y-90565624D01*
X139494171Y-90562279D01*
X139506372Y-90559328D01*
X139519072Y-90556769D01*
X139532270Y-90554605D01*
X139545966Y-90552834D01*
X139560159Y-90551456D01*
X139574851Y-90550473D01*
X139590041Y-90549882D01*
X139605729Y-90549685D01*
X140232944Y-90549685D01*
X140232944Y-90315212D01*
X139628688Y-90315212D01*
G37*
G36*
X139443796Y-90151081D02*
G01*
X139437064Y-90142910D01*
X139430546Y-90134670D01*
X139424241Y-90126361D01*
X139418150Y-90117982D01*
X139412273Y-90109535D01*
X139406610Y-90101018D01*
X139401160Y-90092432D01*
X139395924Y-90083777D01*
X139390902Y-90075053D01*
X139386093Y-90066259D01*
X139381499Y-90057397D01*
X139377117Y-90048465D01*
X139372950Y-90039464D01*
X139368996Y-90030394D01*
X139365256Y-90021254D01*
X139361730Y-90012046D01*
X139358418Y-90002768D01*
X139355319Y-89993421D01*
X139352434Y-89984005D01*
X139349762Y-89974520D01*
X139347305Y-89964966D01*
X139345061Y-89955342D01*
X139343030Y-89945650D01*
X139341214Y-89935888D01*
X139339611Y-89926057D01*
X139338222Y-89916157D01*
X139337046Y-89906187D01*
X139336085Y-89896149D01*
X139335337Y-89886041D01*
X139334802Y-89875864D01*
X139334482Y-89865618D01*
X139334375Y-89855303D01*
X139334501Y-89843731D01*
X139334879Y-89832524D01*
X139335508Y-89821681D01*
X139336390Y-89811202D01*
X139337523Y-89801088D01*
X139338909Y-89791338D01*
X139341459Y-89777397D01*
X139344576Y-89764276D01*
X139348260Y-89751975D01*
X139352510Y-89740494D01*
X139357327Y-89729833D01*
X139362711Y-89719992D01*
X139366615Y-89713886D01*
X139372869Y-89705419D01*
X139379449Y-89697784D01*
X139388730Y-89688899D01*
X139398592Y-89681496D01*
X139409033Y-89675573D01*
X139420055Y-89671131D01*
X139431656Y-89668169D01*
X139443838Y-89666688D01*
X139450146Y-89666503D01*
X139461003Y-89667087D01*
X139471716Y-89668839D01*
X139482283Y-89671758D01*
X139492705Y-89675846D01*
X139502983Y-89681101D01*
X139513115Y-89687523D01*
X139523102Y-89695114D01*
X139530497Y-89701573D01*
X139532944Y-89703872D01*
X139540516Y-89711909D01*
X139548578Y-89722096D01*
X139554224Y-89730083D01*
X139560088Y-89739025D01*
X139566169Y-89748924D01*
X139572468Y-89759778D01*
X139578984Y-89771589D01*
X139585718Y-89784355D01*
X139592669Y-89798078D01*
X139599838Y-89812756D01*
X139607225Y-89828391D01*
X139614829Y-89844981D01*
X139622650Y-89862527D01*
X139626643Y-89871659D01*
X139630689Y-89881030D01*
X139634790Y-89890639D01*
X139638946Y-89900488D01*
X139645541Y-89915905D01*
X139652320Y-89930833D01*
X139659283Y-89945272D01*
X139666431Y-89959221D01*
X139673762Y-89972680D01*
X139681278Y-89985651D01*
X139688978Y-89998131D01*
X139696862Y-90010122D01*
X139704930Y-90021624D01*
X139713182Y-90032637D01*
X139721619Y-90043160D01*
X139730239Y-90053193D01*
X139739044Y-90062737D01*
X139748033Y-90071792D01*
X139757206Y-90080357D01*
X139766563Y-90088433D01*
X139776104Y-90096019D01*
X139785829Y-90103116D01*
X139795739Y-90109723D01*
X139805832Y-90115841D01*
X139816110Y-90121470D01*
X139826572Y-90126609D01*
X139837218Y-90131259D01*
X139848048Y-90135419D01*
X139859062Y-90139090D01*
X139870261Y-90142271D01*
X139881643Y-90144963D01*
X139893210Y-90147166D01*
X139904961Y-90148879D01*
X139916896Y-90150102D01*
X139929015Y-90150836D01*
X139941318Y-90151081D01*
X139959290Y-90150641D01*
X139976753Y-90149322D01*
X139993706Y-90147123D01*
X140010149Y-90144044D01*
X140026083Y-90140085D01*
X140041508Y-90135247D01*
X140056423Y-90129530D01*
X140070828Y-90122932D01*
X140084724Y-90115455D01*
X140098111Y-90107098D01*
X140110988Y-90097862D01*
X140123356Y-90087746D01*
X140135214Y-90076750D01*
X140146563Y-90064875D01*
X140157402Y-90052120D01*
X140167732Y-90038485D01*
X140177521Y-90024096D01*
X140186679Y-90009138D01*
X140195206Y-89993611D01*
X140203101Y-89977516D01*
X140210364Y-89960852D01*
X140216996Y-89943620D01*
X140222996Y-89925819D01*
X140228365Y-89907449D01*
X140233102Y-89888511D01*
X140235233Y-89878828D01*
X140237207Y-89869004D01*
X140239023Y-89859037D01*
X140240681Y-89848928D01*
X140242181Y-89838677D01*
X140243523Y-89828284D01*
X140244707Y-89817748D01*
X140245734Y-89807071D01*
X140246602Y-89796251D01*
X140247313Y-89785289D01*
X140247865Y-89774185D01*
X140248260Y-89762939D01*
X140248497Y-89751551D01*
X140248576Y-89740020D01*
X140248415Y-89720768D01*
X140247931Y-89701907D01*
X140247125Y-89683437D01*
X140245996Y-89665358D01*
X140244545Y-89647671D01*
X140242771Y-89630374D01*
X140240675Y-89613469D01*
X140238257Y-89596955D01*
X140235516Y-89580832D01*
X140232452Y-89565101D01*
X140229066Y-89549760D01*
X140225358Y-89534811D01*
X140221327Y-89520252D01*
X140216973Y-89506085D01*
X140212297Y-89492310D01*
X140207299Y-89478925D01*
X139989678Y-89478925D01*
X139999143Y-89492561D01*
X140007997Y-89506482D01*
X140016240Y-89520687D01*
X140023872Y-89535177D01*
X140030894Y-89549951D01*
X140037306Y-89565009D01*
X140043107Y-89580351D01*
X140048297Y-89595978D01*
X140052876Y-89611889D01*
X140056845Y-89628085D01*
X140060204Y-89644564D01*
X140062951Y-89661328D01*
X140065088Y-89678377D01*
X140066615Y-89695709D01*
X140067531Y-89713326D01*
X140067836Y-89731228D01*
X140067721Y-89741659D01*
X140067374Y-89751824D01*
X140066797Y-89761725D01*
X140065498Y-89776078D01*
X140063680Y-89789835D01*
X140061343Y-89802994D01*
X140058485Y-89815557D01*
X140055109Y-89827524D01*
X140051212Y-89838893D01*
X140046797Y-89849666D01*
X140041862Y-89859842D01*
X140038283Y-89866294D01*
X140032566Y-89875286D01*
X140026496Y-89883393D01*
X140017856Y-89892827D01*
X140008590Y-89900688D01*
X139998698Y-89906978D01*
X139988181Y-89911695D01*
X139977037Y-89914839D01*
X139965268Y-89916411D01*
X139959148Y-89916608D01*
X139949294Y-89916070D01*
X139939639Y-89914456D01*
X139930182Y-89911765D01*
X139920924Y-89907998D01*
X139911864Y-89903156D01*
X139903003Y-89897237D01*
X139894340Y-89890241D01*
X139885875Y-89882170D01*
X139879393Y-89874774D01*
X139872494Y-89865592D01*
X139865179Y-89854624D01*
X139857448Y-89841870D01*
X139852062Y-89832375D01*
X139846491Y-89822086D01*
X139840735Y-89811004D01*
X139834794Y-89799127D01*
X139828668Y-89786457D01*
X139822357Y-89772993D01*
X139815861Y-89758736D01*
X139809179Y-89743684D01*
X139802313Y-89727839D01*
X139795261Y-89711200D01*
X139790980Y-89701329D01*
X139786683Y-89691653D01*
X139782372Y-89682171D01*
X139778046Y-89672884D01*
X139773705Y-89663792D01*
X139769350Y-89654894D01*
X139760594Y-89637683D01*
X139751779Y-89621250D01*
X139742905Y-89605595D01*
X139733972Y-89590719D01*
X139724980Y-89576622D01*
X139715929Y-89563303D01*
X139706819Y-89550763D01*
X139697649Y-89539001D01*
X139688420Y-89528018D01*
X139679132Y-89517813D01*
X139669785Y-89508387D01*
X139660379Y-89499739D01*
X139650914Y-89491870D01*
X139641305Y-89484624D01*
X139631470Y-89477845D01*
X139621407Y-89471534D01*
X139611117Y-89465690D01*
X139600601Y-89460314D01*
X139589857Y-89455405D01*
X139578886Y-89450964D01*
X139567688Y-89446990D01*
X139556263Y-89443484D01*
X139544611Y-89440445D01*
X139532732Y-89437874D01*
X139520625Y-89435770D01*
X139508292Y-89434134D01*
X139495732Y-89432965D01*
X139482944Y-89432264D01*
X139469930Y-89432030D01*
X139450981Y-89432456D01*
X139432603Y-89433732D01*
X139414795Y-89435860D01*
X139397558Y-89438838D01*
X139380891Y-89442668D01*
X139364795Y-89447349D01*
X139349269Y-89452881D01*
X139334314Y-89459263D01*
X139319929Y-89466497D01*
X139306115Y-89474582D01*
X139292872Y-89483518D01*
X139280199Y-89493305D01*
X139268096Y-89503943D01*
X139256565Y-89515432D01*
X139245603Y-89527771D01*
X139235212Y-89540963D01*
X139225423Y-89554937D01*
X139216264Y-89569627D01*
X139207738Y-89585032D01*
X139199843Y-89601153D01*
X139192580Y-89617990D01*
X139185948Y-89635542D01*
X139179948Y-89653809D01*
X139177184Y-89663212D01*
X139174579Y-89672793D01*
X139172132Y-89682553D01*
X139169842Y-89692491D01*
X139167710Y-89702609D01*
X139165737Y-89712906D01*
X139163921Y-89723381D01*
X139162263Y-89734036D01*
X139160763Y-89744869D01*
X139159421Y-89755881D01*
X139158236Y-89767072D01*
X139157210Y-89778442D01*
X139156342Y-89789991D01*
X139155631Y-89801718D01*
X139155079Y-89813625D01*
X139154684Y-89825711D01*
X139154447Y-89837975D01*
X139154368Y-89850418D01*
X139154426Y-89861818D01*
X139154601Y-89873088D01*
X139154892Y-89884229D01*
X139155299Y-89895241D01*
X139155823Y-89906123D01*
X139156463Y-89916876D01*
X139157220Y-89927500D01*
X139158093Y-89937995D01*
X139159082Y-89948360D01*
X139160188Y-89958596D01*
X139161410Y-89968703D01*
X139162749Y-89978680D01*
X139164204Y-89988528D01*
X139165775Y-89998247D01*
X139169267Y-90017297D01*
X139173224Y-90035830D01*
X139177647Y-90053846D01*
X139182536Y-90071344D01*
X139187890Y-90088326D01*
X139193710Y-90104790D01*
X139199996Y-90120738D01*
X139206747Y-90136168D01*
X139213963Y-90151081D01*
X139443796Y-90151081D01*
G37*
G36*
X139495044Y-88465097D02*
G01*
X139507432Y-88465901D01*
X139519552Y-88467241D01*
X139531403Y-88469118D01*
X139542984Y-88471531D01*
X139554297Y-88474480D01*
X139565340Y-88477965D01*
X139576114Y-88481987D01*
X139586620Y-88486544D01*
X139596856Y-88491638D01*
X139606823Y-88497268D01*
X139616521Y-88503434D01*
X139625950Y-88510137D01*
X139635110Y-88517375D01*
X139644001Y-88525150D01*
X139652623Y-88533461D01*
X139660899Y-88542177D01*
X139668751Y-88551229D01*
X139676179Y-88560618D01*
X139683184Y-88570341D01*
X139689765Y-88580401D01*
X139695923Y-88590797D01*
X139701657Y-88601528D01*
X139706967Y-88612595D01*
X139711854Y-88623999D01*
X139716317Y-88635737D01*
X139720357Y-88647812D01*
X139723973Y-88660223D01*
X139727165Y-88672969D01*
X139729934Y-88686051D01*
X139732279Y-88699470D01*
X139734200Y-88713224D01*
X139736887Y-88713224D01*
X139740162Y-88702471D01*
X139743756Y-88691951D01*
X139747672Y-88681665D01*
X139751908Y-88671611D01*
X139756465Y-88661789D01*
X139761342Y-88652201D01*
X139766540Y-88642845D01*
X139772058Y-88633722D01*
X139777897Y-88624832D01*
X139784057Y-88616175D01*
X139790537Y-88607751D01*
X139797337Y-88599559D01*
X139804458Y-88591600D01*
X139811900Y-88583874D01*
X139819663Y-88576381D01*
X139827745Y-88569120D01*
X139836102Y-88562170D01*
X139844625Y-88555668D01*
X139853314Y-88549614D01*
X139862168Y-88544009D01*
X139871189Y-88538852D01*
X139880376Y-88534144D01*
X139889729Y-88529884D01*
X139899248Y-88526072D01*
X139908932Y-88522709D01*
X139918783Y-88519795D01*
X139928800Y-88517328D01*
X139938983Y-88515310D01*
X139949332Y-88513741D01*
X139959847Y-88512620D01*
X139970527Y-88511947D01*
X139981374Y-88511723D01*
X139995950Y-88512089D01*
X140010122Y-88513185D01*
X140023893Y-88515012D01*
X140037260Y-88517570D01*
X140050225Y-88520858D01*
X140062787Y-88524878D01*
X140074947Y-88529628D01*
X140086704Y-88535109D01*
X140098058Y-88541321D01*
X140109010Y-88548264D01*
X140119559Y-88555938D01*
X140129706Y-88564342D01*
X140139450Y-88573477D01*
X140148791Y-88583344D01*
X140157730Y-88593940D01*
X140166266Y-88605268D01*
X140170368Y-88611177D01*
X140178182Y-88623460D01*
X140185475Y-88636363D01*
X140192247Y-88649886D01*
X140198498Y-88664029D01*
X140204228Y-88678792D01*
X140209438Y-88694176D01*
X140214126Y-88710179D01*
X140218293Y-88726803D01*
X140221940Y-88744047D01*
X140225065Y-88761911D01*
X140227670Y-88780395D01*
X140229754Y-88799500D01*
X140230600Y-88809284D01*
X140231316Y-88819224D01*
X140231903Y-88829319D01*
X140232358Y-88839569D01*
X140232684Y-88849974D01*
X140232879Y-88860534D01*
X140232944Y-88871249D01*
X140232944Y-89246406D01*
X139170000Y-89246406D01*
X139170000Y-89027564D01*
X139339016Y-89027564D01*
X139624291Y-89027564D01*
X139795261Y-89027564D01*
X140063928Y-89027564D01*
X140063928Y-88929134D01*
X140063806Y-88917879D01*
X140063441Y-88906982D01*
X140062831Y-88896441D01*
X140061978Y-88886258D01*
X140059541Y-88866964D01*
X140056128Y-88849099D01*
X140051740Y-88832663D01*
X140046377Y-88817656D01*
X140040039Y-88804079D01*
X140032726Y-88791931D01*
X140024438Y-88781212D01*
X140015175Y-88771922D01*
X140004937Y-88764061D01*
X139993724Y-88757630D01*
X139981535Y-88752628D01*
X139968372Y-88749055D01*
X139954234Y-88746911D01*
X139939120Y-88746196D01*
X139930721Y-88746375D01*
X139918565Y-88747311D01*
X139906941Y-88749051D01*
X139895850Y-88751593D01*
X139885291Y-88754938D01*
X139875265Y-88759087D01*
X139865771Y-88764037D01*
X139856809Y-88769791D01*
X139848380Y-88776348D01*
X139840483Y-88783707D01*
X139833119Y-88791870D01*
X139826353Y-88800732D01*
X139820253Y-88810191D01*
X139814819Y-88820246D01*
X139810049Y-88830899D01*
X139805946Y-88842148D01*
X139802507Y-88853994D01*
X139799735Y-88866437D01*
X139797627Y-88879477D01*
X139796185Y-88893113D01*
X139795409Y-88907346D01*
X139795261Y-88917166D01*
X139795261Y-89027564D01*
X139624291Y-89027564D01*
X139624291Y-88890544D01*
X139624256Y-88884845D01*
X139623971Y-88873696D01*
X139623403Y-88862877D01*
X139622550Y-88852388D01*
X139621413Y-88842229D01*
X139619991Y-88832400D01*
X139617326Y-88818276D01*
X139614020Y-88804894D01*
X139610075Y-88792255D01*
X139605491Y-88780359D01*
X139600267Y-88769206D01*
X139594403Y-88758795D01*
X139587899Y-88749127D01*
X139583265Y-88743094D01*
X139575881Y-88734773D01*
X139567978Y-88727329D01*
X139559555Y-88720760D01*
X139550613Y-88715067D01*
X139541151Y-88710250D01*
X139531170Y-88706308D01*
X139520669Y-88703243D01*
X139509649Y-88701053D01*
X139498109Y-88699740D01*
X139486050Y-88699302D01*
X139477527Y-88699497D01*
X139465183Y-88700524D01*
X139453367Y-88702431D01*
X139442079Y-88705218D01*
X139431319Y-88708885D01*
X139421088Y-88713433D01*
X139411384Y-88718860D01*
X139402208Y-88725168D01*
X139393561Y-88732356D01*
X139385441Y-88740423D01*
X139377850Y-88749371D01*
X139375461Y-88752539D01*
X139368748Y-88762496D01*
X139362718Y-88773135D01*
X139357371Y-88784458D01*
X139352706Y-88796462D01*
X139348724Y-88809150D01*
X139345425Y-88822520D01*
X139342808Y-88836573D01*
X139341443Y-88846321D01*
X139340381Y-88856372D01*
X139339622Y-88866726D01*
X139339167Y-88877384D01*
X139339016Y-88888346D01*
X139339016Y-89027564D01*
X139170000Y-89027564D01*
X139170000Y-88849023D01*
X139170082Y-88837953D01*
X139170330Y-88827030D01*
X139170742Y-88816255D01*
X139171320Y-88805627D01*
X139172063Y-88795147D01*
X139172970Y-88784814D01*
X139174043Y-88774629D01*
X139175281Y-88764591D01*
X139176684Y-88754700D01*
X139178252Y-88744957D01*
X139181883Y-88725913D01*
X139186175Y-88707458D01*
X139191127Y-88689593D01*
X139196738Y-88672318D01*
X139203010Y-88655632D01*
X139209943Y-88639536D01*
X139217535Y-88624029D01*
X139225788Y-88609112D01*
X139234701Y-88594785D01*
X139244274Y-88581047D01*
X139254508Y-88567899D01*
X139265301Y-88555418D01*
X139276554Y-88543742D01*
X139288267Y-88532871D01*
X139300440Y-88522806D01*
X139313073Y-88513545D01*
X139326166Y-88505090D01*
X139339719Y-88497441D01*
X139353731Y-88490596D01*
X139368204Y-88484557D01*
X139383136Y-88479323D01*
X139398528Y-88474894D01*
X139414380Y-88471270D01*
X139430692Y-88468452D01*
X139447463Y-88466439D01*
X139464695Y-88465231D01*
X139482386Y-88464829D01*
X139495044Y-88465097D01*
G37*
G36*
X139180990Y-87451709D02*
G01*
X139176233Y-87461500D01*
X139171943Y-87472188D01*
X139168121Y-87483774D01*
X139164767Y-87496257D01*
X139161882Y-87509637D01*
X139159464Y-87523914D01*
X139158112Y-87533931D01*
X139156968Y-87544347D01*
X139156032Y-87555161D01*
X139155304Y-87566375D01*
X139154784Y-87577987D01*
X139154472Y-87589997D01*
X139154368Y-87602407D01*
X139154617Y-87617178D01*
X139155366Y-87631481D01*
X139156613Y-87645314D01*
X139158360Y-87658678D01*
X139160605Y-87671574D01*
X139163350Y-87684000D01*
X139166593Y-87695958D01*
X139170335Y-87707447D01*
X139174577Y-87718467D01*
X139179317Y-87729017D01*
X139184556Y-87739099D01*
X139190295Y-87748712D01*
X139196532Y-87757856D01*
X139203268Y-87766532D01*
X139210503Y-87774738D01*
X139218237Y-87782475D01*
X139226471Y-87789743D01*
X139235203Y-87796543D01*
X139244434Y-87802873D01*
X139254164Y-87808735D01*
X139264393Y-87814128D01*
X139275121Y-87819051D01*
X139286348Y-87823506D01*
X139298074Y-87827492D01*
X139310299Y-87831009D01*
X139323023Y-87834057D01*
X139336246Y-87836636D01*
X139349968Y-87838746D01*
X139364189Y-87840388D01*
X139378909Y-87841560D01*
X139394128Y-87842263D01*
X139409846Y-87842498D01*
X139770348Y-87842498D01*
X139770348Y-87967550D01*
X139935945Y-87967550D01*
X139935945Y-87842498D01*
X140105938Y-87842498D01*
X140170418Y-87623656D01*
X139935945Y-87623656D01*
X139935945Y-87451709D01*
X139770348Y-87451709D01*
X139770348Y-87623656D01*
X139447948Y-87623656D01*
X139433101Y-87623283D01*
X139419211Y-87622164D01*
X139406280Y-87620299D01*
X139394306Y-87617687D01*
X139383290Y-87614330D01*
X139373232Y-87610227D01*
X139364132Y-87605377D01*
X139355990Y-87599781D01*
X139345573Y-87589989D01*
X139337312Y-87578518D01*
X139331205Y-87565368D01*
X139328331Y-87555669D01*
X139326416Y-87545224D01*
X139325458Y-87534033D01*
X139325338Y-87528157D01*
X139325720Y-87516566D01*
X139326864Y-87504844D01*
X139328773Y-87492991D01*
X139330849Y-87483414D01*
X139333413Y-87473753D01*
X139336466Y-87464008D01*
X139340008Y-87454180D01*
X139340969Y-87451709D01*
X139180990Y-87451709D01*
G37*
G36*
X139573555Y-86562769D02*
G01*
X139584471Y-86563078D01*
X139595245Y-86563595D01*
X139605878Y-86564318D01*
X139616368Y-86565247D01*
X139626717Y-86566383D01*
X139636925Y-86567726D01*
X139646991Y-86569275D01*
X139656915Y-86571031D01*
X139666697Y-86572993D01*
X139676338Y-86575162D01*
X139685837Y-86577537D01*
X139704410Y-86582908D01*
X139722416Y-86589105D01*
X139739855Y-86596127D01*
X139756728Y-86603977D01*
X139773034Y-86612652D01*
X139788773Y-86622154D01*
X139803946Y-86632481D01*
X139818552Y-86643636D01*
X139832591Y-86655616D01*
X139846064Y-86668422D01*
X139852555Y-86675104D01*
X139864920Y-86688902D01*
X139876460Y-86703278D01*
X139887177Y-86718232D01*
X139897068Y-86733765D01*
X139906136Y-86749875D01*
X139914379Y-86766564D01*
X139921798Y-86783831D01*
X139928393Y-86801676D01*
X139934163Y-86820099D01*
X139936739Y-86829527D01*
X139939109Y-86839100D01*
X139941273Y-86848818D01*
X139943230Y-86858680D01*
X139944982Y-86868686D01*
X139946528Y-86878837D01*
X139947867Y-86889133D01*
X139949001Y-86899573D01*
X139949928Y-86910158D01*
X139950649Y-86920887D01*
X139951164Y-86931761D01*
X139951474Y-86942779D01*
X139951577Y-86953942D01*
X139951472Y-86965485D01*
X139951158Y-86976880D01*
X139950634Y-86988127D01*
X139949901Y-86999226D01*
X139948959Y-87010178D01*
X139947807Y-87020981D01*
X139946446Y-87031637D01*
X139944875Y-87042144D01*
X139943095Y-87052504D01*
X139941106Y-87062716D01*
X139938907Y-87072780D01*
X139936498Y-87082696D01*
X139933881Y-87092465D01*
X139931054Y-87102085D01*
X139928017Y-87111558D01*
X139924771Y-87120882D01*
X139917651Y-87139088D01*
X139909693Y-87156702D01*
X139900897Y-87173725D01*
X139891264Y-87190156D01*
X139880793Y-87205995D01*
X139869484Y-87221243D01*
X139857338Y-87235900D01*
X139844354Y-87249965D01*
X139837574Y-87256727D01*
X139823544Y-87269607D01*
X139808885Y-87281628D01*
X139793599Y-87292791D01*
X139777685Y-87303095D01*
X139761143Y-87312540D01*
X139743974Y-87321127D01*
X139726176Y-87328855D01*
X139717042Y-87332397D01*
X139707751Y-87335724D01*
X139698303Y-87338837D01*
X139688699Y-87341735D01*
X139678937Y-87344418D01*
X139669018Y-87346887D01*
X139658942Y-87349141D01*
X139648710Y-87351180D01*
X139638320Y-87353005D01*
X139627773Y-87354615D01*
X139617070Y-87356010D01*
X139606209Y-87357191D01*
X139595192Y-87358157D01*
X139584018Y-87358908D01*
X139572686Y-87359445D01*
X139561198Y-87359767D01*
X139549553Y-87359874D01*
X139538194Y-87359770D01*
X139526985Y-87359457D01*
X139515926Y-87358936D01*
X139505017Y-87358206D01*
X139494257Y-87357268D01*
X139483647Y-87356122D01*
X139473187Y-87354766D01*
X139462877Y-87353203D01*
X139452717Y-87351431D01*
X139442706Y-87349451D01*
X139432845Y-87347262D01*
X139423134Y-87344864D01*
X139413573Y-87342259D01*
X139404162Y-87339444D01*
X139385788Y-87333190D01*
X139368014Y-87326103D01*
X139350838Y-87318181D01*
X139334262Y-87309425D01*
X139318285Y-87299836D01*
X139302908Y-87289413D01*
X139288129Y-87278156D01*
X139273950Y-87266065D01*
X139260369Y-87253140D01*
X139247533Y-87239505D01*
X139235525Y-87225285D01*
X139224345Y-87210478D01*
X139213994Y-87195086D01*
X139204470Y-87179108D01*
X139195775Y-87162545D01*
X139187907Y-87145395D01*
X139180868Y-87127660D01*
X139174657Y-87109339D01*
X139171862Y-87099959D01*
X139169274Y-87090432D01*
X139166894Y-87080759D01*
X139164720Y-87070939D01*
X139162753Y-87060973D01*
X139160993Y-87050861D01*
X139159440Y-87040602D01*
X139158095Y-87030197D01*
X139156956Y-87019645D01*
X139156024Y-87008947D01*
X139155300Y-86998102D01*
X139154782Y-86987111D01*
X139154471Y-86975973D01*
X139154368Y-86964689D01*
X139154435Y-86957606D01*
X139324849Y-86957606D01*
X139325072Y-86968891D01*
X139325738Y-86979818D01*
X139326848Y-86990386D01*
X139328402Y-87000596D01*
X139330401Y-87010448D01*
X139332844Y-87019942D01*
X139339061Y-87037855D01*
X139347056Y-87054335D01*
X139356826Y-87069381D01*
X139368373Y-87082995D01*
X139381697Y-87095176D01*
X139396797Y-87105923D01*
X139413674Y-87115238D01*
X139422778Y-87119358D01*
X139432327Y-87123120D01*
X139442320Y-87126523D01*
X139452756Y-87129568D01*
X139463637Y-87132255D01*
X139474962Y-87134584D01*
X139486732Y-87136554D01*
X139498945Y-87138166D01*
X139511602Y-87139420D01*
X139524704Y-87140316D01*
X139538250Y-87140853D01*
X139552240Y-87141032D01*
X139559015Y-87140986D01*
X139572277Y-87140612D01*
X139585153Y-87139864D01*
X139597643Y-87138742D01*
X139609749Y-87137246D01*
X139621469Y-87135376D01*
X139632803Y-87133132D01*
X139643752Y-87130514D01*
X139654315Y-87127522D01*
X139664493Y-87124156D01*
X139674286Y-87120416D01*
X139683693Y-87116302D01*
X139692715Y-87111814D01*
X139701351Y-87106952D01*
X139709602Y-87101716D01*
X139721256Y-87093161D01*
X139731950Y-87083846D01*
X139741592Y-87073852D01*
X139750182Y-87063180D01*
X139757720Y-87051830D01*
X139764207Y-87039802D01*
X139769641Y-87027095D01*
X139774024Y-87013710D01*
X139777355Y-86999646D01*
X139778991Y-86989894D01*
X139780160Y-86979840D01*
X139780861Y-86969484D01*
X139781095Y-86958827D01*
X139780878Y-86947918D01*
X139780226Y-86937355D01*
X139779139Y-86927138D01*
X139775663Y-86907744D01*
X139770448Y-86889735D01*
X139763495Y-86873111D01*
X139754803Y-86857872D01*
X139744373Y-86844019D01*
X139732205Y-86831551D01*
X139718298Y-86820469D01*
X139702653Y-86810772D01*
X139685270Y-86802460D01*
X139675927Y-86798823D01*
X139666149Y-86795533D01*
X139655936Y-86792589D01*
X139645289Y-86789992D01*
X139634207Y-86787741D01*
X139622690Y-86785836D01*
X139610740Y-86784277D01*
X139598354Y-86783065D01*
X139585534Y-86782199D01*
X139572279Y-86781680D01*
X139558590Y-86781507D01*
X139544209Y-86781679D01*
X139530285Y-86782195D01*
X139516818Y-86783055D01*
X139503807Y-86784258D01*
X139491253Y-86785806D01*
X139479155Y-86787698D01*
X139467513Y-86789933D01*
X139456328Y-86792513D01*
X139445600Y-86795437D01*
X139435328Y-86798704D01*
X139425513Y-86802315D01*
X139416154Y-86806271D01*
X139398806Y-86815213D01*
X139383285Y-86825532D01*
X139369589Y-86837226D01*
X139357719Y-86850296D01*
X139347676Y-86864741D01*
X139339458Y-86880563D01*
X139333067Y-86897760D01*
X139328502Y-86916333D01*
X139326904Y-86926135D01*
X139325763Y-86936281D01*
X139325078Y-86946772D01*
X139324849Y-86957606D01*
X139154435Y-86957606D01*
X139154476Y-86953193D01*
X139154800Y-86941847D01*
X139155340Y-86930650D01*
X139156097Y-86919603D01*
X139157069Y-86908706D01*
X139158258Y-86897959D01*
X139159662Y-86887362D01*
X139161283Y-86876914D01*
X139163120Y-86866616D01*
X139165173Y-86856468D01*
X139167442Y-86846470D01*
X139169927Y-86836622D01*
X139172628Y-86826923D01*
X139175546Y-86817374D01*
X139178679Y-86807975D01*
X139182028Y-86798726D01*
X139189376Y-86780677D01*
X139197587Y-86763227D01*
X139206664Y-86746376D01*
X139216604Y-86730124D01*
X139227409Y-86714472D01*
X139239078Y-86699418D01*
X139251612Y-86684964D01*
X139265010Y-86671109D01*
X139279138Y-86657977D01*
X139293861Y-86645693D01*
X139309180Y-86634255D01*
X139325094Y-86623665D01*
X139341603Y-86613922D01*
X139358708Y-86605026D01*
X139376408Y-86596978D01*
X139385481Y-86593271D01*
X139394703Y-86589776D01*
X139404074Y-86586493D01*
X139413594Y-86583422D01*
X139423262Y-86580563D01*
X139433080Y-86577915D01*
X139443046Y-86575479D01*
X139453161Y-86573255D01*
X139463425Y-86571243D01*
X139473838Y-86569443D01*
X139484399Y-86567854D01*
X139495110Y-86566478D01*
X139505969Y-86565313D01*
X139516977Y-86564360D01*
X139528134Y-86563618D01*
X139539440Y-86563089D01*
X139550894Y-86562771D01*
X139562498Y-86562665D01*
X139573555Y-86562769D01*
G37*
G36*
X139628688Y-85105024D02*
G01*
X139599506Y-85105459D01*
X139571250Y-85106763D01*
X139543921Y-85108937D01*
X139517519Y-85111981D01*
X139492043Y-85115894D01*
X139467493Y-85120677D01*
X139443870Y-85126330D01*
X139421173Y-85132852D01*
X139399402Y-85140244D01*
X139378558Y-85148506D01*
X139358640Y-85157637D01*
X139339649Y-85167638D01*
X139321584Y-85178508D01*
X139304446Y-85190248D01*
X139288234Y-85202858D01*
X139272948Y-85216338D01*
X139258589Y-85230687D01*
X139245156Y-85245905D01*
X139232649Y-85261994D01*
X139221069Y-85278952D01*
X139210415Y-85296779D01*
X139200688Y-85315476D01*
X139191887Y-85335043D01*
X139184013Y-85355480D01*
X139177065Y-85376786D01*
X139171043Y-85398962D01*
X139165948Y-85422007D01*
X139161779Y-85445922D01*
X139158537Y-85470707D01*
X139156221Y-85496361D01*
X139154831Y-85522885D01*
X139154368Y-85550279D01*
X139154819Y-85576741D01*
X139156172Y-85602362D01*
X139158427Y-85627144D01*
X139161585Y-85651086D01*
X139165644Y-85674188D01*
X139170605Y-85696449D01*
X139176469Y-85717871D01*
X139183234Y-85738452D01*
X139190902Y-85758194D01*
X139199472Y-85777095D01*
X139208944Y-85795157D01*
X139219317Y-85812378D01*
X139230593Y-85828759D01*
X139242771Y-85844300D01*
X139255852Y-85859001D01*
X139269834Y-85872862D01*
X139284718Y-85885883D01*
X139300504Y-85898064D01*
X139317193Y-85909405D01*
X139334783Y-85919906D01*
X139353276Y-85929567D01*
X139372670Y-85938387D01*
X139392967Y-85946368D01*
X139414166Y-85953508D01*
X139436267Y-85959809D01*
X139459270Y-85965269D01*
X139483175Y-85969890D01*
X139507982Y-85973670D01*
X139533691Y-85976610D01*
X139560302Y-85978710D01*
X139587816Y-85979970D01*
X139616231Y-85980390D01*
X140232944Y-85980390D01*
X140232944Y-85745917D01*
X139615498Y-85745917D01*
X139599210Y-85745717D01*
X139583438Y-85745117D01*
X139568183Y-85744116D01*
X139553446Y-85742715D01*
X139539225Y-85740914D01*
X139525522Y-85738713D01*
X139512335Y-85736111D01*
X139499666Y-85733110D01*
X139487514Y-85729708D01*
X139475879Y-85725905D01*
X139464761Y-85721703D01*
X139454161Y-85717100D01*
X139444077Y-85712097D01*
X139434511Y-85706694D01*
X139425461Y-85700891D01*
X139416929Y-85694687D01*
X139408914Y-85688083D01*
X139401416Y-85681079D01*
X139394435Y-85673675D01*
X139387971Y-85665870D01*
X139382024Y-85657666D01*
X139376595Y-85649061D01*
X139371682Y-85640055D01*
X139367287Y-85630650D01*
X139363408Y-85620844D01*
X139360047Y-85610638D01*
X139357203Y-85600032D01*
X139354876Y-85589025D01*
X139353066Y-85577619D01*
X139351773Y-85565812D01*
X139350998Y-85553605D01*
X139350739Y-85540997D01*
X139350988Y-85528600D01*
X139351735Y-85516597D01*
X139352980Y-85504987D01*
X139354723Y-85493771D01*
X139356965Y-85482948D01*
X139359704Y-85472519D01*
X139362941Y-85462483D01*
X139366676Y-85452841D01*
X139370909Y-85443592D01*
X139375641Y-85434737D01*
X139380870Y-85426276D01*
X139386597Y-85418208D01*
X139392822Y-85410534D01*
X139399546Y-85403253D01*
X139406767Y-85396366D01*
X139414487Y-85389872D01*
X139422704Y-85383772D01*
X139431419Y-85378065D01*
X139440633Y-85372752D01*
X139450344Y-85367833D01*
X139460554Y-85363307D01*
X139471262Y-85359175D01*
X139482467Y-85355436D01*
X139494171Y-85352091D01*
X139506372Y-85349139D01*
X139519072Y-85346581D01*
X139532270Y-85344416D01*
X139545966Y-85342646D01*
X139560159Y-85341268D01*
X139574851Y-85340284D01*
X139590041Y-85339694D01*
X139605729Y-85339497D01*
X140232944Y-85339497D01*
X140232944Y-85105024D01*
X139628688Y-85105024D01*
G37*
G36*
X140232944Y-84347871D02*
G01*
X140232944Y-84629239D01*
X139170000Y-85020027D01*
X139170000Y-84771632D01*
X139416929Y-84692498D01*
X139416929Y-84356664D01*
X139592051Y-84356664D01*
X139592051Y-84642916D01*
X139960369Y-84522505D01*
X139971112Y-84519120D01*
X139981970Y-84516048D01*
X139992941Y-84513288D01*
X140004028Y-84510842D01*
X140015229Y-84508709D01*
X140026544Y-84506888D01*
X140037974Y-84505381D01*
X140049518Y-84504187D01*
X140049518Y-84488555D01*
X140045968Y-84488243D01*
X140035581Y-84487231D01*
X140025589Y-84486102D01*
X140012881Y-84484417D01*
X140000875Y-84482526D01*
X139989571Y-84480429D01*
X139978969Y-84478126D01*
X139969070Y-84475617D01*
X139957683Y-84472191D01*
X139592051Y-84356664D01*
X139416929Y-84356664D01*
X139416929Y-84302930D01*
X139170000Y-84222575D01*
X139170000Y-83972714D01*
X140232944Y-84347871D01*
G37*
G36*
X139480921Y-83184054D02*
G01*
X139489269Y-83189610D01*
X139497401Y-83195135D01*
X139513016Y-83206093D01*
X139527764Y-83216927D01*
X139541646Y-83227636D01*
X139554661Y-83238221D01*
X139566810Y-83248683D01*
X139578093Y-83259020D01*
X139588510Y-83269234D01*
X139598060Y-83279323D01*
X139606744Y-83289288D01*
X139614562Y-83299130D01*
X139621513Y-83308847D01*
X139627598Y-83318440D01*
X139632817Y-83327909D01*
X139637169Y-83337254D01*
X139640655Y-83346475D01*
X139643342Y-83346475D01*
X139647522Y-83332801D01*
X139652062Y-83319498D01*
X139656963Y-83306567D01*
X139662225Y-83294009D01*
X139667848Y-83281823D01*
X139673831Y-83270008D01*
X139680174Y-83258566D01*
X139686878Y-83247496D01*
X139693943Y-83236798D01*
X139701369Y-83226472D01*
X139709155Y-83216518D01*
X139717302Y-83206936D01*
X139725809Y-83197727D01*
X139734678Y-83188889D01*
X139743906Y-83180424D01*
X139753496Y-83172330D01*
X139763418Y-83164670D01*
X139773585Y-83157504D01*
X139783995Y-83150832D01*
X139794651Y-83144655D01*
X139805550Y-83138971D01*
X139816693Y-83133782D01*
X139828081Y-83129087D01*
X139839713Y-83124886D01*
X139851590Y-83121180D01*
X139863710Y-83117967D01*
X139876075Y-83115249D01*
X139888684Y-83113025D01*
X139901537Y-83111295D01*
X139914635Y-83110060D01*
X139927977Y-83109318D01*
X139941563Y-83109071D01*
X139959489Y-83109441D01*
X139976847Y-83110550D01*
X139993636Y-83112399D01*
X140009855Y-83114987D01*
X140025506Y-83118314D01*
X140040587Y-83122381D01*
X140055099Y-83127187D01*
X140069042Y-83132732D01*
X140082416Y-83139017D01*
X140095221Y-83146042D01*
X140107457Y-83153806D01*
X140119123Y-83162309D01*
X140130221Y-83171551D01*
X140140749Y-83181533D01*
X140150709Y-83192255D01*
X140160099Y-83203715D01*
X140168920Y-83215916D01*
X140177172Y-83228855D01*
X140184855Y-83242534D01*
X140191969Y-83256953D01*
X140198514Y-83272111D01*
X140204489Y-83288008D01*
X140209896Y-83304645D01*
X140214733Y-83322021D01*
X140219001Y-83340136D01*
X140222700Y-83358991D01*
X140225831Y-83378585D01*
X140228392Y-83398919D01*
X140230383Y-83419992D01*
X140231806Y-83441805D01*
X140232660Y-83464356D01*
X140232944Y-83487648D01*
X140232944Y-83859385D01*
X139170000Y-83859385D01*
X139170000Y-83640544D01*
X139575198Y-83640544D01*
X139575198Y-83633461D01*
X139748367Y-83633461D01*
X140060509Y-83633461D01*
X140060509Y-83517201D01*
X140060365Y-83506517D01*
X140059935Y-83496172D01*
X140058212Y-83476500D01*
X140055340Y-83458185D01*
X140051319Y-83441226D01*
X140046150Y-83425624D01*
X140039832Y-83411379D01*
X140032366Y-83398491D01*
X140023750Y-83386959D01*
X140013986Y-83376783D01*
X140003074Y-83367965D01*
X139991012Y-83360503D01*
X139977802Y-83354398D01*
X139963443Y-83349650D01*
X139947936Y-83346258D01*
X139931280Y-83344223D01*
X139913475Y-83343545D01*
X139904742Y-83343735D01*
X139891983Y-83344737D01*
X139879632Y-83346598D01*
X139867688Y-83349317D01*
X139856153Y-83352894D01*
X139845025Y-83357331D01*
X139834306Y-83362626D01*
X139823994Y-83368780D01*
X139814090Y-83375792D01*
X139804594Y-83383663D01*
X139795505Y-83392393D01*
X139787081Y-83401785D01*
X139779486Y-83411736D01*
X139772719Y-83422245D01*
X139766780Y-83433311D01*
X139761670Y-83444936D01*
X139757389Y-83457119D01*
X139753937Y-83469861D01*
X139751313Y-83483160D01*
X139749517Y-83497017D01*
X139748551Y-83511433D01*
X139748367Y-83521353D01*
X139748367Y-83633461D01*
X139575198Y-83633461D01*
X139575198Y-83569713D01*
X139574817Y-83560253D01*
X139573266Y-83548610D01*
X139570523Y-83537169D01*
X139566588Y-83525931D01*
X139561460Y-83514896D01*
X139556499Y-83506214D01*
X139550774Y-83497662D01*
X139549204Y-83495521D01*
X139541745Y-83486587D01*
X139534914Y-83479496D01*
X139527022Y-83472070D01*
X139518069Y-83464309D01*
X139508057Y-83456213D01*
X139496983Y-83447783D01*
X139489012Y-83441976D01*
X139480570Y-83436021D01*
X139471656Y-83429917D01*
X139462270Y-83423664D01*
X139452414Y-83417262D01*
X139442086Y-83410711D01*
X139170000Y-83244382D01*
X139170000Y-82984019D01*
X139480921Y-83184054D01*
G37*
G36*
X140047564Y-82163363D02*
G01*
X140047564Y-82460362D01*
X139170000Y-82460362D01*
X139170000Y-82694836D01*
X140047564Y-82694836D01*
X140047564Y-82991835D01*
X140232944Y-82991835D01*
X140232944Y-82163363D01*
X140047564Y-82163363D01*
G37*
D10*
G36*
X147623778Y-85241448D02*
G01*
X147573709Y-85241448D01*
X147567435Y-85241364D01*
X147561360Y-85241112D01*
X147555485Y-85240692D01*
X147549809Y-85240104D01*
X147544332Y-85239349D01*
X147539054Y-85238425D01*
X147533976Y-85237334D01*
X147529096Y-85236074D01*
X147524416Y-85234647D01*
X147515653Y-85231289D01*
X147507686Y-85227259D01*
X147500516Y-85222557D01*
X147494143Y-85217184D01*
X147488566Y-85211139D01*
X147483786Y-85204422D01*
X147479803Y-85197033D01*
X147476617Y-85188973D01*
X147474227Y-85180242D01*
X147472633Y-85170838D01*
X147472135Y-85165885D01*
X147471837Y-85160763D01*
X147471737Y-85155474D01*
X147471836Y-85150305D01*
X147472131Y-85145300D01*
X147473313Y-85135782D01*
X147475283Y-85126921D01*
X147478042Y-85118715D01*
X147481588Y-85111167D01*
X147485922Y-85104275D01*
X147491045Y-85098039D01*
X147496955Y-85092459D01*
X147503654Y-85087536D01*
X147511140Y-85083270D01*
X147519415Y-85079660D01*
X147528478Y-85076706D01*
X147533305Y-85075475D01*
X147538329Y-85074408D01*
X147543550Y-85073506D01*
X147548967Y-85072767D01*
X147554582Y-85072193D01*
X147560394Y-85071783D01*
X147566403Y-85071537D01*
X147572609Y-85071454D01*
X147623778Y-85071454D01*
X147623778Y-85241448D01*
G37*
G36*
X146397923Y-85225816D02*
G01*
X146341870Y-85225816D01*
X146336909Y-85225724D01*
X146329702Y-85225241D01*
X146322773Y-85224343D01*
X146316123Y-85223031D01*
X146309753Y-85221305D01*
X146303661Y-85219164D01*
X146297849Y-85216609D01*
X146292315Y-85213640D01*
X146287061Y-85210256D01*
X146282086Y-85206459D01*
X146277390Y-85202247D01*
X146273025Y-85197702D01*
X146269089Y-85192954D01*
X146265583Y-85188002D01*
X146262506Y-85182846D01*
X146259858Y-85177487D01*
X146257640Y-85171923D01*
X146255851Y-85166155D01*
X146254492Y-85160183D01*
X146253562Y-85154008D01*
X146253061Y-85147628D01*
X146252965Y-85143262D01*
X146253304Y-85134359D01*
X146254322Y-85126031D01*
X146256018Y-85118278D01*
X146258392Y-85111098D01*
X146261445Y-85104493D01*
X146265176Y-85098462D01*
X146269585Y-85093006D01*
X146274672Y-85088124D01*
X146280438Y-85083816D01*
X146286883Y-85080083D01*
X146294005Y-85076924D01*
X146301806Y-85074340D01*
X146310286Y-85072329D01*
X146319443Y-85070893D01*
X146329279Y-85070032D01*
X146334452Y-85069817D01*
X146339794Y-85069745D01*
X146397923Y-85069745D01*
X146397923Y-85225816D01*
G37*
G36*
X147958902Y-85736429D02*
G01*
X145851774Y-85736429D01*
X145851774Y-85515000D01*
X146073203Y-85515000D01*
X146203384Y-85515000D01*
X146286549Y-85378956D01*
X146289824Y-85373792D01*
X146293025Y-85368864D01*
X146296151Y-85364171D01*
X146299204Y-85359714D01*
X146302181Y-85355493D01*
X146305084Y-85351508D01*
X146309300Y-85345971D01*
X146313348Y-85340965D01*
X146317228Y-85336488D01*
X146320941Y-85332542D01*
X146324487Y-85329127D01*
X146328954Y-85325397D01*
X146330024Y-85324612D01*
X146334300Y-85321750D01*
X146338641Y-85319269D01*
X146344159Y-85316705D01*
X146349778Y-85314738D01*
X146355498Y-85313366D01*
X146361319Y-85312591D01*
X146366050Y-85312400D01*
X146401465Y-85312400D01*
X146401465Y-85515000D01*
X146510886Y-85515000D01*
X146510886Y-84983527D01*
X146581228Y-84983527D01*
X146723866Y-85515000D01*
X146850628Y-85515000D01*
X146941852Y-85168419D01*
X146943174Y-85163131D01*
X146944390Y-85157800D01*
X146945501Y-85152426D01*
X146946506Y-85147009D01*
X146947407Y-85141550D01*
X146948202Y-85136047D01*
X146948892Y-85130502D01*
X146949477Y-85124913D01*
X146949957Y-85119282D01*
X146950332Y-85113607D01*
X146950523Y-85109801D01*
X146951866Y-85109801D01*
X146952532Y-85116375D01*
X146953247Y-85122726D01*
X146954012Y-85128854D01*
X146954826Y-85134759D01*
X146955689Y-85140441D01*
X146956602Y-85145899D01*
X146957564Y-85151134D01*
X146958575Y-85156146D01*
X146959636Y-85160934D01*
X146961127Y-85166972D01*
X146961514Y-85168419D01*
X147053838Y-85515000D01*
X147184263Y-85515000D01*
X147281130Y-85150956D01*
X147354501Y-85150956D01*
X147354553Y-85155474D01*
X147354559Y-85156015D01*
X147354732Y-85161011D01*
X147355022Y-85165944D01*
X147355428Y-85170814D01*
X147356587Y-85180363D01*
X147358210Y-85189660D01*
X147360297Y-85198705D01*
X147362847Y-85207496D01*
X147365861Y-85216034D01*
X147369338Y-85224320D01*
X147373280Y-85232353D01*
X147377685Y-85240133D01*
X147382553Y-85247660D01*
X147387885Y-85254934D01*
X147393681Y-85261956D01*
X147399941Y-85268724D01*
X147406665Y-85275240D01*
X147413852Y-85281503D01*
X147421387Y-85287425D01*
X147429155Y-85292948D01*
X147437156Y-85298073D01*
X147445389Y-85302798D01*
X147453856Y-85307125D01*
X147462555Y-85311053D01*
X147471487Y-85314582D01*
X147480652Y-85317712D01*
X147490050Y-85320444D01*
X147494836Y-85321660D01*
X147499680Y-85322777D01*
X147504583Y-85323793D01*
X147509543Y-85324710D01*
X147514562Y-85325528D01*
X147519639Y-85326246D01*
X147524775Y-85326864D01*
X147529968Y-85327382D01*
X147535220Y-85327800D01*
X147540530Y-85328119D01*
X147545898Y-85328339D01*
X147551324Y-85328458D01*
X147556809Y-85328478D01*
X147562351Y-85328398D01*
X147620237Y-85328398D01*
X147620237Y-85515000D01*
X147737473Y-85515000D01*
X147737473Y-84983527D01*
X147553803Y-84983527D01*
X147541541Y-84983691D01*
X147529668Y-84984181D01*
X147518185Y-84984999D01*
X147507091Y-84986143D01*
X147496387Y-84987615D01*
X147486071Y-84989413D01*
X147476145Y-84991539D01*
X147466608Y-84993991D01*
X147457460Y-84996771D01*
X147448702Y-84999878D01*
X147440333Y-85003311D01*
X147432353Y-85007072D01*
X147424762Y-85011159D01*
X147417561Y-85015574D01*
X147410749Y-85020316D01*
X147404326Y-85025384D01*
X147398293Y-85030780D01*
X147392648Y-85036502D01*
X147387393Y-85042552D01*
X147382527Y-85048929D01*
X147378051Y-85055632D01*
X147373964Y-85062663D01*
X147370266Y-85070021D01*
X147366957Y-85077706D01*
X147364037Y-85085717D01*
X147361507Y-85094056D01*
X147359366Y-85102722D01*
X147357615Y-85111714D01*
X147356252Y-85121034D01*
X147355279Y-85130681D01*
X147354695Y-85140655D01*
X147354501Y-85150956D01*
X147281130Y-85150956D01*
X147325680Y-84983527D01*
X147201116Y-84983527D01*
X147121859Y-85343663D01*
X147120625Y-85349779D01*
X147119761Y-85354618D01*
X147118952Y-85359675D01*
X147118196Y-85364948D01*
X147117493Y-85370438D01*
X147116845Y-85376145D01*
X147116250Y-85382069D01*
X147115708Y-85388209D01*
X147115221Y-85394567D01*
X147114787Y-85401141D01*
X147114654Y-85403381D01*
X147114268Y-85398068D01*
X147113751Y-85392663D01*
X147113103Y-85387166D01*
X147112324Y-85381576D01*
X147111414Y-85375894D01*
X147110374Y-85370120D01*
X147109202Y-85364254D01*
X147107899Y-85358295D01*
X147106466Y-85352244D01*
X147104901Y-85346100D01*
X147103785Y-85341953D01*
X147003157Y-84983527D01*
X146880547Y-84983527D01*
X146789078Y-85346350D01*
X146787712Y-85351958D01*
X146786422Y-85357974D01*
X146785209Y-85364399D01*
X146784349Y-85369486D01*
X146783531Y-85374802D01*
X146782757Y-85380348D01*
X146782026Y-85386123D01*
X146781337Y-85392129D01*
X146780692Y-85398364D01*
X146780286Y-85402648D01*
X146778576Y-85402648D01*
X146778282Y-85397073D01*
X146777905Y-85391521D01*
X146777444Y-85385993D01*
X146776899Y-85380488D01*
X146776270Y-85375008D01*
X146775558Y-85369550D01*
X146774762Y-85364117D01*
X146773882Y-85358707D01*
X146772918Y-85353321D01*
X146771871Y-85347958D01*
X146771127Y-85344396D01*
X146698464Y-84983527D01*
X146581228Y-84983527D01*
X146510886Y-84983527D01*
X146325017Y-84983527D01*
X146313371Y-84983669D01*
X146302095Y-84984096D01*
X146291189Y-84984808D01*
X146280653Y-84985803D01*
X146270486Y-84987084D01*
X146260689Y-84988649D01*
X146251261Y-84990499D01*
X146242203Y-84992633D01*
X146233515Y-84995051D01*
X146225197Y-84997755D01*
X146217248Y-85000742D01*
X146209669Y-85004015D01*
X146202460Y-85007572D01*
X146195621Y-85011413D01*
X146189151Y-85015539D01*
X146183051Y-85019950D01*
X146177320Y-85024645D01*
X146171960Y-85029625D01*
X146166969Y-85034889D01*
X146162347Y-85040438D01*
X146158096Y-85046271D01*
X146154214Y-85052389D01*
X146150702Y-85058791D01*
X146147559Y-85065478D01*
X146144786Y-85072450D01*
X146142383Y-85079706D01*
X146140350Y-85087246D01*
X146138686Y-85095072D01*
X146137392Y-85103181D01*
X146136468Y-85111576D01*
X146135914Y-85120255D01*
X146135729Y-85129218D01*
X146135852Y-85136011D01*
X146136223Y-85142682D01*
X146136278Y-85143262D01*
X146136841Y-85149231D01*
X146137706Y-85155657D01*
X146138818Y-85161962D01*
X146140177Y-85168144D01*
X146141783Y-85174204D01*
X146143636Y-85180143D01*
X146145736Y-85185959D01*
X146148084Y-85191653D01*
X146150679Y-85197224D01*
X146153520Y-85202674D01*
X146156609Y-85208002D01*
X146159945Y-85213207D01*
X146163528Y-85218290D01*
X146167358Y-85223251D01*
X146171405Y-85228046D01*
X146175638Y-85232660D01*
X146180056Y-85237095D01*
X146184661Y-85241348D01*
X146189452Y-85245422D01*
X146194429Y-85249315D01*
X146199592Y-85253028D01*
X146204941Y-85256560D01*
X146210476Y-85259912D01*
X146216197Y-85263084D01*
X146222104Y-85266075D01*
X146228198Y-85268887D01*
X146234477Y-85271518D01*
X146240942Y-85273968D01*
X146247593Y-85276238D01*
X146254431Y-85278328D01*
X146254431Y-85279672D01*
X146249820Y-85281415D01*
X146245148Y-85283591D01*
X146240413Y-85286200D01*
X146235616Y-85289243D01*
X146230758Y-85292718D01*
X146225837Y-85296627D01*
X146220855Y-85300969D01*
X146215810Y-85305744D01*
X146210703Y-85310953D01*
X146205534Y-85316594D01*
X146200304Y-85322669D01*
X146195011Y-85329176D01*
X146189656Y-85336117D01*
X146184240Y-85343491D01*
X146178761Y-85351299D01*
X146175998Y-85355365D01*
X146173220Y-85359539D01*
X146073203Y-85515000D01*
X145851774Y-85515000D01*
X145851774Y-84762098D01*
X147958902Y-84762098D01*
X147958902Y-85736429D01*
G37*
%LPC*%
D13*
X146290000Y-79240000D03*
X140510000Y-79240000D03*
D14*
X147719999Y-79769999D03*
D15*
X147719999Y-75589999D03*
D14*
X139079999Y-79769999D03*
D15*
X139079999Y-75589999D03*
M02*
