%TF.GenerationSoftware,KiCad,Pcbnew,(7.0.0)*%
%TF.CreationDate,2023-06-07T22:18:09+08:00*%
%TF.ProjectId,USB2UART,55534232-5541-4525-942e-6b696361645f,rev?*%
%TF.SameCoordinates,Original*%
%TF.FileFunction,Copper,L2,Bot*%
%TF.FilePolarity,Positive*%
%FSLAX46Y46*%
G04 Gerber Fmt 4.6, Leading zero omitted, Abs format (unit mm)*
G04 Created by KiCad (PCBNEW (7.0.0)) date 2023-06-07 22:18:09*
%MOMM*%
%LPD*%
G01*
G04 APERTURE LIST*
%TA.AperFunction,ComponentPad*%
%ADD10O,1.000000X2.100000*%
%TD*%
%TA.AperFunction,ComponentPad*%
%ADD11O,1.000000X1.600000*%
%TD*%
%TA.AperFunction,ViaPad*%
%ADD12C,0.500000*%
%TD*%
%TA.AperFunction,Conductor*%
%ADD13C,0.300000*%
%TD*%
%TA.AperFunction,Conductor*%
%ADD14C,0.500000*%
%TD*%
%TA.AperFunction,Conductor*%
%ADD15C,0.100000*%
%TD*%
G04 APERTURE END LIST*
D10*
X147719999Y-79769999D03*
D11*
X147719999Y-75589999D03*
D10*
X139079999Y-79769999D03*
D11*
X139079999Y-75589999D03*
D12*
X140050000Y-84200000D03*
X142900000Y-94150000D03*
X147100000Y-91400000D03*
X147550000Y-96950000D03*
X145000000Y-83900000D03*
X139350000Y-81300000D03*
X141400000Y-91300000D03*
X146000000Y-93650000D03*
X139550000Y-91850000D03*
X145100000Y-91300000D03*
X139250000Y-85300000D03*
X144350000Y-89250000D03*
X145700000Y-78000000D03*
X139150000Y-84150000D03*
X139250000Y-88450000D03*
X141650000Y-83400000D03*
X139250000Y-86800000D03*
X139250000Y-96900000D03*
X147400000Y-89250000D03*
X140150000Y-86800000D03*
X143600000Y-90050000D03*
X143850000Y-84250000D03*
X140150000Y-93100000D03*
X143200000Y-77400000D03*
X146200000Y-95350000D03*
X146200000Y-92400000D03*
X146300000Y-84200000D03*
X142050000Y-96950000D03*
X146750000Y-81850000D03*
X143650000Y-85250000D03*
X144400000Y-87650000D03*
X146050000Y-83200000D03*
X143900000Y-83400000D03*
X142750000Y-87700000D03*
X140650000Y-95350000D03*
X139250000Y-89800000D03*
X138650000Y-92950000D03*
X144800000Y-96950000D03*
X145950000Y-87650000D03*
X140900000Y-78150000D03*
X138900000Y-81900000D03*
X147350000Y-86000000D03*
X140550000Y-91850000D03*
X141900000Y-94100000D03*
X140499999Y-88867952D03*
X147350000Y-87650000D03*
X142900000Y-91300000D03*
X141000000Y-88350000D03*
X144900000Y-94150000D03*
X143900000Y-94150000D03*
X141500000Y-88867951D03*
X144150000Y-79500000D03*
X143150000Y-79500000D03*
D13*
X140600000Y-91850000D02*
X141900000Y-93150000D01*
X141900000Y-93150000D02*
X141900000Y-94100000D01*
D14*
X140499999Y-88867952D02*
X140300000Y-88667953D01*
X140300000Y-88667953D02*
X140300000Y-88060050D01*
X140300000Y-88060050D02*
X142360050Y-86000000D01*
X142360050Y-86000000D02*
X147350000Y-86000000D01*
D13*
X140550000Y-91850000D02*
X140600000Y-91850000D01*
D14*
X142900000Y-91300000D02*
X143700000Y-91300000D01*
X143700000Y-91300000D02*
X147350000Y-87650000D01*
D15*
X142400000Y-91400000D02*
X142400000Y-91507107D01*
X144400000Y-91950000D02*
X144900000Y-92450000D01*
X144900000Y-92450000D02*
X144900000Y-94150000D01*
X142400000Y-91507107D02*
X142842893Y-91950000D01*
X141000000Y-88350000D02*
X141689156Y-88350000D01*
X142400000Y-89060844D02*
X142400000Y-91400000D01*
X142842893Y-91950000D02*
X144400000Y-91950000D01*
X141689156Y-88350000D02*
X142400000Y-89060844D01*
X143900000Y-92550000D02*
X143900000Y-94150000D01*
X142100000Y-91631371D02*
X142718629Y-92250000D01*
X142718629Y-92250000D02*
X143600000Y-92250000D01*
X143600000Y-92250000D02*
X143900000Y-92550000D01*
X142100000Y-89467951D02*
X142100000Y-91631371D01*
X141500000Y-88867951D02*
X142100000Y-89467951D01*
X143150000Y-79500000D02*
X144150000Y-79500000D01*
%TA.AperFunction,Conductor*%
G36*
X148256920Y-72701279D02*
G01*
X148275214Y-72703341D01*
X148277478Y-72703617D01*
X148355109Y-72713837D01*
X148370968Y-72716989D01*
X148372927Y-72717514D01*
X148381791Y-72720246D01*
X148413106Y-72731204D01*
X148419551Y-72733664D01*
X148472185Y-72755465D01*
X148490698Y-72765029D01*
X148523053Y-72785359D01*
X148532563Y-72791974D01*
X148574982Y-72824523D01*
X148587172Y-72835214D01*
X148614778Y-72862820D01*
X148625473Y-72875015D01*
X148658024Y-72917437D01*
X148664641Y-72926949D01*
X148684966Y-72959295D01*
X148694535Y-72977817D01*
X148716322Y-73030417D01*
X148718801Y-73036914D01*
X148729743Y-73068184D01*
X148732467Y-73077008D01*
X148732988Y-73078950D01*
X148736162Y-73094897D01*
X148746376Y-73172487D01*
X148746656Y-73174779D01*
X148748719Y-73193077D01*
X148749500Y-73206969D01*
X148749500Y-81898431D01*
X148740061Y-81945884D01*
X148713181Y-81986112D01*
X148008060Y-82691229D01*
X148008055Y-82691235D01*
X147999715Y-82699576D01*
X147999617Y-82699617D01*
X147999576Y-82699715D01*
X147999576Y-82699716D01*
X147999458Y-82700000D01*
X147999500Y-82700101D01*
X147999500Y-82712051D01*
X147999500Y-85766446D01*
X147980984Y-85831631D01*
X147930967Y-85877349D01*
X147864385Y-85889947D01*
X147801122Y-85865662D01*
X147760072Y-85811748D01*
X147747950Y-85780861D01*
X147747946Y-85780854D01*
X147744552Y-85772206D01*
X147738757Y-85764939D01*
X147737769Y-85763228D01*
X147735996Y-85760756D01*
X147732882Y-85753937D01*
X147727076Y-85747237D01*
X147727072Y-85747230D01*
X147698127Y-85713827D01*
X147694931Y-85709984D01*
X147659879Y-85666030D01*
X147652202Y-85660795D01*
X147652068Y-85660671D01*
X147648049Y-85656033D01*
X147640585Y-85651236D01*
X147600124Y-85625233D01*
X147597312Y-85623371D01*
X147555352Y-85594763D01*
X147555349Y-85594761D01*
X147547673Y-85589528D01*
X147541696Y-85587684D01*
X147539069Y-85585996D01*
X147532504Y-85584068D01*
X147532498Y-85584066D01*
X147484510Y-85569976D01*
X147480685Y-85568853D01*
X147479096Y-85568374D01*
X147426783Y-85552238D01*
X147426774Y-85552236D01*
X147417902Y-85549500D01*
X147408613Y-85549500D01*
X142392311Y-85549500D01*
X142378428Y-85548720D01*
X142352245Y-85545770D01*
X142343015Y-85544730D01*
X142333893Y-85546455D01*
X142333885Y-85546456D01*
X142286832Y-85555358D01*
X142282268Y-85556134D01*
X142234944Y-85563268D01*
X142234943Y-85563268D01*
X142225763Y-85564652D01*
X142218026Y-85568377D01*
X142209579Y-85569976D01*
X142201369Y-85574314D01*
X142201369Y-85574315D01*
X142159013Y-85596700D01*
X142154883Y-85598784D01*
X142103408Y-85623575D01*
X142097109Y-85629418D01*
X142089513Y-85633434D01*
X142082952Y-85639994D01*
X142082945Y-85640000D01*
X142049108Y-85673837D01*
X142045772Y-85677051D01*
X142010665Y-85709626D01*
X142010661Y-85709630D01*
X142003856Y-85715945D01*
X142000387Y-85721951D01*
X141995289Y-85727656D01*
X140004263Y-87718682D01*
X139993898Y-87727945D01*
X139973297Y-87744374D01*
X139973291Y-87744379D01*
X139966030Y-87750171D01*
X139960797Y-87757845D01*
X139960796Y-87757847D01*
X139933824Y-87797406D01*
X139931144Y-87801182D01*
X139902724Y-87839691D01*
X139902721Y-87839696D01*
X139897207Y-87847168D01*
X139894370Y-87855274D01*
X139889528Y-87862377D01*
X139886791Y-87871249D01*
X139886788Y-87871256D01*
X139872672Y-87917018D01*
X139871225Y-87921417D01*
X139857544Y-87960518D01*
X139852354Y-87975351D01*
X139852032Y-87983936D01*
X139849500Y-87992148D01*
X139849500Y-88001435D01*
X139849500Y-88049312D01*
X139849413Y-88053949D01*
X139847623Y-88101769D01*
X139847623Y-88101773D01*
X139847276Y-88111060D01*
X139849071Y-88117762D01*
X139849500Y-88125392D01*
X139849500Y-88635692D01*
X139848720Y-88649575D01*
X139845770Y-88675753D01*
X139845770Y-88675756D01*
X139844730Y-88684988D01*
X139846457Y-88694115D01*
X139855356Y-88741150D01*
X139856132Y-88745718D01*
X139863267Y-88793054D01*
X139864652Y-88802240D01*
X139868379Y-88809979D01*
X139869977Y-88818425D01*
X139874321Y-88826644D01*
X139896687Y-88868963D01*
X139898777Y-88873102D01*
X139919544Y-88916226D01*
X139919546Y-88916229D01*
X139923575Y-88924595D01*
X139929417Y-88930892D01*
X139933434Y-88938491D01*
X139940004Y-88945061D01*
X139973845Y-88978902D01*
X139977063Y-88982242D01*
X140015945Y-89024147D01*
X140021950Y-89027614D01*
X140027648Y-89032705D01*
X140166932Y-89171988D01*
X140172965Y-89178468D01*
X140201950Y-89211919D01*
X140240845Y-89236915D01*
X140247426Y-89241452D01*
X140287117Y-89270745D01*
X140295888Y-89273813D01*
X140297675Y-89274758D01*
X140302158Y-89276562D01*
X140303469Y-89277161D01*
X140310930Y-89281956D01*
X140359028Y-89296078D01*
X140365040Y-89298011D01*
X140415299Y-89315598D01*
X140424594Y-89315945D01*
X140426591Y-89316323D01*
X140428594Y-89316504D01*
X140435227Y-89318452D01*
X140489260Y-89318452D01*
X140493897Y-89318539D01*
X140551009Y-89320676D01*
X140559309Y-89318452D01*
X140564771Y-89318452D01*
X140620422Y-89302110D01*
X140623195Y-89301332D01*
X140682186Y-89285527D01*
X140686817Y-89282616D01*
X140689068Y-89281956D01*
X140741315Y-89248377D01*
X140742156Y-89247844D01*
X140797174Y-89213275D01*
X140840928Y-89162432D01*
X140882881Y-89114015D01*
X140883205Y-89113305D01*
X140885757Y-89110340D01*
X140889475Y-89101816D01*
X140894419Y-89093950D01*
X140896300Y-89095132D01*
X140920746Y-89062390D01*
X140971221Y-89036808D01*
X141027807Y-89036317D01*
X141078719Y-89061020D01*
X141108023Y-89098884D01*
X141108640Y-89098488D01*
X141113160Y-89105522D01*
X141113353Y-89105771D01*
X141113433Y-89105946D01*
X141117118Y-89114014D01*
X141122920Y-89120710D01*
X141122922Y-89120713D01*
X141158873Y-89162203D01*
X141201951Y-89211918D01*
X141310931Y-89281955D01*
X141435228Y-89318451D01*
X141444099Y-89318451D01*
X141544878Y-89318451D01*
X141592331Y-89327890D01*
X141632559Y-89354770D01*
X141813181Y-89535392D01*
X141840061Y-89575620D01*
X141849500Y-89623073D01*
X141849500Y-91594486D01*
X141847116Y-91618677D01*
X141844592Y-91631371D01*
X141846975Y-91643351D01*
X141861034Y-91714034D01*
X141864034Y-91729112D01*
X141864643Y-91730023D01*
X141919399Y-91811972D01*
X141929551Y-91818755D01*
X141929553Y-91818757D01*
X141930165Y-91819166D01*
X141948957Y-91834588D01*
X142515414Y-92401046D01*
X142530835Y-92419836D01*
X142538028Y-92430601D01*
X142558945Y-92444577D01*
X142558946Y-92444578D01*
X142620889Y-92485966D01*
X142718629Y-92505409D01*
X142731328Y-92502882D01*
X142755519Y-92500500D01*
X143444878Y-92500500D01*
X143492331Y-92509939D01*
X143532559Y-92536819D01*
X143613181Y-92617441D01*
X143640061Y-92657669D01*
X143649500Y-92705122D01*
X143649500Y-93709873D01*
X143638294Y-93761385D01*
X143607576Y-93802417D01*
X143601951Y-93806033D01*
X143596147Y-93812731D01*
X143596145Y-93812733D01*
X143522922Y-93897237D01*
X143522917Y-93897243D01*
X143517118Y-93903937D01*
X143513438Y-93911994D01*
X143513434Y-93912001D01*
X143466988Y-94013704D01*
X143463303Y-94021774D01*
X143462041Y-94030547D01*
X143462040Y-94030553D01*
X143452056Y-94100000D01*
X143444867Y-94150000D01*
X143446129Y-94158777D01*
X143462040Y-94269446D01*
X143462041Y-94269450D01*
X143463303Y-94278226D01*
X143466987Y-94286294D01*
X143466988Y-94286295D01*
X143513434Y-94387998D01*
X143513436Y-94388001D01*
X143517118Y-94396063D01*
X143522920Y-94402759D01*
X143522922Y-94402762D01*
X143552818Y-94437264D01*
X143601951Y-94493967D01*
X143710931Y-94564004D01*
X143835228Y-94600500D01*
X143955901Y-94600500D01*
X143964772Y-94600500D01*
X144089069Y-94564004D01*
X144198049Y-94493967D01*
X144282882Y-94396063D01*
X144287205Y-94386596D01*
X144288770Y-94384566D01*
X144291360Y-94380537D01*
X144291706Y-94380759D01*
X144321505Y-94342114D01*
X144371914Y-94317329D01*
X144428086Y-94317329D01*
X144478495Y-94342114D01*
X144508293Y-94380759D01*
X144508640Y-94380537D01*
X144511229Y-94384566D01*
X144512794Y-94386596D01*
X144517118Y-94396063D01*
X144522920Y-94402759D01*
X144522922Y-94402762D01*
X144552818Y-94437264D01*
X144601951Y-94493967D01*
X144710931Y-94564004D01*
X144835228Y-94600500D01*
X144955901Y-94600500D01*
X144964772Y-94600500D01*
X145089069Y-94564004D01*
X145198049Y-94493967D01*
X145282882Y-94396063D01*
X145336697Y-94278226D01*
X145355133Y-94150000D01*
X145336697Y-94021774D01*
X145287740Y-93914574D01*
X145286565Y-93912001D01*
X145286564Y-93911999D01*
X145282882Y-93903937D01*
X145198049Y-93806033D01*
X145192423Y-93802417D01*
X145161706Y-93761385D01*
X145150500Y-93709873D01*
X145150500Y-92486890D01*
X145152883Y-92462697D01*
X145153026Y-92461978D01*
X145155409Y-92450000D01*
X145135966Y-92352260D01*
X145094578Y-92290317D01*
X145094577Y-92290315D01*
X145087386Y-92279553D01*
X145087384Y-92279551D01*
X145080601Y-92269399D01*
X145069836Y-92262206D01*
X145051046Y-92246785D01*
X144603214Y-91798953D01*
X144587793Y-91780163D01*
X144580601Y-91769399D01*
X144520305Y-91729111D01*
X144497741Y-91714034D01*
X144485763Y-91711651D01*
X144485762Y-91711651D01*
X144411980Y-91696975D01*
X144400000Y-91694592D01*
X144388020Y-91696975D01*
X144387306Y-91697117D01*
X144363115Y-91699500D01*
X144236965Y-91699500D01*
X144180670Y-91685985D01*
X144136647Y-91648385D01*
X144114492Y-91594898D01*
X144119034Y-91537182D01*
X144149284Y-91487819D01*
X146746701Y-88890401D01*
X147624874Y-88012227D01*
X147634086Y-88004805D01*
X147633883Y-88004571D01*
X147640586Y-87998762D01*
X147648049Y-87993967D01*
X147677037Y-87960510D01*
X147683058Y-87954044D01*
X147692425Y-87944678D01*
X147699121Y-87935603D01*
X147705186Y-87928026D01*
X147727069Y-87902771D01*
X147732882Y-87896063D01*
X147736568Y-87887988D01*
X147741360Y-87880534D01*
X147741408Y-87880565D01*
X147746015Y-87872740D01*
X147747270Y-87870363D01*
X147752793Y-87862882D01*
X147758459Y-87846688D01*
X147798185Y-87790698D01*
X147861614Y-87764423D01*
X147929300Y-87775922D01*
X147980493Y-87821670D01*
X147999500Y-87887643D01*
X147999500Y-90799899D01*
X147999458Y-90800000D01*
X147999576Y-90800284D01*
X147999617Y-90800383D01*
X147999715Y-90800423D01*
X148008301Y-90809009D01*
X148008302Y-90809010D01*
X148713181Y-91513888D01*
X148740061Y-91554116D01*
X148749500Y-91601569D01*
X148749500Y-97593037D01*
X148748720Y-97606925D01*
X148746662Y-97625185D01*
X148746381Y-97627483D01*
X148736161Y-97705106D01*
X148732994Y-97721024D01*
X148732474Y-97722964D01*
X148729745Y-97731811D01*
X148718809Y-97763067D01*
X148716327Y-97769570D01*
X148694531Y-97822189D01*
X148684964Y-97840707D01*
X148664651Y-97873035D01*
X148658033Y-97882549D01*
X148625470Y-97924986D01*
X148614775Y-97937181D01*
X148587181Y-97964775D01*
X148574986Y-97975470D01*
X148532549Y-98008033D01*
X148523034Y-98014651D01*
X148490704Y-98034965D01*
X148472187Y-98044532D01*
X148419568Y-98066328D01*
X148413066Y-98068809D01*
X148381819Y-98079742D01*
X148372978Y-98082470D01*
X148371031Y-98082992D01*
X148355106Y-98086161D01*
X148277483Y-98096381D01*
X148275185Y-98096662D01*
X148267440Y-98097534D01*
X148256919Y-98098720D01*
X148243037Y-98099500D01*
X138556969Y-98099500D01*
X138543077Y-98098719D01*
X138524779Y-98096656D01*
X138522487Y-98096376D01*
X138444897Y-98086162D01*
X138428954Y-98082988D01*
X138428099Y-98082759D01*
X138427008Y-98082467D01*
X138418184Y-98079743D01*
X138386914Y-98068801D01*
X138380417Y-98066322D01*
X138327817Y-98044535D01*
X138309295Y-98034966D01*
X138276949Y-98014641D01*
X138267437Y-98008024D01*
X138225015Y-97975473D01*
X138212820Y-97964778D01*
X138185214Y-97937172D01*
X138174523Y-97924982D01*
X138141974Y-97882563D01*
X138135359Y-97873053D01*
X138115029Y-97840698D01*
X138105466Y-97822187D01*
X138083663Y-97769550D01*
X138081200Y-97763095D01*
X138070246Y-97731791D01*
X138067514Y-97722927D01*
X138066989Y-97720968D01*
X138063837Y-97705105D01*
X138053619Y-97627490D01*
X138053338Y-97625189D01*
X138051280Y-97606924D01*
X138050500Y-97593040D01*
X138050500Y-91850000D01*
X140094867Y-91850000D01*
X140096129Y-91858777D01*
X140112040Y-91969446D01*
X140112041Y-91969450D01*
X140113303Y-91978226D01*
X140116987Y-91986294D01*
X140116988Y-91986295D01*
X140163434Y-92087998D01*
X140163436Y-92088002D01*
X140167118Y-92096063D01*
X140172920Y-92102759D01*
X140172922Y-92102762D01*
X140236638Y-92176294D01*
X140251951Y-92193967D01*
X140259411Y-92198761D01*
X140259412Y-92198762D01*
X140271211Y-92206344D01*
X140360931Y-92264004D01*
X140485228Y-92300500D01*
X140503456Y-92300500D01*
X140550909Y-92309939D01*
X140591137Y-92336819D01*
X141513181Y-93258863D01*
X141540061Y-93299091D01*
X141549500Y-93346544D01*
X141549500Y-93770316D01*
X141541683Y-93813647D01*
X141526607Y-93839057D01*
X141527721Y-93839773D01*
X141522925Y-93847234D01*
X141517118Y-93853937D01*
X141513434Y-93862002D01*
X141513433Y-93862005D01*
X141487193Y-93919463D01*
X141463303Y-93971774D01*
X141462041Y-93980547D01*
X141462040Y-93980553D01*
X141457274Y-94013704D01*
X141444867Y-94100000D01*
X141446129Y-94108777D01*
X141462040Y-94219446D01*
X141462041Y-94219450D01*
X141463303Y-94228226D01*
X141466987Y-94236294D01*
X141466988Y-94236295D01*
X141513434Y-94337998D01*
X141513436Y-94338002D01*
X141517118Y-94346063D01*
X141522920Y-94352759D01*
X141522922Y-94352762D01*
X141566247Y-94402762D01*
X141601951Y-94443967D01*
X141710931Y-94514004D01*
X141835228Y-94550500D01*
X141955901Y-94550500D01*
X141964772Y-94550500D01*
X142089069Y-94514004D01*
X142198049Y-94443967D01*
X142282882Y-94346063D01*
X142336697Y-94228226D01*
X142355133Y-94100000D01*
X142336697Y-93971774D01*
X142282882Y-93853937D01*
X142277073Y-93847233D01*
X142272279Y-93839773D01*
X142273392Y-93839057D01*
X142258317Y-93813647D01*
X142250500Y-93770316D01*
X142250500Y-93199212D01*
X142252866Y-93176394D01*
X142252934Y-93174741D01*
X142255043Y-93164685D01*
X142251347Y-93135037D01*
X142250818Y-93129940D01*
X142250500Y-93126104D01*
X142250500Y-93120960D01*
X142247329Y-93101966D01*
X142246594Y-93096915D01*
X142241844Y-93058806D01*
X142240573Y-93048608D01*
X142237313Y-93041941D01*
X142236092Y-93034619D01*
X142212919Y-92991801D01*
X142210574Y-92987245D01*
X142193711Y-92952749D01*
X142189198Y-92943517D01*
X142183950Y-92938269D01*
X142180418Y-92931742D01*
X142172855Y-92924780D01*
X142172853Y-92924777D01*
X142144587Y-92898756D01*
X142140889Y-92895208D01*
X141015212Y-91769531D01*
X140986838Y-91721709D01*
X140986697Y-91721774D01*
X140932882Y-91603937D01*
X140915654Y-91584055D01*
X140853856Y-91512735D01*
X140848049Y-91506033D01*
X140840589Y-91501238D01*
X140840587Y-91501237D01*
X140793558Y-91471014D01*
X140739069Y-91435996D01*
X140730555Y-91433496D01*
X140623284Y-91401999D01*
X140623282Y-91401998D01*
X140614772Y-91399500D01*
X140485228Y-91399500D01*
X140476718Y-91401998D01*
X140476715Y-91401999D01*
X140369444Y-91433496D01*
X140369441Y-91433497D01*
X140360931Y-91435996D01*
X140353468Y-91440791D01*
X140353468Y-91440792D01*
X140259412Y-91501237D01*
X140259406Y-91501241D01*
X140251951Y-91506033D01*
X140246146Y-91512732D01*
X140246143Y-91512735D01*
X140172922Y-91597237D01*
X140172917Y-91597243D01*
X140167118Y-91603937D01*
X140163438Y-91611994D01*
X140163434Y-91612001D01*
X140123475Y-91699500D01*
X140113303Y-91721774D01*
X140112041Y-91730547D01*
X140112040Y-91730553D01*
X140099359Y-91818757D01*
X140094867Y-91850000D01*
X138050500Y-91850000D01*
X138050500Y-91601570D01*
X138059939Y-91554117D01*
X138086819Y-91513889D01*
X138167212Y-91433496D01*
X138800282Y-90800424D01*
X138800383Y-90800383D01*
X138800469Y-90800172D01*
X138800542Y-90800000D01*
X138800500Y-90799900D01*
X138800500Y-82675100D01*
X138800542Y-82675000D01*
X138800469Y-82674827D01*
X138800383Y-82674617D01*
X138800282Y-82674575D01*
X138086819Y-81961111D01*
X138059939Y-81920883D01*
X138050500Y-81873430D01*
X138050500Y-79240000D01*
X140079196Y-79240000D01*
X140080723Y-79249641D01*
X140098753Y-79363484D01*
X140098754Y-79363489D01*
X140100281Y-79373126D01*
X140161472Y-79493220D01*
X140256780Y-79588528D01*
X140376874Y-79649719D01*
X140476512Y-79665500D01*
X140538610Y-79665500D01*
X140543488Y-79665500D01*
X140643126Y-79649719D01*
X140763220Y-79588528D01*
X140851748Y-79500000D01*
X142694867Y-79500000D01*
X142696129Y-79508777D01*
X142712040Y-79619446D01*
X142712041Y-79619450D01*
X142713303Y-79628226D01*
X142716987Y-79636294D01*
X142716988Y-79636295D01*
X142763434Y-79737998D01*
X142763436Y-79738002D01*
X142767118Y-79746063D01*
X142772920Y-79752759D01*
X142772922Y-79752762D01*
X142836638Y-79826294D01*
X142851951Y-79843967D01*
X142960931Y-79914004D01*
X143085228Y-79950500D01*
X143205901Y-79950500D01*
X143214772Y-79950500D01*
X143339069Y-79914004D01*
X143448049Y-79843967D01*
X143491953Y-79793297D01*
X143534155Y-79761706D01*
X143585667Y-79750500D01*
X143714333Y-79750500D01*
X143765845Y-79761706D01*
X143808046Y-79793297D01*
X143851951Y-79843967D01*
X143960931Y-79914004D01*
X144085228Y-79950500D01*
X144205901Y-79950500D01*
X144214772Y-79950500D01*
X144339069Y-79914004D01*
X144448049Y-79843967D01*
X144532882Y-79746063D01*
X144586697Y-79628226D01*
X144605133Y-79500000D01*
X144586697Y-79371774D01*
X144532882Y-79253937D01*
X144520805Y-79240000D01*
X145859196Y-79240000D01*
X145860723Y-79249641D01*
X145878753Y-79363484D01*
X145878754Y-79363489D01*
X145880281Y-79373126D01*
X145941472Y-79493220D01*
X146036780Y-79588528D01*
X146156874Y-79649719D01*
X146256512Y-79665500D01*
X146318610Y-79665500D01*
X146323488Y-79665500D01*
X146423126Y-79649719D01*
X146543220Y-79588528D01*
X146638528Y-79493220D01*
X146699719Y-79373126D01*
X146720804Y-79240000D01*
X146699719Y-79106874D01*
X146638528Y-78986780D01*
X146543220Y-78891472D01*
X146423126Y-78830281D01*
X146413489Y-78828754D01*
X146413484Y-78828753D01*
X146328308Y-78815263D01*
X146328302Y-78815262D01*
X146323488Y-78814500D01*
X146256512Y-78814500D01*
X146251698Y-78815262D01*
X146251691Y-78815263D01*
X146166515Y-78828753D01*
X146166508Y-78828755D01*
X146156874Y-78830281D01*
X146148178Y-78834711D01*
X146148177Y-78834712D01*
X146045475Y-78887041D01*
X146045471Y-78887043D01*
X146036780Y-78891472D01*
X146029881Y-78898370D01*
X146029878Y-78898373D01*
X145948373Y-78979878D01*
X145948370Y-78979881D01*
X145941472Y-78986780D01*
X145937043Y-78995471D01*
X145937041Y-78995475D01*
X145888475Y-79090792D01*
X145880281Y-79106874D01*
X145878754Y-79116508D01*
X145878753Y-79116515D01*
X145864470Y-79206702D01*
X145859196Y-79240000D01*
X144520805Y-79240000D01*
X144519327Y-79238294D01*
X144453856Y-79162735D01*
X144448049Y-79156033D01*
X144440589Y-79151238D01*
X144440587Y-79151237D01*
X144371556Y-79106874D01*
X144339069Y-79085996D01*
X144330555Y-79083496D01*
X144223284Y-79051999D01*
X144223282Y-79051998D01*
X144214772Y-79049500D01*
X144085228Y-79049500D01*
X144076718Y-79051998D01*
X144076715Y-79051999D01*
X143969444Y-79083496D01*
X143969441Y-79083497D01*
X143960931Y-79085996D01*
X143953468Y-79090791D01*
X143953468Y-79090792D01*
X143859412Y-79151237D01*
X143859406Y-79151241D01*
X143851951Y-79156033D01*
X143846146Y-79162732D01*
X143846143Y-79162735D01*
X143808047Y-79206702D01*
X143765845Y-79238294D01*
X143714333Y-79249500D01*
X143585667Y-79249500D01*
X143534155Y-79238294D01*
X143491953Y-79206702D01*
X143453856Y-79162735D01*
X143448049Y-79156033D01*
X143440589Y-79151238D01*
X143440587Y-79151237D01*
X143371556Y-79106874D01*
X143339069Y-79085996D01*
X143330555Y-79083496D01*
X143223284Y-79051999D01*
X143223282Y-79051998D01*
X143214772Y-79049500D01*
X143085228Y-79049500D01*
X143076718Y-79051998D01*
X143076715Y-79051999D01*
X142969444Y-79083496D01*
X142969441Y-79083497D01*
X142960931Y-79085996D01*
X142953468Y-79090791D01*
X142953468Y-79090792D01*
X142859412Y-79151237D01*
X142859406Y-79151241D01*
X142851951Y-79156033D01*
X142846146Y-79162732D01*
X142846143Y-79162735D01*
X142772922Y-79247237D01*
X142772917Y-79247243D01*
X142767118Y-79253937D01*
X142763438Y-79261994D01*
X142763434Y-79262001D01*
X142716988Y-79363704D01*
X142713303Y-79371774D01*
X142712041Y-79380547D01*
X142712040Y-79380553D01*
X142711858Y-79381822D01*
X142694867Y-79500000D01*
X140851748Y-79500000D01*
X140858528Y-79493220D01*
X140919719Y-79373126D01*
X140940804Y-79240000D01*
X140919719Y-79106874D01*
X140858528Y-78986780D01*
X140763220Y-78891472D01*
X140643126Y-78830281D01*
X140633489Y-78828754D01*
X140633484Y-78828753D01*
X140548308Y-78815263D01*
X140548302Y-78815262D01*
X140543488Y-78814500D01*
X140476512Y-78814500D01*
X140471698Y-78815262D01*
X140471691Y-78815263D01*
X140386515Y-78828753D01*
X140386508Y-78828755D01*
X140376874Y-78830281D01*
X140368178Y-78834711D01*
X140368177Y-78834712D01*
X140265475Y-78887041D01*
X140265471Y-78887043D01*
X140256780Y-78891472D01*
X140249881Y-78898370D01*
X140249878Y-78898373D01*
X140168373Y-78979878D01*
X140168370Y-78979881D01*
X140161472Y-78986780D01*
X140157043Y-78995471D01*
X140157041Y-78995475D01*
X140108475Y-79090792D01*
X140100281Y-79106874D01*
X140098754Y-79116508D01*
X140098753Y-79116515D01*
X140084470Y-79206702D01*
X140079196Y-79240000D01*
X138050500Y-79240000D01*
X138050500Y-73206959D01*
X138051278Y-73193091D01*
X138053355Y-73174656D01*
X138053603Y-73172626D01*
X138063838Y-73094883D01*
X138066992Y-73079018D01*
X138067520Y-73077048D01*
X138070243Y-73068219D01*
X138081210Y-73036875D01*
X138083672Y-73030427D01*
X138096528Y-72999388D01*
X138105464Y-72977816D01*
X138115021Y-72959313D01*
X138135381Y-72926912D01*
X138141959Y-72917453D01*
X138174529Y-72875007D01*
X138185198Y-72862843D01*
X138212843Y-72835198D01*
X138225006Y-72824530D01*
X138267461Y-72791954D01*
X138276912Y-72785381D01*
X138309313Y-72765021D01*
X138327816Y-72755464D01*
X138380415Y-72733677D01*
X138386875Y-72731210D01*
X138418219Y-72720243D01*
X138427069Y-72717514D01*
X138428379Y-72717163D01*
X138429008Y-72716995D01*
X138444892Y-72713837D01*
X138470043Y-72710525D01*
X138522600Y-72703606D01*
X138524655Y-72703355D01*
X138543091Y-72701278D01*
X138556959Y-72700500D01*
X148243040Y-72700500D01*
X148256920Y-72701279D01*
G37*
%TD.AperFunction*%
%TA.AperFunction,Conductor*%
G36*
X147937501Y-86131422D02*
G01*
X147982888Y-86176809D01*
X147999500Y-86238808D01*
X147999500Y-87408558D01*
X147981469Y-87472952D01*
X147932619Y-87518619D01*
X147867158Y-87532277D01*
X147804123Y-87509955D01*
X147769002Y-87466914D01*
X147767575Y-87467812D01*
X147751741Y-87442612D01*
X147743941Y-87428153D01*
X147742498Y-87424995D01*
X147732882Y-87403937D01*
X147719303Y-87388266D01*
X147708022Y-87373034D01*
X147700267Y-87360692D01*
X147695324Y-87352825D01*
X147683712Y-87342832D01*
X147675742Y-87335973D01*
X147662913Y-87323187D01*
X147653860Y-87312740D01*
X147648049Y-87306033D01*
X147631552Y-87295431D01*
X147627298Y-87292697D01*
X147613457Y-87282373D01*
X147599429Y-87270301D01*
X147599427Y-87270300D01*
X147592388Y-87264242D01*
X147577639Y-87257807D01*
X147572313Y-87255483D01*
X147554861Y-87246145D01*
X147546529Y-87240790D01*
X147546527Y-87240789D01*
X147539069Y-87235996D01*
X147511634Y-87227940D01*
X147496988Y-87222619D01*
X147490930Y-87219976D01*
X147467916Y-87209935D01*
X147458685Y-87208894D01*
X147458682Y-87208894D01*
X147450054Y-87207922D01*
X147429016Y-87203681D01*
X147423284Y-87201998D01*
X147423276Y-87201996D01*
X147414772Y-87199500D01*
X147405905Y-87199500D01*
X147382261Y-87199500D01*
X147368378Y-87198720D01*
X147342195Y-87195770D01*
X147332965Y-87194730D01*
X147323842Y-87196455D01*
X147323839Y-87196456D01*
X147319175Y-87197339D01*
X147296124Y-87199500D01*
X147285228Y-87199500D01*
X147276722Y-87201997D01*
X147276717Y-87201998D01*
X147250279Y-87209760D01*
X147238408Y-87212619D01*
X147208655Y-87218249D01*
X147208653Y-87218249D01*
X147199529Y-87219976D01*
X147191315Y-87224316D01*
X147191312Y-87224318D01*
X147190601Y-87224694D01*
X147173513Y-87231636D01*
X147169432Y-87233499D01*
X147160931Y-87235996D01*
X147153476Y-87240786D01*
X147153467Y-87240791D01*
X147126990Y-87257807D01*
X147117898Y-87263118D01*
X147087680Y-87279089D01*
X147087670Y-87279096D01*
X147079463Y-87283434D01*
X147072896Y-87289999D01*
X147066527Y-87294701D01*
X147065911Y-87295198D01*
X147066113Y-87295431D01*
X147059411Y-87301237D01*
X147051951Y-87306033D01*
X147037087Y-87323187D01*
X147022964Y-87339485D01*
X147016934Y-87345961D01*
X143549716Y-90813181D01*
X143509488Y-90840061D01*
X143462035Y-90849500D01*
X142964772Y-90849500D01*
X142835228Y-90849500D01*
X142826722Y-90851997D01*
X142826717Y-90851998D01*
X142810617Y-90856725D01*
X142794250Y-90860349D01*
X142793061Y-90860529D01*
X142740230Y-90857096D01*
X142693647Y-90831941D01*
X142661802Y-90789647D01*
X142650500Y-90737926D01*
X142650500Y-89097729D01*
X142652883Y-89073538D01*
X142653025Y-89072824D01*
X142655408Y-89060844D01*
X142635966Y-88963103D01*
X142616057Y-88933307D01*
X142580601Y-88880243D01*
X142569833Y-88873048D01*
X142551043Y-88857627D01*
X141892373Y-88198957D01*
X141876951Y-88180165D01*
X141876542Y-88179553D01*
X141876540Y-88179551D01*
X141869757Y-88169399D01*
X141816692Y-88133942D01*
X141786897Y-88114034D01*
X141774919Y-88111651D01*
X141774916Y-88111650D01*
X141701136Y-88096975D01*
X141689156Y-88094592D01*
X141677176Y-88096975D01*
X141676462Y-88097117D01*
X141652271Y-88099500D01*
X141435667Y-88099500D01*
X141384155Y-88088294D01*
X141341953Y-88056702D01*
X141303856Y-88012735D01*
X141298049Y-88006033D01*
X141279274Y-87993967D01*
X141240647Y-87969142D01*
X141202191Y-87929993D01*
X141184397Y-87878082D01*
X141190750Y-87823574D01*
X141220004Y-87777148D01*
X142510334Y-86486818D01*
X142550562Y-86459939D01*
X142598015Y-86450500D01*
X147405902Y-86450500D01*
X147414772Y-86450500D01*
X147439390Y-86443271D01*
X147455836Y-86439636D01*
X147484287Y-86435348D01*
X147492661Y-86431315D01*
X147503129Y-86426274D01*
X147522002Y-86419014D01*
X147539069Y-86414004D01*
X147563953Y-86398011D01*
X147577186Y-86390610D01*
X147598265Y-86380459D01*
X147598264Y-86380459D01*
X147606642Y-86376425D01*
X147619091Y-86364873D01*
X147636385Y-86351462D01*
X147648049Y-86343967D01*
X147669977Y-86318658D01*
X147679350Y-86308960D01*
X147706194Y-86284055D01*
X147712717Y-86272754D01*
X147726392Y-86253552D01*
X147732882Y-86246063D01*
X147748418Y-86212043D01*
X147753828Y-86201549D01*
X147768115Y-86176805D01*
X147813503Y-86131419D01*
X147875502Y-86114808D01*
X147937501Y-86131422D01*
G37*
%TD.AperFunction*%
M02*
