%TF.GenerationSoftware,KiCad,Pcbnew,(7.0.0)*%
%TF.CreationDate,2023-06-07T22:18:09+08:00*%
%TF.ProjectId,USB2UART,55534232-5541-4525-942e-6b696361645f,rev?*%
%TF.SameCoordinates,Original*%
%TF.FileFunction,Soldermask,Top*%
%TF.FilePolarity,Negative*%
%FSLAX46Y46*%
G04 Gerber Fmt 4.6, Leading zero omitted, Abs format (unit mm)*
G04 Created by KiCad (PCBNEW (7.0.0)) date 2023-06-07 22:18:09*
%MOMM*%
%LPD*%
G01*
G04 APERTURE LIST*
G04 Aperture macros list*
%AMRoundRect*
0 Rectangle with rounded corners*
0 $1 Rounding radius*
0 $2 $3 $4 $5 $6 $7 $8 $9 X,Y pos of 4 corners*
0 Add a 4 corners polygon primitive as box body*
4,1,4,$2,$3,$4,$5,$6,$7,$8,$9,$2,$3,0*
0 Add four circle primitives for the rounded corners*
1,1,$1+$1,$2,$3*
1,1,$1+$1,$4,$5*
1,1,$1+$1,$6,$7*
1,1,$1+$1,$8,$9*
0 Add four rect primitives between the rounded corners*
20,1,$1+$1,$2,$3,$4,$5,0*
20,1,$1+$1,$4,$5,$6,$7,0*
20,1,$1+$1,$6,$7,$8,$9,0*
20,1,$1+$1,$8,$9,$2,$3,0*%
G04 Aperture macros list end*
%ADD10RoundRect,0.135000X-0.135000X-0.185000X0.135000X-0.185000X0.135000X0.185000X-0.135000X0.185000X0*%
%ADD11RoundRect,0.140000X0.140000X0.170000X-0.140000X0.170000X-0.140000X-0.170000X0.140000X-0.170000X0*%
%ADD12RoundRect,0.135000X-0.185000X0.135000X-0.185000X-0.135000X0.185000X-0.135000X0.185000X0.135000X0*%
%ADD13RoundRect,0.150000X-0.150000X-0.625000X0.150000X-0.625000X0.150000X0.625000X-0.150000X0.625000X0*%
%ADD14RoundRect,0.250000X-0.350000X-0.650000X0.350000X-0.650000X0.350000X0.650000X-0.350000X0.650000X0*%
%ADD15RoundRect,0.218750X-0.218750X-0.256250X0.218750X-0.256250X0.218750X0.256250X-0.218750X0.256250X0*%
%ADD16RoundRect,0.112500X0.187500X0.112500X-0.187500X0.112500X-0.187500X-0.112500X0.187500X-0.112500X0*%
%ADD17C,0.650000*%
%ADD18R,0.600000X1.450000*%
%ADD19R,0.300000X1.450000*%
%ADD20O,1.000000X2.100000*%
%ADD21O,1.000000X1.600000*%
%ADD22R,0.300000X1.400000*%
G04 APERTURE END LIST*
D10*
X146352500Y-90050000D03*
X147372500Y-90050000D03*
D11*
X140680000Y-82400000D03*
X139720000Y-82400000D03*
D12*
X143900000Y-82390000D03*
X143900000Y-83410000D03*
D13*
X141900000Y-93100000D03*
X142900000Y-93100000D03*
X143900000Y-93100000D03*
X144900000Y-93100000D03*
D14*
X140600000Y-96975000D03*
X146200000Y-96975000D03*
D15*
X143612500Y-86850000D03*
X145187500Y-86850000D03*
D12*
X141650000Y-82390000D03*
X141650000Y-83410000D03*
D16*
X147050000Y-82900000D03*
X144950000Y-82900000D03*
D17*
X146290000Y-79240000D03*
X140510000Y-79240000D03*
D18*
X146649999Y-80684999D03*
X145849999Y-80684999D03*
D19*
X144649999Y-80684999D03*
X143649999Y-80684999D03*
X143149999Y-80684999D03*
X142149999Y-80684999D03*
D18*
X140949999Y-80684999D03*
X140149999Y-80684999D03*
X140149999Y-80684999D03*
X140949999Y-80684999D03*
D19*
X141649999Y-80684999D03*
X142649999Y-80684999D03*
X144149999Y-80684999D03*
X145149999Y-80684999D03*
D18*
X145849999Y-80684999D03*
X146649999Y-80684999D03*
D20*
X147719999Y-79769999D03*
D21*
X147719999Y-75589999D03*
D20*
X139079999Y-79769999D03*
D21*
X139079999Y-75589999D03*
D10*
X146352500Y-85250000D03*
X147372500Y-85250000D03*
D22*
X141999999Y-85449999D03*
X141499999Y-85449999D03*
X140999999Y-85449999D03*
X140499999Y-85449999D03*
X139999999Y-85449999D03*
X139999999Y-89849999D03*
X140499999Y-89849999D03*
X140999999Y-89849999D03*
X141499999Y-89849999D03*
X141999999Y-89849999D03*
D15*
X143625000Y-85250000D03*
X145200000Y-85250000D03*
D11*
X142380000Y-91300000D03*
X141420000Y-91300000D03*
D15*
X143600000Y-88450000D03*
X145175000Y-88450000D03*
D11*
X140680000Y-83400000D03*
X139720000Y-83400000D03*
X140530000Y-91300000D03*
X139570000Y-91300000D03*
D10*
X146352500Y-86850000D03*
X147372500Y-86850000D03*
D15*
X143612500Y-90050000D03*
X145187500Y-90050000D03*
D10*
X146352500Y-88450000D03*
X147372500Y-88450000D03*
M02*
